%TF.GenerationSoftware,KiCad,Pcbnew,7.0.10*%
%TF.CreationDate,2024-05-09T12:15:42+09:00*%
%TF.ProjectId,yashica8,79617368-6963-4613-982e-6b696361645f,rev?*%
%TF.SameCoordinates,Original*%
%TF.FileFunction,Legend,Top*%
%TF.FilePolarity,Positive*%
%FSLAX46Y46*%
G04 Gerber Fmt 4.6, Leading zero omitted, Abs format (unit mm)*
G04 Created by KiCad (PCBNEW 7.0.10) date 2024-05-09 12:15:42*
%MOMM*%
%LPD*%
G01*
G04 APERTURE LIST*
G04 Aperture macros list*
%AMRoundRect*
0 Rectangle with rounded corners*
0 $1 Rounding radius*
0 $2 $3 $4 $5 $6 $7 $8 $9 X,Y pos of 4 corners*
0 Add a 4 corners polygon primitive as box body*
4,1,4,$2,$3,$4,$5,$6,$7,$8,$9,$2,$3,0*
0 Add four circle primitives for the rounded corners*
1,1,$1+$1,$2,$3*
1,1,$1+$1,$4,$5*
1,1,$1+$1,$6,$7*
1,1,$1+$1,$8,$9*
0 Add four rect primitives between the rounded corners*
20,1,$1+$1,$2,$3,$4,$5,0*
20,1,$1+$1,$4,$5,$6,$7,0*
20,1,$1+$1,$6,$7,$8,$9,0*
20,1,$1+$1,$8,$9,$2,$3,0*%
G04 Aperture macros list end*
%ADD10C,0.150000*%
%ADD11C,0.120000*%
%ADD12C,2.100000*%
%ADD13R,1.800000X1.800000*%
%ADD14C,1.800000*%
%ADD15C,2.000000*%
%ADD16RoundRect,0.250000X-0.350000X-0.450000X0.350000X-0.450000X0.350000X0.450000X-0.350000X0.450000X0*%
%ADD17RoundRect,0.150000X-0.512500X-0.150000X0.512500X-0.150000X0.512500X0.150000X-0.512500X0.150000X0*%
%ADD18R,1.524000X1.524000*%
%ADD19C,1.524000*%
%ADD20RoundRect,0.250000X-0.450000X0.350000X-0.450000X-0.350000X0.450000X-0.350000X0.450000X0.350000X0*%
%ADD21R,1.600000X1.600000*%
%ADD22O,1.600000X1.600000*%
%ADD23RoundRect,0.381000X-0.762000X-0.381000X0.762000X-0.381000X0.762000X0.381000X-0.762000X0.381000X0*%
%ADD24RoundRect,0.381000X0.762000X0.381000X-0.762000X0.381000X-0.762000X-0.381000X0.762000X-0.381000X0*%
G04 APERTURE END LIST*
D10*
X24041905Y27095181D02*
X24041905Y28095181D01*
X24041905Y28095181D02*
X24280000Y28095181D01*
X24280000Y28095181D02*
X24422857Y28047562D01*
X24422857Y28047562D02*
X24518095Y27952324D01*
X24518095Y27952324D02*
X24565714Y27857086D01*
X24565714Y27857086D02*
X24613333Y27666610D01*
X24613333Y27666610D02*
X24613333Y27523753D01*
X24613333Y27523753D02*
X24565714Y27333277D01*
X24565714Y27333277D02*
X24518095Y27238039D01*
X24518095Y27238039D02*
X24422857Y27142800D01*
X24422857Y27142800D02*
X24280000Y27095181D01*
X24280000Y27095181D02*
X24041905Y27095181D01*
X24994286Y27999943D02*
X25041905Y28047562D01*
X25041905Y28047562D02*
X25137143Y28095181D01*
X25137143Y28095181D02*
X25375238Y28095181D01*
X25375238Y28095181D02*
X25470476Y28047562D01*
X25470476Y28047562D02*
X25518095Y27999943D01*
X25518095Y27999943D02*
X25565714Y27904705D01*
X25565714Y27904705D02*
X25565714Y27809467D01*
X25565714Y27809467D02*
X25518095Y27666610D01*
X25518095Y27666610D02*
X24946667Y27095181D01*
X24946667Y27095181D02*
X25565714Y27095181D01*
X24716667Y3862800D02*
X24859524Y3815181D01*
X24859524Y3815181D02*
X25097619Y3815181D01*
X25097619Y3815181D02*
X25192857Y3862800D01*
X25192857Y3862800D02*
X25240476Y3910420D01*
X25240476Y3910420D02*
X25288095Y4005658D01*
X25288095Y4005658D02*
X25288095Y4100896D01*
X25288095Y4100896D02*
X25240476Y4196134D01*
X25240476Y4196134D02*
X25192857Y4243753D01*
X25192857Y4243753D02*
X25097619Y4291372D01*
X25097619Y4291372D02*
X24907143Y4338991D01*
X24907143Y4338991D02*
X24811905Y4386610D01*
X24811905Y4386610D02*
X24764286Y4434229D01*
X24764286Y4434229D02*
X24716667Y4529467D01*
X24716667Y4529467D02*
X24716667Y4624705D01*
X24716667Y4624705D02*
X24764286Y4719943D01*
X24764286Y4719943D02*
X24811905Y4767562D01*
X24811905Y4767562D02*
X24907143Y4815181D01*
X24907143Y4815181D02*
X25145238Y4815181D01*
X25145238Y4815181D02*
X25288095Y4767562D01*
X25621429Y4815181D02*
X25859524Y3815181D01*
X25859524Y3815181D02*
X26050000Y4529467D01*
X26050000Y4529467D02*
X26240476Y3815181D01*
X26240476Y3815181D02*
X26478572Y4815181D01*
X26811905Y4719943D02*
X26859524Y4767562D01*
X26859524Y4767562D02*
X26954762Y4815181D01*
X26954762Y4815181D02*
X27192857Y4815181D01*
X27192857Y4815181D02*
X27288095Y4767562D01*
X27288095Y4767562D02*
X27335714Y4719943D01*
X27335714Y4719943D02*
X27383333Y4624705D01*
X27383333Y4624705D02*
X27383333Y4529467D01*
X27383333Y4529467D02*
X27335714Y4386610D01*
X27335714Y4386610D02*
X26764286Y3815181D01*
X26764286Y3815181D02*
X27383333Y3815181D01*
X-12216667Y16515181D02*
X-12550000Y16991372D01*
X-12788095Y16515181D02*
X-12788095Y17515181D01*
X-12788095Y17515181D02*
X-12407143Y17515181D01*
X-12407143Y17515181D02*
X-12311905Y17467562D01*
X-12311905Y17467562D02*
X-12264286Y17419943D01*
X-12264286Y17419943D02*
X-12216667Y17324705D01*
X-12216667Y17324705D02*
X-12216667Y17181848D01*
X-12216667Y17181848D02*
X-12264286Y17086610D01*
X-12264286Y17086610D02*
X-12311905Y17038991D01*
X-12311905Y17038991D02*
X-12407143Y16991372D01*
X-12407143Y16991372D02*
X-12788095Y16991372D01*
X-11311905Y17515181D02*
X-11788095Y17515181D01*
X-11788095Y17515181D02*
X-11835714Y17038991D01*
X-11835714Y17038991D02*
X-11788095Y17086610D01*
X-11788095Y17086610D02*
X-11692857Y17134229D01*
X-11692857Y17134229D02*
X-11454762Y17134229D01*
X-11454762Y17134229D02*
X-11359524Y17086610D01*
X-11359524Y17086610D02*
X-11311905Y17038991D01*
X-11311905Y17038991D02*
X-11264286Y16943753D01*
X-11264286Y16943753D02*
X-11264286Y16705658D01*
X-11264286Y16705658D02*
X-11311905Y16610420D01*
X-11311905Y16610420D02*
X-11359524Y16562800D01*
X-11359524Y16562800D02*
X-11454762Y16515181D01*
X-11454762Y16515181D02*
X-11692857Y16515181D01*
X-11692857Y16515181D02*
X-11788095Y16562800D01*
X-11788095Y16562800D02*
X-11835714Y16610420D01*
X-12216667Y21595181D02*
X-12550000Y22071372D01*
X-12788095Y21595181D02*
X-12788095Y22595181D01*
X-12788095Y22595181D02*
X-12407143Y22595181D01*
X-12407143Y22595181D02*
X-12311905Y22547562D01*
X-12311905Y22547562D02*
X-12264286Y22499943D01*
X-12264286Y22499943D02*
X-12216667Y22404705D01*
X-12216667Y22404705D02*
X-12216667Y22261848D01*
X-12216667Y22261848D02*
X-12264286Y22166610D01*
X-12264286Y22166610D02*
X-12311905Y22118991D01*
X-12311905Y22118991D02*
X-12407143Y22071372D01*
X-12407143Y22071372D02*
X-12788095Y22071372D01*
X-11883333Y22595181D02*
X-11216667Y22595181D01*
X-11216667Y22595181D02*
X-11645238Y21595181D01*
X-3789405Y35930181D02*
X-3789405Y35120658D01*
X-3789405Y35120658D02*
X-3741786Y35025420D01*
X-3741786Y35025420D02*
X-3694167Y34977800D01*
X-3694167Y34977800D02*
X-3598929Y34930181D01*
X-3598929Y34930181D02*
X-3408453Y34930181D01*
X-3408453Y34930181D02*
X-3313215Y34977800D01*
X-3313215Y34977800D02*
X-3265596Y35025420D01*
X-3265596Y35025420D02*
X-3217977Y35120658D01*
X-3217977Y35120658D02*
X-3217977Y35930181D01*
X-2217977Y34930181D02*
X-2789405Y34930181D01*
X-2503691Y34930181D02*
X-2503691Y35930181D01*
X-2503691Y35930181D02*
X-2598929Y35787324D01*
X-2598929Y35787324D02*
X-2694167Y35692086D01*
X-2694167Y35692086D02*
X-2789405Y35644467D01*
X31675180Y38893334D02*
X30960895Y38893334D01*
X30960895Y38893334D02*
X30818038Y38940953D01*
X30818038Y38940953D02*
X30722800Y39036191D01*
X30722800Y39036191D02*
X30675180Y39179048D01*
X30675180Y39179048D02*
X30675180Y39274286D01*
X30675180Y37893334D02*
X30675180Y38464762D01*
X30675180Y38179048D02*
X31675180Y38179048D01*
X31675180Y38179048D02*
X31532323Y38274286D01*
X31532323Y38274286D02*
X31437085Y38369524D01*
X31437085Y38369524D02*
X31389466Y38464762D01*
X-8406667Y33025181D02*
X-8740000Y33501372D01*
X-8978095Y33025181D02*
X-8978095Y34025181D01*
X-8978095Y34025181D02*
X-8597143Y34025181D01*
X-8597143Y34025181D02*
X-8501905Y33977562D01*
X-8501905Y33977562D02*
X-8454286Y33929943D01*
X-8454286Y33929943D02*
X-8406667Y33834705D01*
X-8406667Y33834705D02*
X-8406667Y33691848D01*
X-8406667Y33691848D02*
X-8454286Y33596610D01*
X-8454286Y33596610D02*
X-8501905Y33548991D01*
X-8501905Y33548991D02*
X-8597143Y33501372D01*
X-8597143Y33501372D02*
X-8978095Y33501372D01*
X-8025714Y33929943D02*
X-7978095Y33977562D01*
X-7978095Y33977562D02*
X-7882857Y34025181D01*
X-7882857Y34025181D02*
X-7644762Y34025181D01*
X-7644762Y34025181D02*
X-7549524Y33977562D01*
X-7549524Y33977562D02*
X-7501905Y33929943D01*
X-7501905Y33929943D02*
X-7454286Y33834705D01*
X-7454286Y33834705D02*
X-7454286Y33739467D01*
X-7454286Y33739467D02*
X-7501905Y33596610D01*
X-7501905Y33596610D02*
X-8073333Y33025181D01*
X-8073333Y33025181D02*
X-7454286Y33025181D01*
X1392744Y43779820D02*
X1202268Y43779820D01*
X1202268Y43779820D02*
X1107030Y43827439D01*
X1107030Y43827439D02*
X1011792Y43922677D01*
X1011792Y43922677D02*
X964173Y44113153D01*
X964173Y44113153D02*
X964173Y44446486D01*
X964173Y44446486D02*
X1011792Y44636962D01*
X1011792Y44636962D02*
X1107030Y44732200D01*
X1107030Y44732200D02*
X1202268Y44779820D01*
X1202268Y44779820D02*
X1392744Y44779820D01*
X1392744Y44779820D02*
X1487982Y44732200D01*
X1487982Y44732200D02*
X1583220Y44636962D01*
X1583220Y44636962D02*
X1630839Y44446486D01*
X1630839Y44446486D02*
X1630839Y44113153D01*
X1630839Y44113153D02*
X1583220Y43922677D01*
X1583220Y43922677D02*
X1487982Y43827439D01*
X1487982Y43827439D02*
X1392744Y43779820D01*
X535601Y43779820D02*
X535601Y44589343D01*
X535601Y44589343D02*
X487982Y44684581D01*
X487982Y44684581D02*
X440363Y44732200D01*
X440363Y44732200D02*
X345125Y44779820D01*
X345125Y44779820D02*
X154649Y44779820D01*
X154649Y44779820D02*
X59411Y44732200D01*
X59411Y44732200D02*
X11792Y44684581D01*
X11792Y44684581D02*
X-35827Y44589343D01*
X-35827Y44589343D02*
X-35827Y43779820D01*
X-369161Y43779820D02*
X-940589Y43779820D01*
X-654875Y44779820D02*
X-654875Y43779820D01*
X-1273923Y44398867D02*
X-2035827Y44398867D01*
X-1654875Y44779820D02*
X-1654875Y44017915D01*
X-8576780Y53669820D02*
X-8576780Y52669820D01*
X-9052970Y53669820D02*
X-9052970Y52669820D01*
X-9052970Y52669820D02*
X-9624398Y53669820D01*
X-9624398Y53669820D02*
X-9624398Y52669820D01*
X-10100589Y53288867D02*
X-10862493Y53288867D01*
X-8576780Y44779820D02*
X-8576780Y43779820D01*
X-9052970Y44779820D02*
X-9052970Y43779820D01*
X-9052970Y43779820D02*
X-9624398Y44779820D01*
X-9624398Y44779820D02*
X-9624398Y43779820D01*
X-10100589Y44398867D02*
X-10862493Y44398867D01*
X-10481541Y44779820D02*
X-10481541Y44017915D01*
X1392744Y52669820D02*
X1202268Y52669820D01*
X1202268Y52669820D02*
X1107030Y52717439D01*
X1107030Y52717439D02*
X1011792Y52812677D01*
X1011792Y52812677D02*
X964173Y53003153D01*
X964173Y53003153D02*
X964173Y53336486D01*
X964173Y53336486D02*
X1011792Y53526962D01*
X1011792Y53526962D02*
X1107030Y53622200D01*
X1107030Y53622200D02*
X1202268Y53669820D01*
X1202268Y53669820D02*
X1392744Y53669820D01*
X1392744Y53669820D02*
X1487982Y53622200D01*
X1487982Y53622200D02*
X1583220Y53526962D01*
X1583220Y53526962D02*
X1630839Y53336486D01*
X1630839Y53336486D02*
X1630839Y53003153D01*
X1630839Y53003153D02*
X1583220Y52812677D01*
X1583220Y52812677D02*
X1487982Y52717439D01*
X1487982Y52717439D02*
X1392744Y52669820D01*
X535601Y52669820D02*
X535601Y53479343D01*
X535601Y53479343D02*
X487982Y53574581D01*
X487982Y53574581D02*
X440363Y53622200D01*
X440363Y53622200D02*
X345125Y53669820D01*
X345125Y53669820D02*
X154649Y53669820D01*
X154649Y53669820D02*
X59411Y53622200D01*
X59411Y53622200D02*
X11792Y53574581D01*
X11792Y53574581D02*
X-35827Y53479343D01*
X-35827Y53479343D02*
X-35827Y52669820D01*
X-369161Y52669820D02*
X-940589Y52669820D01*
X-654875Y53669820D02*
X-654875Y52669820D01*
X-1273923Y53288867D02*
X-2035827Y53288867D01*
X24041905Y15880181D02*
X24041905Y16880181D01*
X24041905Y16880181D02*
X24280000Y16880181D01*
X24280000Y16880181D02*
X24422857Y16832562D01*
X24422857Y16832562D02*
X24518095Y16737324D01*
X24518095Y16737324D02*
X24565714Y16642086D01*
X24565714Y16642086D02*
X24613333Y16451610D01*
X24613333Y16451610D02*
X24613333Y16308753D01*
X24613333Y16308753D02*
X24565714Y16118277D01*
X24565714Y16118277D02*
X24518095Y16023039D01*
X24518095Y16023039D02*
X24422857Y15927800D01*
X24422857Y15927800D02*
X24280000Y15880181D01*
X24280000Y15880181D02*
X24041905Y15880181D01*
X25565714Y15880181D02*
X24994286Y15880181D01*
X25280000Y15880181D02*
X25280000Y16880181D01*
X25280000Y16880181D02*
X25184762Y16737324D01*
X25184762Y16737324D02*
X25089524Y16642086D01*
X25089524Y16642086D02*
X24994286Y16594467D01*
X-12216667Y24135181D02*
X-12550000Y24611372D01*
X-12788095Y24135181D02*
X-12788095Y25135181D01*
X-12788095Y25135181D02*
X-12407143Y25135181D01*
X-12407143Y25135181D02*
X-12311905Y25087562D01*
X-12311905Y25087562D02*
X-12264286Y25039943D01*
X-12264286Y25039943D02*
X-12216667Y24944705D01*
X-12216667Y24944705D02*
X-12216667Y24801848D01*
X-12216667Y24801848D02*
X-12264286Y24706610D01*
X-12264286Y24706610D02*
X-12311905Y24658991D01*
X-12311905Y24658991D02*
X-12407143Y24611372D01*
X-12407143Y24611372D02*
X-12788095Y24611372D01*
X-11264286Y24135181D02*
X-11835714Y24135181D01*
X-11550000Y24135181D02*
X-11550000Y25135181D01*
X-11550000Y25135181D02*
X-11645238Y24992324D01*
X-11645238Y24992324D02*
X-11740476Y24897086D01*
X-11740476Y24897086D02*
X-11835714Y24849467D01*
X30694819Y19343334D02*
X30218628Y19010001D01*
X30694819Y18771906D02*
X29694819Y18771906D01*
X29694819Y18771906D02*
X29694819Y19152858D01*
X29694819Y19152858D02*
X29742438Y19248096D01*
X29742438Y19248096D02*
X29790057Y19295715D01*
X29790057Y19295715D02*
X29885295Y19343334D01*
X29885295Y19343334D02*
X30028152Y19343334D01*
X30028152Y19343334D02*
X30123390Y19295715D01*
X30123390Y19295715D02*
X30171009Y19248096D01*
X30171009Y19248096D02*
X30218628Y19152858D01*
X30218628Y19152858D02*
X30218628Y18771906D01*
X30123390Y19914763D02*
X30075771Y19819525D01*
X30075771Y19819525D02*
X30028152Y19771906D01*
X30028152Y19771906D02*
X29932914Y19724287D01*
X29932914Y19724287D02*
X29885295Y19724287D01*
X29885295Y19724287D02*
X29790057Y19771906D01*
X29790057Y19771906D02*
X29742438Y19819525D01*
X29742438Y19819525D02*
X29694819Y19914763D01*
X29694819Y19914763D02*
X29694819Y20105239D01*
X29694819Y20105239D02*
X29742438Y20200477D01*
X29742438Y20200477D02*
X29790057Y20248096D01*
X29790057Y20248096D02*
X29885295Y20295715D01*
X29885295Y20295715D02*
X29932914Y20295715D01*
X29932914Y20295715D02*
X30028152Y20248096D01*
X30028152Y20248096D02*
X30075771Y20200477D01*
X30075771Y20200477D02*
X30123390Y20105239D01*
X30123390Y20105239D02*
X30123390Y19914763D01*
X30123390Y19914763D02*
X30171009Y19819525D01*
X30171009Y19819525D02*
X30218628Y19771906D01*
X30218628Y19771906D02*
X30313866Y19724287D01*
X30313866Y19724287D02*
X30504342Y19724287D01*
X30504342Y19724287D02*
X30599580Y19771906D01*
X30599580Y19771906D02*
X30647200Y19819525D01*
X30647200Y19819525D02*
X30694819Y19914763D01*
X30694819Y19914763D02*
X30694819Y20105239D01*
X30694819Y20105239D02*
X30647200Y20200477D01*
X30647200Y20200477D02*
X30599580Y20248096D01*
X30599580Y20248096D02*
X30504342Y20295715D01*
X30504342Y20295715D02*
X30313866Y20295715D01*
X30313866Y20295715D02*
X30218628Y20248096D01*
X30218628Y20248096D02*
X30171009Y20200477D01*
X30171009Y20200477D02*
X30123390Y20105239D01*
X13921667Y43232800D02*
X14064524Y43185181D01*
X14064524Y43185181D02*
X14302619Y43185181D01*
X14302619Y43185181D02*
X14397857Y43232800D01*
X14397857Y43232800D02*
X14445476Y43280420D01*
X14445476Y43280420D02*
X14493095Y43375658D01*
X14493095Y43375658D02*
X14493095Y43470896D01*
X14493095Y43470896D02*
X14445476Y43566134D01*
X14445476Y43566134D02*
X14397857Y43613753D01*
X14397857Y43613753D02*
X14302619Y43661372D01*
X14302619Y43661372D02*
X14112143Y43708991D01*
X14112143Y43708991D02*
X14016905Y43756610D01*
X14016905Y43756610D02*
X13969286Y43804229D01*
X13969286Y43804229D02*
X13921667Y43899467D01*
X13921667Y43899467D02*
X13921667Y43994705D01*
X13921667Y43994705D02*
X13969286Y44089943D01*
X13969286Y44089943D02*
X14016905Y44137562D01*
X14016905Y44137562D02*
X14112143Y44185181D01*
X14112143Y44185181D02*
X14350238Y44185181D01*
X14350238Y44185181D02*
X14493095Y44137562D01*
X14826429Y44185181D02*
X15064524Y43185181D01*
X15064524Y43185181D02*
X15255000Y43899467D01*
X15255000Y43899467D02*
X15445476Y43185181D01*
X15445476Y43185181D02*
X15683572Y44185181D01*
X16588333Y43185181D02*
X16016905Y43185181D01*
X16302619Y43185181D02*
X16302619Y44185181D01*
X16302619Y44185181D02*
X16207381Y44042324D01*
X16207381Y44042324D02*
X16112143Y43947086D01*
X16112143Y43947086D02*
X16016905Y43899467D01*
X-12216667Y19055181D02*
X-12550000Y19531372D01*
X-12788095Y19055181D02*
X-12788095Y20055181D01*
X-12788095Y20055181D02*
X-12407143Y20055181D01*
X-12407143Y20055181D02*
X-12311905Y20007562D01*
X-12311905Y20007562D02*
X-12264286Y19959943D01*
X-12264286Y19959943D02*
X-12216667Y19864705D01*
X-12216667Y19864705D02*
X-12216667Y19721848D01*
X-12216667Y19721848D02*
X-12264286Y19626610D01*
X-12264286Y19626610D02*
X-12311905Y19578991D01*
X-12311905Y19578991D02*
X-12407143Y19531372D01*
X-12407143Y19531372D02*
X-12788095Y19531372D01*
X-11359524Y19721848D02*
X-11359524Y19055181D01*
X-11597619Y20102800D02*
X-11835714Y19388515D01*
X-11835714Y19388515D02*
X-11216667Y19388515D01*
X-8406667Y38105181D02*
X-8740000Y38581372D01*
X-8978095Y38105181D02*
X-8978095Y39105181D01*
X-8978095Y39105181D02*
X-8597143Y39105181D01*
X-8597143Y39105181D02*
X-8501905Y39057562D01*
X-8501905Y39057562D02*
X-8454286Y39009943D01*
X-8454286Y39009943D02*
X-8406667Y38914705D01*
X-8406667Y38914705D02*
X-8406667Y38771848D01*
X-8406667Y38771848D02*
X-8454286Y38676610D01*
X-8454286Y38676610D02*
X-8501905Y38628991D01*
X-8501905Y38628991D02*
X-8597143Y38581372D01*
X-8597143Y38581372D02*
X-8978095Y38581372D01*
X-7549524Y39105181D02*
X-7740000Y39105181D01*
X-7740000Y39105181D02*
X-7835238Y39057562D01*
X-7835238Y39057562D02*
X-7882857Y39009943D01*
X-7882857Y39009943D02*
X-7978095Y38867086D01*
X-7978095Y38867086D02*
X-8025714Y38676610D01*
X-8025714Y38676610D02*
X-8025714Y38295658D01*
X-8025714Y38295658D02*
X-7978095Y38200420D01*
X-7978095Y38200420D02*
X-7930476Y38152800D01*
X-7930476Y38152800D02*
X-7835238Y38105181D01*
X-7835238Y38105181D02*
X-7644762Y38105181D01*
X-7644762Y38105181D02*
X-7549524Y38152800D01*
X-7549524Y38152800D02*
X-7501905Y38200420D01*
X-7501905Y38200420D02*
X-7454286Y38295658D01*
X-7454286Y38295658D02*
X-7454286Y38533753D01*
X-7454286Y38533753D02*
X-7501905Y38628991D01*
X-7501905Y38628991D02*
X-7549524Y38676610D01*
X-7549524Y38676610D02*
X-7644762Y38724229D01*
X-7644762Y38724229D02*
X-7835238Y38724229D01*
X-7835238Y38724229D02*
X-7930476Y38676610D01*
X-7930476Y38676610D02*
X-7978095Y38628991D01*
X-7978095Y38628991D02*
X-8025714Y38533753D01*
X-14044820Y10111905D02*
X-14854343Y10111905D01*
X-14854343Y10111905D02*
X-14949581Y10064286D01*
X-14949581Y10064286D02*
X-14997200Y10016667D01*
X-14997200Y10016667D02*
X-15044820Y9921429D01*
X-15044820Y9921429D02*
X-15044820Y9730953D01*
X-15044820Y9730953D02*
X-14997200Y9635715D01*
X-14997200Y9635715D02*
X-14949581Y9588096D01*
X-14949581Y9588096D02*
X-14854343Y9540477D01*
X-14854343Y9540477D02*
X-14044820Y9540477D01*
X-14044820Y9159524D02*
X-14044820Y8540477D01*
X-14044820Y8540477D02*
X-14425772Y8873810D01*
X-14425772Y8873810D02*
X-14425772Y8730953D01*
X-14425772Y8730953D02*
X-14473391Y8635715D01*
X-14473391Y8635715D02*
X-14521010Y8588096D01*
X-14521010Y8588096D02*
X-14616248Y8540477D01*
X-14616248Y8540477D02*
X-14854343Y8540477D01*
X-14854343Y8540477D02*
X-14949581Y8588096D01*
X-14949581Y8588096D02*
X-14997200Y8635715D01*
X-14997200Y8635715D02*
X-15044820Y8730953D01*
X-15044820Y8730953D02*
X-15044820Y9016667D01*
X-15044820Y9016667D02*
X-14997200Y9111905D01*
X-14997200Y9111905D02*
X-14949581Y9159524D01*
X-8406667Y35565181D02*
X-8740000Y36041372D01*
X-8978095Y35565181D02*
X-8978095Y36565181D01*
X-8978095Y36565181D02*
X-8597143Y36565181D01*
X-8597143Y36565181D02*
X-8501905Y36517562D01*
X-8501905Y36517562D02*
X-8454286Y36469943D01*
X-8454286Y36469943D02*
X-8406667Y36374705D01*
X-8406667Y36374705D02*
X-8406667Y36231848D01*
X-8406667Y36231848D02*
X-8454286Y36136610D01*
X-8454286Y36136610D02*
X-8501905Y36088991D01*
X-8501905Y36088991D02*
X-8597143Y36041372D01*
X-8597143Y36041372D02*
X-8978095Y36041372D01*
X-8073333Y36565181D02*
X-7454286Y36565181D01*
X-7454286Y36565181D02*
X-7787619Y36184229D01*
X-7787619Y36184229D02*
X-7644762Y36184229D01*
X-7644762Y36184229D02*
X-7549524Y36136610D01*
X-7549524Y36136610D02*
X-7501905Y36088991D01*
X-7501905Y36088991D02*
X-7454286Y35993753D01*
X-7454286Y35993753D02*
X-7454286Y35755658D01*
X-7454286Y35755658D02*
X-7501905Y35660420D01*
X-7501905Y35660420D02*
X-7549524Y35612800D01*
X-7549524Y35612800D02*
X-7644762Y35565181D01*
X-7644762Y35565181D02*
X-7930476Y35565181D01*
X-7930476Y35565181D02*
X-8025714Y35612800D01*
X-8025714Y35612800D02*
X-8073333Y35660420D01*
X30694819Y24423334D02*
X30218628Y24090001D01*
X30694819Y23851906D02*
X29694819Y23851906D01*
X29694819Y23851906D02*
X29694819Y24232858D01*
X29694819Y24232858D02*
X29742438Y24328096D01*
X29742438Y24328096D02*
X29790057Y24375715D01*
X29790057Y24375715D02*
X29885295Y24423334D01*
X29885295Y24423334D02*
X30028152Y24423334D01*
X30028152Y24423334D02*
X30123390Y24375715D01*
X30123390Y24375715D02*
X30171009Y24328096D01*
X30171009Y24328096D02*
X30218628Y24232858D01*
X30218628Y24232858D02*
X30218628Y23851906D01*
X30694819Y24899525D02*
X30694819Y25090001D01*
X30694819Y25090001D02*
X30647200Y25185239D01*
X30647200Y25185239D02*
X30599580Y25232858D01*
X30599580Y25232858D02*
X30456723Y25328096D01*
X30456723Y25328096D02*
X30266247Y25375715D01*
X30266247Y25375715D02*
X29885295Y25375715D01*
X29885295Y25375715D02*
X29790057Y25328096D01*
X29790057Y25328096D02*
X29742438Y25280477D01*
X29742438Y25280477D02*
X29694819Y25185239D01*
X29694819Y25185239D02*
X29694819Y24994763D01*
X29694819Y24994763D02*
X29742438Y24899525D01*
X29742438Y24899525D02*
X29790057Y24851906D01*
X29790057Y24851906D02*
X29885295Y24804287D01*
X29885295Y24804287D02*
X30123390Y24804287D01*
X30123390Y24804287D02*
X30218628Y24851906D01*
X30218628Y24851906D02*
X30266247Y24899525D01*
X30266247Y24899525D02*
X30313866Y24994763D01*
X30313866Y24994763D02*
X30313866Y25185239D01*
X30313866Y25185239D02*
X30266247Y25280477D01*
X30266247Y25280477D02*
X30218628Y25328096D01*
X30218628Y25328096D02*
X30123390Y25375715D01*
D11*
%TO.C,D2*%
X23220000Y25826000D02*
X23220000Y25670000D01*
X23220000Y23510000D02*
X23220000Y23354000D01*
X26452334Y25668608D02*
G75*
G03*
X23220001Y25825515I-1672334J-1078608D01*
G01*
X25821129Y25669836D02*
G75*
G03*
X23739040Y25669999I-1041129J-1079836D01*
G01*
X23739040Y23510001D02*
G75*
G03*
X25821129Y23510164I1040960J1079999D01*
G01*
X23220001Y23354485D02*
G75*
G03*
X26452334Y23511392I1559999J1235515D01*
G01*
%TO.C,SW2*%
X25300000Y7120000D02*
X26800000Y7120000D01*
X29300000Y8370000D02*
X29300000Y12870000D01*
X22800000Y12870000D02*
X22800000Y8370000D01*
X26800000Y14120000D02*
X25300000Y14120000D01*
%TO.C,R5*%
X-16087064Y17705000D02*
X-15632936Y17705000D01*
X-16087064Y16235000D02*
X-15632936Y16235000D01*
%TO.C,R7*%
X-16087064Y22785000D02*
X-15632936Y22785000D01*
X-16087064Y21315000D02*
X-15632936Y21315000D01*
%TO.C,U1*%
X-3027500Y39800000D02*
X-4827500Y39800000D01*
X-3027500Y39800000D02*
X-2227500Y39800000D01*
X-3027500Y36680000D02*
X-3827500Y36680000D01*
X-3027500Y36680000D02*
X-2227500Y36680000D01*
%TO.C,J1*%
X37480000Y6810000D02*
X37480000Y55070000D01*
X32400000Y6810000D02*
X37480000Y6810000D01*
X32400000Y6810000D02*
X32400000Y55070000D01*
X32400000Y55070000D02*
X37480000Y55070000D01*
%TO.C,R2*%
X-12277064Y34215000D02*
X-11822936Y34215000D01*
X-12277064Y32745000D02*
X-11822936Y32745000D01*
%TO.C,U2*%
X-13320000Y42370000D02*
X-13320000Y55070000D01*
X4460000Y42370000D02*
X-13320000Y42370000D01*
X-13320000Y55070000D02*
X4460000Y55070000D01*
X4460000Y55070000D02*
X4460000Y42370000D01*
%TO.C,D1*%
X23220000Y20746000D02*
X23220000Y20590000D01*
X23220000Y18430000D02*
X23220000Y18274000D01*
X26452334Y20588608D02*
G75*
G03*
X23220001Y20745515I-1672334J-1078608D01*
G01*
X25821129Y20589836D02*
G75*
G03*
X23739040Y20589999I-1041129J-1079836D01*
G01*
X23739040Y18430001D02*
G75*
G03*
X25821129Y18430164I1040960J1079999D01*
G01*
X23220001Y18274485D02*
G75*
G03*
X26452334Y18431392I1559999J1235515D01*
G01*
%TO.C,R1*%
X-16087064Y25325000D02*
X-15632936Y25325000D01*
X-16087064Y23855000D02*
X-15632936Y23855000D01*
%TO.C,R8*%
X29325000Y19737064D02*
X29325000Y19282936D01*
X27855000Y19737064D02*
X27855000Y19282936D01*
%TO.C,SW1*%
X5610000Y44800000D02*
X6993000Y44800000D01*
X5610000Y44800000D02*
X5610000Y46184000D01*
X5850000Y45040000D02*
X23390000Y45040000D01*
X5850000Y45040000D02*
X5850000Y54940000D01*
X23390000Y45040000D02*
X23390000Y54940000D01*
X7635000Y47960000D02*
X8905000Y47960000D01*
X7755000Y47960000D02*
X7755000Y49313333D01*
X7875000Y47960000D02*
X7875000Y49313333D01*
X7995000Y47960000D02*
X7995000Y49313333D01*
X8115000Y47960000D02*
X8115000Y49313333D01*
X8235000Y47960000D02*
X8235000Y49313333D01*
X8355000Y47960000D02*
X8355000Y49313333D01*
X8475000Y47960000D02*
X8475000Y49313333D01*
X8595000Y47960000D02*
X8595000Y49313333D01*
X8715000Y47960000D02*
X8715000Y49313333D01*
X8835000Y47960000D02*
X8835000Y49313333D01*
X8905000Y47960000D02*
X8905000Y52020000D01*
X10175000Y47960000D02*
X11445000Y47960000D01*
X10295000Y47960000D02*
X10295000Y49313333D01*
X10415000Y47960000D02*
X10415000Y49313333D01*
X10535000Y47960000D02*
X10535000Y49313333D01*
X10655000Y47960000D02*
X10655000Y49313333D01*
X10775000Y47960000D02*
X10775000Y49313333D01*
X10895000Y47960000D02*
X10895000Y49313333D01*
X11015000Y47960000D02*
X11015000Y49313333D01*
X11135000Y47960000D02*
X11135000Y49313333D01*
X11255000Y47960000D02*
X11255000Y49313333D01*
X11375000Y47960000D02*
X11375000Y49313333D01*
X11445000Y47960000D02*
X11445000Y52020000D01*
X12715000Y47960000D02*
X13985000Y47960000D01*
X12835000Y47960000D02*
X12835000Y49313333D01*
X12955000Y47960000D02*
X12955000Y49313333D01*
X13075000Y47960000D02*
X13075000Y49313333D01*
X13195000Y47960000D02*
X13195000Y49313333D01*
X13315000Y47960000D02*
X13315000Y49313333D01*
X13435000Y47960000D02*
X13435000Y49313333D01*
X13555000Y47960000D02*
X13555000Y49313333D01*
X13675000Y47960000D02*
X13675000Y49313333D01*
X13795000Y47960000D02*
X13795000Y49313333D01*
X13915000Y47960000D02*
X13915000Y49313333D01*
X13985000Y47960000D02*
X13985000Y52020000D01*
X15255000Y47960000D02*
X16525000Y47960000D01*
X15375000Y47960000D02*
X15375000Y49313333D01*
X15495000Y47960000D02*
X15495000Y49313333D01*
X15615000Y47960000D02*
X15615000Y49313333D01*
X15735000Y47960000D02*
X15735000Y49313333D01*
X15855000Y47960000D02*
X15855000Y49313333D01*
X15975000Y47960000D02*
X15975000Y49313333D01*
X16095000Y47960000D02*
X16095000Y49313333D01*
X16215000Y47960000D02*
X16215000Y49313333D01*
X16335000Y47960000D02*
X16335000Y49313333D01*
X16455000Y47960000D02*
X16455000Y49313333D01*
X16525000Y47960000D02*
X16525000Y52020000D01*
X17795000Y47960000D02*
X19065000Y47960000D01*
X17915000Y47960000D02*
X17915000Y49313333D01*
X18035000Y47960000D02*
X18035000Y49313333D01*
X18155000Y47960000D02*
X18155000Y49313333D01*
X18275000Y47960000D02*
X18275000Y49313333D01*
X18395000Y47960000D02*
X18395000Y49313333D01*
X18515000Y47960000D02*
X18515000Y49313333D01*
X18635000Y47960000D02*
X18635000Y49313333D01*
X18755000Y47960000D02*
X18755000Y49313333D01*
X18875000Y47960000D02*
X18875000Y49313333D01*
X18995000Y47960000D02*
X18995000Y49313333D01*
X19065000Y47960000D02*
X19065000Y52020000D01*
X20335000Y47960000D02*
X21605000Y47960000D01*
X20455000Y47960000D02*
X20455000Y49313333D01*
X20575000Y47960000D02*
X20575000Y49313333D01*
X20695000Y47960000D02*
X20695000Y49313333D01*
X20815000Y47960000D02*
X20815000Y49313333D01*
X20935000Y47960000D02*
X20935000Y49313333D01*
X21055000Y47960000D02*
X21055000Y49313333D01*
X21175000Y47960000D02*
X21175000Y49313333D01*
X21295000Y47960000D02*
X21295000Y49313333D01*
X21415000Y47960000D02*
X21415000Y49313333D01*
X21535000Y47960000D02*
X21535000Y49313333D01*
X21605000Y47960000D02*
X21605000Y52020000D01*
X7635000Y49313333D02*
X8905000Y49313333D01*
X10175000Y49313333D02*
X11445000Y49313333D01*
X12715000Y49313333D02*
X13985000Y49313333D01*
X15255000Y49313333D02*
X16525000Y49313333D01*
X17795000Y49313333D02*
X19065000Y49313333D01*
X20335000Y49313333D02*
X21605000Y49313333D01*
X7635000Y52020000D02*
X7635000Y47960000D01*
X8905000Y52020000D02*
X7635000Y52020000D01*
X10175000Y52020000D02*
X10175000Y47960000D01*
X11445000Y52020000D02*
X10175000Y52020000D01*
X12715000Y52020000D02*
X12715000Y47960000D01*
X13985000Y52020000D02*
X12715000Y52020000D01*
X15255000Y52020000D02*
X15255000Y47960000D01*
X16525000Y52020000D02*
X15255000Y52020000D01*
X17795000Y52020000D02*
X17795000Y47960000D01*
X19065000Y52020000D02*
X17795000Y52020000D01*
X20335000Y52020000D02*
X20335000Y47960000D01*
X21605000Y52020000D02*
X20335000Y52020000D01*
X5850000Y54940000D02*
X23390000Y54940000D01*
%TO.C,R4*%
X-16087064Y20245000D02*
X-15632936Y20245000D01*
X-16087064Y18775000D02*
X-15632936Y18775000D01*
%TO.C,R6*%
X-12277064Y39295000D02*
X-11822936Y39295000D01*
X-12277064Y37825000D02*
X-11822936Y37825000D01*
%TO.C,R3*%
X-12277064Y36755000D02*
X-11822936Y36755000D01*
X-12277064Y35285000D02*
X-11822936Y35285000D01*
%TO.C,R9*%
X29325000Y24817064D02*
X29325000Y24362936D01*
X27855000Y24817064D02*
X27855000Y24362936D01*
%TD*%
%LPC*%
D12*
%TO.C,REF\u002A\u002A*%
X28590000Y52530000D03*
%TD*%
D13*
%TO.C,D2*%
X23510000Y24590000D03*
D14*
X26050000Y24590000D03*
%TD*%
D15*
%TO.C,SW2*%
X23800000Y7370000D03*
X23800000Y13870000D03*
X28300000Y7370000D03*
X28300000Y13870000D03*
%TD*%
D16*
%TO.C,R5*%
X-16860000Y16970000D03*
X-14860000Y16970000D03*
%TD*%
%TO.C,R7*%
X-16860000Y22050000D03*
X-14860000Y22050000D03*
%TD*%
D17*
%TO.C,U1*%
X-4165000Y39190000D03*
X-4165000Y38240000D03*
X-4165000Y37290000D03*
X-1890000Y37290000D03*
X-1890000Y39190000D03*
%TD*%
D12*
%TO.C,REF\u002A\u002A*%
X-15860000Y52530000D03*
%TD*%
D18*
%TO.C,J1*%
X36210000Y8080000D03*
D19*
X33670000Y8080000D03*
X36210000Y10620000D03*
X33670000Y10620000D03*
X36210000Y13160000D03*
X33670000Y13160000D03*
X36210000Y15700000D03*
X33670000Y15700000D03*
X36210000Y18240000D03*
X33670000Y18240000D03*
X36210000Y20780000D03*
X33670000Y20780000D03*
X36210000Y23320000D03*
X33670000Y23320000D03*
X36210000Y25860000D03*
X33670000Y25860000D03*
X36210000Y28400000D03*
X33670000Y28400000D03*
X36210000Y30940000D03*
X33670000Y30940000D03*
X36210000Y33480000D03*
X33670000Y33480000D03*
X36210000Y36020000D03*
X33670000Y36020000D03*
X36210000Y38560000D03*
X33670000Y38560000D03*
X36210000Y41100000D03*
X33670000Y41100000D03*
X36210000Y43640000D03*
X33670000Y43640000D03*
X36210000Y46180000D03*
X33670000Y46180000D03*
X36210000Y48720000D03*
X33670000Y48720000D03*
X36210000Y51260000D03*
X33670000Y51260000D03*
X36210000Y53800000D03*
X33670000Y53800000D03*
%TD*%
D16*
%TO.C,R2*%
X-13050000Y33480000D03*
X-11050000Y33480000D03*
%TD*%
D19*
%TO.C,U2*%
X-12050000Y43640000D03*
X-12050000Y53800000D03*
X3190000Y43640000D03*
X3190000Y53800000D03*
%TD*%
D13*
%TO.C,D1*%
X23510000Y19510000D03*
D14*
X26050000Y19510000D03*
%TD*%
D16*
%TO.C,R1*%
X-16860000Y24590000D03*
X-14860000Y24590000D03*
%TD*%
D20*
%TO.C,R8*%
X28590000Y20510000D03*
X28590000Y18510000D03*
%TD*%
D21*
%TO.C,SW1*%
X8270000Y46180000D03*
D22*
X10810000Y46180000D03*
X13350000Y46180000D03*
X15890000Y46180000D03*
X18430000Y46180000D03*
X20970000Y46180000D03*
X20970000Y53800000D03*
X18430000Y53800000D03*
X15890000Y53800000D03*
X13350000Y53800000D03*
X10810000Y53800000D03*
X8270000Y53800000D03*
%TD*%
D16*
%TO.C,R4*%
X-16860000Y19510000D03*
X-14860000Y19510000D03*
%TD*%
%TO.C,R6*%
X-13050000Y38560000D03*
X-11050000Y38560000D03*
%TD*%
D23*
%TO.C,U3*%
X-12050000Y10620000D03*
X-12050000Y8080000D03*
D24*
X-12050000Y5540000D03*
D23*
X-12050000Y3000000D03*
%TD*%
D12*
%TO.C,REF\u002A\u002A*%
X-15860000Y4270000D03*
%TD*%
D16*
%TO.C,R3*%
X-13050000Y36020000D03*
X-11050000Y36020000D03*
%TD*%
D20*
%TO.C,R9*%
X28590000Y25590000D03*
X28590000Y23590000D03*
%TD*%
D12*
%TO.C,REF\u002A\u002A*%
X34940000Y4270000D03*
%TD*%
%LPD*%
M02*
