%TF.GenerationSoftware,KiCad,Pcbnew,7.0.10*%
%TF.CreationDate,2024-05-09T12:15:42+09:00*%
%TF.ProjectId,yashica8,79617368-6963-4613-982e-6b696361645f,rev?*%
%TF.SameCoordinates,Original*%
%TF.FileFunction,Copper,L1,Top*%
%TF.FilePolarity,Positive*%
%FSLAX46Y46*%
G04 Gerber Fmt 4.6, Leading zero omitted, Abs format (unit mm)*
G04 Created by KiCad (PCBNEW 7.0.10) date 2024-05-09 12:15:42*
%MOMM*%
%LPD*%
G01*
G04 APERTURE LIST*
G04 Aperture macros list*
%AMRoundRect*
0 Rectangle with rounded corners*
0 $1 Rounding radius*
0 $2 $3 $4 $5 $6 $7 $8 $9 X,Y pos of 4 corners*
0 Add a 4 corners polygon primitive as box body*
4,1,4,$2,$3,$4,$5,$6,$7,$8,$9,$2,$3,0*
0 Add four circle primitives for the rounded corners*
1,1,$1+$1,$2,$3*
1,1,$1+$1,$4,$5*
1,1,$1+$1,$6,$7*
1,1,$1+$1,$8,$9*
0 Add four rect primitives between the rounded corners*
20,1,$1+$1,$2,$3,$4,$5,0*
20,1,$1+$1,$4,$5,$6,$7,0*
20,1,$1+$1,$6,$7,$8,$9,0*
20,1,$1+$1,$8,$9,$2,$3,0*%
G04 Aperture macros list end*
%TA.AperFunction,ComponentPad*%
%ADD10R,1.800000X1.800000*%
%TD*%
%TA.AperFunction,ComponentPad*%
%ADD11C,1.800000*%
%TD*%
%TA.AperFunction,ComponentPad*%
%ADD12C,2.000000*%
%TD*%
%TA.AperFunction,SMDPad,CuDef*%
%ADD13RoundRect,0.250000X-0.350000X-0.450000X0.350000X-0.450000X0.350000X0.450000X-0.350000X0.450000X0*%
%TD*%
%TA.AperFunction,SMDPad,CuDef*%
%ADD14RoundRect,0.150000X-0.512500X-0.150000X0.512500X-0.150000X0.512500X0.150000X-0.512500X0.150000X0*%
%TD*%
%TA.AperFunction,ComponentPad*%
%ADD15R,1.524000X1.524000*%
%TD*%
%TA.AperFunction,ComponentPad*%
%ADD16C,1.524000*%
%TD*%
%TA.AperFunction,SMDPad,CuDef*%
%ADD17RoundRect,0.250000X-0.450000X0.350000X-0.450000X-0.350000X0.450000X-0.350000X0.450000X0.350000X0*%
%TD*%
%TA.AperFunction,ComponentPad*%
%ADD18R,1.600000X1.600000*%
%TD*%
%TA.AperFunction,ComponentPad*%
%ADD19O,1.600000X1.600000*%
%TD*%
%TA.AperFunction,SMDPad,CuDef*%
%ADD20RoundRect,0.381000X-0.762000X-0.381000X0.762000X-0.381000X0.762000X0.381000X-0.762000X0.381000X0*%
%TD*%
%TA.AperFunction,SMDPad,CuDef*%
%ADD21RoundRect,0.381000X0.762000X0.381000X-0.762000X0.381000X-0.762000X-0.381000X0.762000X-0.381000X0*%
%TD*%
%TA.AperFunction,ViaPad*%
%ADD22C,0.605000*%
%TD*%
%TA.AperFunction,Conductor*%
%ADD23C,0.200000*%
%TD*%
%TA.AperFunction,Conductor*%
%ADD24C,0.600000*%
%TD*%
%TA.AperFunction,Conductor*%
%ADD25C,0.152400*%
%TD*%
G04 APERTURE END LIST*
D10*
%TO.P,D2,1,K*%
%TO.N,GND*%
X23510000Y24590000D03*
D11*
%TO.P,D2,2,A*%
%TO.N,Net-(D2-A)*%
X26050000Y24590000D03*
%TD*%
D12*
%TO.P,SW2,1,1*%
%TO.N,GND*%
X23800000Y7370000D03*
X23800000Y13870000D03*
%TO.P,SW2,2,2*%
%TO.N,Net-(J1-GPIO14{slash}TXD)*%
X28300000Y7370000D03*
X28300000Y13870000D03*
%TD*%
D13*
%TO.P,R5,1*%
%TO.N,Net-(R4-Pad1)*%
X-16860000Y16970000D03*
%TO.P,R5,2*%
%TO.N,GND*%
X-14860000Y16970000D03*
%TD*%
%TO.P,R7,1*%
%TO.N,+5V*%
X-16860000Y22050000D03*
%TO.P,R7,2*%
%TO.N,Net-(U3-A)*%
X-14860000Y22050000D03*
%TD*%
D14*
%TO.P,U1,1,-*%
%TO.N,Net-(U1--)*%
X-4165000Y39190000D03*
%TO.P,U1,2,V-*%
%TO.N,GND*%
X-4165000Y38240000D03*
%TO.P,U1,3,+*%
%TO.N,Net-(U1-+)*%
X-4165000Y37290000D03*
%TO.P,U1,4*%
%TO.N,Net-(J1-GPIO25)*%
X-1890000Y37290000D03*
%TO.P,U1,5,V+*%
%TO.N,+5V*%
X-1890000Y39190000D03*
%TD*%
D15*
%TO.P,J1,1,3V3*%
%TO.N,unconnected-(J1-3V3-Pad1)*%
X36210000Y8080000D03*
D16*
%TO.P,J1,2,5V*%
%TO.N,+5V*%
X33670000Y8080000D03*
%TO.P,J1,3,SDA/GPIO2*%
%TO.N,unconnected-(J1-SDA{slash}GPIO2-Pad3)*%
X36210000Y10620000D03*
%TO.P,J1,4,5V*%
%TO.N,+5V*%
X33670000Y10620000D03*
%TO.P,J1,5,SCL/GPIO3*%
%TO.N,unconnected-(J1-SCL{slash}GPIO3-Pad5)*%
X36210000Y13160000D03*
%TO.P,J1,6,GND*%
%TO.N,GND*%
X33670000Y13160000D03*
%TO.P,J1,7,GCLK0/GPIO4*%
%TO.N,unconnected-(J1-GCLK0{slash}GPIO4-Pad7)*%
X36210000Y15700000D03*
%TO.P,J1,8,GPIO14/TXD*%
%TO.N,Net-(J1-GPIO14{slash}TXD)*%
X33670000Y15700000D03*
%TO.P,J1,9,GND*%
%TO.N,GND*%
X36210000Y18240000D03*
%TO.P,J1,10,GPIO15/RXD*%
%TO.N,Net-(J1-GPIO15{slash}RXD)*%
X33670000Y18240000D03*
%TO.P,J1,11,GPIO17*%
%TO.N,unconnected-(J1-GPIO17-Pad11)*%
X36210000Y20780000D03*
%TO.P,J1,12,GPIO18/PWM0*%
%TO.N,Net-(J1-GPIO18{slash}PWM0)*%
X33670000Y20780000D03*
%TO.P,J1,13,GPIO27*%
%TO.N,unconnected-(J1-GPIO27-Pad13)*%
X36210000Y23320000D03*
%TO.P,J1,14,GND*%
%TO.N,GND*%
X33670000Y23320000D03*
%TO.P,J1,15,GPIO22*%
%TO.N,unconnected-(J1-GPIO22-Pad15)*%
X36210000Y25860000D03*
%TO.P,J1,16,GPIO23*%
%TO.N,unconnected-(J1-GPIO23-Pad16)*%
X33670000Y25860000D03*
%TO.P,J1,17,3V3*%
%TO.N,unconnected-(J1-3V3-Pad17)*%
X36210000Y28400000D03*
%TO.P,J1,18,GPIO24*%
%TO.N,unconnected-(J1-GPIO24-Pad18)*%
X33670000Y28400000D03*
%TO.P,J1,19,MOSI0/GPIO10*%
%TO.N,unconnected-(J1-MOSI0{slash}GPIO10-Pad19)*%
X36210000Y30940000D03*
%TO.P,J1,20,GND*%
%TO.N,GND*%
X33670000Y30940000D03*
%TO.P,J1,21,MISO0/GPIO9*%
%TO.N,unconnected-(J1-MISO0{slash}GPIO9-Pad21)*%
X36210000Y33480000D03*
%TO.P,J1,22,GPIO25*%
%TO.N,Net-(J1-GPIO25)*%
X33670000Y33480000D03*
%TO.P,J1,23,SCLK0/GPIO11*%
%TO.N,unconnected-(J1-SCLK0{slash}GPIO11-Pad23)*%
X36210000Y36020000D03*
%TO.P,J1,24,~{CE0}/GPIO8*%
%TO.N,Net-(J1-~{CE0}{slash}GPIO8)*%
X33670000Y36020000D03*
%TO.P,J1,25,GND*%
%TO.N,GND*%
X36210000Y38560000D03*
%TO.P,J1,26,~{CE1}/GPIO7*%
%TO.N,Net-(J1-~{CE1}{slash}GPIO7)*%
X33670000Y38560000D03*
%TO.P,J1,27,ID_SD/GPIO0*%
%TO.N,unconnected-(J1-ID_SD{slash}GPIO0-Pad27)*%
X36210000Y41100000D03*
%TO.P,J1,28,ID_SC/GPIO1*%
%TO.N,Net-(J1-ID_SC{slash}GPIO1)*%
X33670000Y41100000D03*
%TO.P,J1,29,GCLK1/GPIO5*%
%TO.N,unconnected-(J1-GCLK1{slash}GPIO5-Pad29)*%
X36210000Y43640000D03*
%TO.P,J1,30,GND*%
%TO.N,GND*%
X33670000Y43640000D03*
%TO.P,J1,31,GCLK2/GPIO6*%
%TO.N,unconnected-(J1-GCLK2{slash}GPIO6-Pad31)*%
X36210000Y46180000D03*
%TO.P,J1,32,PWM0/GPIO12*%
%TO.N,Net-(J1-PWM0{slash}GPIO12)*%
X33670000Y46180000D03*
%TO.P,J1,33,PWM1/GPIO13*%
%TO.N,unconnected-(J1-PWM1{slash}GPIO13-Pad33)*%
X36210000Y48720000D03*
%TO.P,J1,34,GND*%
%TO.N,GND*%
X33670000Y48720000D03*
%TO.P,J1,35,GPIO19/MISO1*%
%TO.N,unconnected-(J1-GPIO19{slash}MISO1-Pad35)*%
X36210000Y51260000D03*
%TO.P,J1,36,GPIO16*%
%TO.N,Net-(J1-GPIO16)*%
X33670000Y51260000D03*
%TO.P,J1,37,GPIO26*%
%TO.N,unconnected-(J1-GPIO26-Pad37)*%
X36210000Y53800000D03*
%TO.P,J1,38,GPIO20/MOSI1*%
%TO.N,Net-(J1-GPIO20{slash}MOSI1)*%
X33670000Y53800000D03*
%TD*%
D13*
%TO.P,R2,1*%
%TO.N,Net-(U1-+)*%
X-13050000Y33480000D03*
%TO.P,R2,2*%
%TO.N,GND*%
X-11050000Y33480000D03*
%TD*%
D16*
%TO.P,U2,1,IN+*%
%TO.N,+9V*%
X-12050000Y43640000D03*
%TO.P,U2,2,IN-*%
%TO.N,GND*%
X-12050000Y53800000D03*
%TO.P,U2,3,OUT+*%
%TO.N,+5V*%
X3190000Y43640000D03*
%TO.P,U2,4,OUT-*%
%TO.N,GND*%
X3190000Y53800000D03*
%TD*%
D10*
%TO.P,D1,1,K*%
%TO.N,GND*%
X23510000Y19510000D03*
D11*
%TO.P,D1,2,A*%
%TO.N,Net-(D1-A)*%
X26050000Y19510000D03*
%TD*%
D13*
%TO.P,R1,1*%
%TO.N,+5V*%
X-16860000Y24590000D03*
%TO.P,R1,2*%
%TO.N,Net-(U1-+)*%
X-14860000Y24590000D03*
%TD*%
D17*
%TO.P,R8,1*%
%TO.N,Net-(J1-GPIO15{slash}RXD)*%
X28590000Y20510000D03*
%TO.P,R8,2*%
%TO.N,Net-(D1-A)*%
X28590000Y18510000D03*
%TD*%
D18*
%TO.P,SW1,1*%
%TO.N,Net-(J1-~{CE0}{slash}GPIO8)*%
X8270000Y46180000D03*
D19*
%TO.P,SW1,2*%
%TO.N,Net-(J1-~{CE1}{slash}GPIO7)*%
X10810000Y46180000D03*
%TO.P,SW1,3*%
%TO.N,Net-(J1-ID_SC{slash}GPIO1)*%
X13350000Y46180000D03*
%TO.P,SW1,4*%
%TO.N,Net-(J1-PWM0{slash}GPIO12)*%
X15890000Y46180000D03*
%TO.P,SW1,5*%
%TO.N,Net-(J1-GPIO16)*%
X18430000Y46180000D03*
%TO.P,SW1,6*%
%TO.N,Net-(J1-GPIO20{slash}MOSI1)*%
X20970000Y46180000D03*
%TO.P,SW1,7*%
%TO.N,GND*%
X20970000Y53800000D03*
%TO.P,SW1,8*%
X18430000Y53800000D03*
%TO.P,SW1,9*%
X15890000Y53800000D03*
%TO.P,SW1,10*%
X13350000Y53800000D03*
%TO.P,SW1,11*%
X10810000Y53800000D03*
%TO.P,SW1,12*%
X8270000Y53800000D03*
%TD*%
D13*
%TO.P,R4,1*%
%TO.N,Net-(R4-Pad1)*%
X-16860000Y19510000D03*
%TO.P,R4,2*%
%TO.N,Net-(U1--)*%
X-14860000Y19510000D03*
%TD*%
%TO.P,R6,1*%
%TO.N,+5V*%
X-13050000Y38560000D03*
%TO.P,R6,2*%
%TO.N,Net-(J1-GPIO25)*%
X-11050000Y38560000D03*
%TD*%
D20*
%TO.P,U3,1,A*%
%TO.N,Net-(U3-A)*%
X-12050000Y10620000D03*
%TO.P,U3,2,K*%
%TO.N,GND*%
X-12050000Y8080000D03*
D21*
%TO.P,U3,3*%
%TO.N,+5V*%
X-12050000Y5540000D03*
D20*
%TO.P,U3,4*%
%TO.N,Net-(R4-Pad1)*%
X-12050000Y3000000D03*
%TD*%
D13*
%TO.P,R3,1*%
%TO.N,Net-(U1-+)*%
X-13050000Y36020000D03*
%TO.P,R3,2*%
%TO.N,Net-(J1-GPIO25)*%
X-11050000Y36020000D03*
%TD*%
D17*
%TO.P,R9,1*%
%TO.N,Net-(J1-GPIO18{slash}PWM0)*%
X28590000Y25590000D03*
%TO.P,R9,2*%
%TO.N,Net-(D2-A)*%
X28590000Y23590000D03*
%TD*%
D22*
%TO.N,GND*%
X4460000Y30940000D03*
X19700000Y37290000D03*
X15890000Y32210000D03*
X-3160000Y41100000D03*
X-3160000Y46180000D03*
X29860000Y44910000D03*
X-15860000Y43640000D03*
X31130000Y32210000D03*
X-3160000Y33480000D03*
X24780000Y53800000D03*
X7000000Y28400000D03*
X-13320000Y23320000D03*
X19700000Y39830000D03*
X-13320000Y18240000D03*
X23510000Y32210000D03*
X-620000Y43640000D03*
X-5700000Y53800000D03*
X14620000Y48720000D03*
X-13320000Y46180000D03*
X-13320000Y15700000D03*
X1920000Y51260000D03*
X19700000Y42370000D03*
X-14590000Y14430000D03*
X4460000Y36020000D03*
X23510000Y37290000D03*
X31130000Y34750000D03*
X4460000Y41100000D03*
X9540000Y36020000D03*
X7000000Y38560000D03*
X27320000Y42370000D03*
X9540000Y48720000D03*
X9540000Y30940000D03*
X19700000Y32210000D03*
X-13320000Y41100000D03*
X-8240000Y51260000D03*
X4460000Y48720000D03*
X-14590000Y11890000D03*
X27320000Y37290000D03*
X-5700000Y43640000D03*
X-8240000Y46180000D03*
X-620000Y30940000D03*
X23510000Y42370000D03*
X-15860000Y48720000D03*
X27320000Y51260000D03*
X12080000Y28400000D03*
X14620000Y36020000D03*
X1920000Y46180000D03*
X-3160000Y28400000D03*
X22240000Y28400000D03*
X-15860000Y38560000D03*
X-5700000Y48720000D03*
X22240000Y51260000D03*
X9540000Y41100000D03*
X31130000Y37290000D03*
X17160000Y51260000D03*
X19700000Y34750000D03*
X-10780000Y48720000D03*
X23510000Y39830000D03*
X7000000Y51260000D03*
X-620000Y48720000D03*
X-14590000Y9350000D03*
X-13320000Y51260000D03*
X27320000Y32210000D03*
X17160000Y28400000D03*
X23510000Y34750000D03*
X7000000Y43640000D03*
X-3160000Y51260000D03*
X27320000Y28400000D03*
X32400000Y47450000D03*
X31130000Y39830000D03*
X-13320000Y28400000D03*
X12080000Y51260000D03*
X31130000Y42370000D03*
X27320000Y39830000D03*
X24780000Y48720000D03*
X-13320000Y13160000D03*
X1920000Y28400000D03*
X-8240000Y41100000D03*
X27320000Y34750000D03*
X12080000Y38560000D03*
X-5700000Y30940000D03*
X19700000Y48720000D03*
X-620000Y53800000D03*
%TO.N,+5V*%
X31130000Y13160000D03*
X5730000Y37290000D03*
%TO.N,Net-(U1-+)*%
X-12050000Y37290000D03*
X-9510000Y37290000D03*
%TO.N,Net-(U1--)*%
X-10780000Y30940000D03*
X-6970000Y38560000D03*
%TO.N,Net-(U3-A)*%
X-13320000Y20780000D03*
X-13320000Y11890000D03*
%TD*%
D23*
%TO.N,GND*%
X-14860000Y17198369D02*
X-14860000Y16970000D01*
D24*
X33670000Y48720000D02*
X32400000Y47450000D01*
X-13320000Y8080000D02*
X-14590000Y9350000D01*
X-12050000Y8080000D02*
X-13320000Y8080000D01*
D23*
X23800000Y19220000D02*
X23510000Y19510000D01*
D25*
%TO.N,Net-(D1-A)*%
X27050000Y18510000D02*
X28590000Y18510000D01*
X26050000Y19510000D02*
X27050000Y18510000D01*
D23*
%TO.N,Net-(D2-A)*%
X27050000Y23590000D02*
X28590000Y23590000D01*
X26050000Y24590000D02*
X27050000Y23590000D01*
%TO.N,+5V*%
X-16007600Y21197600D02*
X-16860000Y22050000D01*
X-16860000Y24590000D02*
X-16860000Y22050000D01*
X-2442400Y39742400D02*
X-1890000Y39190000D01*
X-13050000Y38560000D02*
X-11867600Y39742400D01*
D24*
X10000Y39190000D02*
X3190000Y42370000D01*
X3190000Y43640000D02*
X3190000Y42370000D01*
D23*
X-12050000Y5540000D02*
X-16007600Y9497600D01*
D24*
X10000Y39190000D02*
X3830000Y39190000D01*
X33670000Y10620000D02*
X31130000Y13160000D01*
X33670000Y8080000D02*
X33670000Y10620000D01*
X-1890000Y39190000D02*
X10000Y39190000D01*
D23*
X-16860000Y24590000D02*
X-16860000Y34750000D01*
X-11867600Y39742400D02*
X-2442400Y39742400D01*
X-16860000Y34750000D02*
X-13050000Y38560000D01*
D24*
X3830000Y39190000D02*
X5730000Y37290000D01*
D23*
X-16007600Y9497600D02*
X-16007600Y21197600D01*
%TO.N,Net-(J1-GPIO25)*%
X-11050000Y36020000D02*
X-3160000Y36020000D01*
X-11050000Y36020000D02*
X-11050000Y38560000D01*
X-3160000Y36020000D02*
X-1890000Y37290000D01*
X1920000Y33480000D02*
X33670000Y33480000D01*
X-1890000Y37290000D02*
X1920000Y33480000D01*
%TO.N,Net-(J1-~{CE0}{slash}GPIO8)*%
X8270000Y46180000D02*
X18430000Y36020000D01*
X33670000Y36020000D02*
X18430000Y36020000D01*
%TO.N,Net-(J1-~{CE1}{slash}GPIO7)*%
X10810000Y46180000D02*
X18430000Y38560000D01*
X33670000Y38560000D02*
X18430000Y38560000D01*
%TO.N,Net-(J1-ID_SC{slash}GPIO1)*%
X13350000Y46180000D02*
X18430000Y41100000D01*
X33670000Y41100000D02*
X18430000Y41100000D01*
%TO.N,Net-(J1-PWM0{slash}GPIO12)*%
X30995200Y43505200D02*
X33670000Y46180000D01*
X15890000Y46180000D02*
X18564800Y43505200D01*
X18564800Y43505200D02*
X30995200Y43505200D01*
%TO.N,Net-(J1-GPIO16)*%
X27320000Y44910000D02*
X33670000Y51260000D01*
X19700000Y44910000D02*
X27320000Y44910000D01*
X18430000Y46180000D02*
X19700000Y44910000D01*
%TO.N,Net-(J1-GPIO20{slash}MOSI1)*%
X26050000Y46180000D02*
X20970000Y46180000D01*
X33670000Y53800000D02*
X26050000Y46180000D01*
%TO.N,Net-(U1-+)*%
X-13050000Y36020000D02*
X-13050000Y36290000D01*
X-4165000Y37290000D02*
X-5700000Y37290000D01*
X-14860000Y31670000D02*
X-13050000Y33480000D01*
X-13050000Y36290000D02*
X-12050000Y37290000D01*
X-14860000Y24590000D02*
X-14860000Y31670000D01*
X-5700000Y37290000D02*
X-9510000Y37290000D01*
X-13050000Y36020000D02*
X-13050000Y33480000D01*
%TO.N,Net-(R4-Pad1)*%
X-16860000Y7810000D02*
X-12050000Y3000000D01*
X-16860000Y16970000D02*
X-16860000Y19510000D01*
X-16860000Y16970000D02*
X-16860000Y7810000D01*
%TO.N,Net-(U1--)*%
X-12402400Y20780000D02*
X-12402400Y29317600D01*
X-14860000Y19510000D02*
X-13672400Y19510000D01*
X-12402400Y29317600D02*
X-10780000Y30940000D01*
X-6970000Y38560000D02*
X-6340000Y39190000D01*
X-13672400Y19510000D02*
X-12402400Y20780000D01*
X-6340000Y39190000D02*
X-4165000Y39190000D01*
%TO.N,Net-(U3-A)*%
X-14860000Y22050000D02*
X-14590000Y22050000D01*
X-12050000Y10620000D02*
X-13320000Y11890000D01*
X-14590000Y22050000D02*
X-13320000Y20780000D01*
%TO.N,Net-(J1-GPIO14{slash}TXD)*%
X28300000Y13870000D02*
X28300000Y7370000D01*
X28300000Y13870000D02*
X30130000Y15700000D01*
X30130000Y15700000D02*
X33670000Y15700000D01*
%TO.N,Net-(J1-GPIO15{slash}RXD)*%
X31400000Y20510000D02*
X33670000Y18240000D01*
X28590000Y20510000D02*
X31400000Y20510000D01*
%TO.N,Net-(J1-GPIO18{slash}PWM0)*%
X28590000Y25590000D02*
X28860000Y25590000D01*
X28860000Y25590000D02*
X33670000Y20780000D01*
%TD*%
%TA.AperFunction,Conductor*%
%TO.N,GND*%
G36*
X31229073Y20039815D02*
G01*
X31249715Y20023181D01*
X31920396Y19352500D01*
X32576899Y18695998D01*
X32610384Y18634675D01*
X32608485Y18574384D01*
X32571757Y18445295D01*
X32552734Y18240000D01*
X32571757Y18034706D01*
X32628180Y17836395D01*
X32720081Y17651835D01*
X32844331Y17487301D01*
X32996696Y17348403D01*
X32996698Y17348401D01*
X33096961Y17286321D01*
X33171992Y17239864D01*
X33364246Y17165385D01*
X33566912Y17127500D01*
X33566914Y17127500D01*
X33773086Y17127500D01*
X33773088Y17127500D01*
X33975754Y17165385D01*
X34168008Y17239864D01*
X34343303Y17348402D01*
X34495670Y17487303D01*
X34619919Y17651835D01*
X34711820Y17836397D01*
X34743368Y17947279D01*
X34780646Y18006371D01*
X34843955Y18035929D01*
X34913195Y18026568D01*
X34966382Y17981258D01*
X34982409Y17945438D01*
X35019576Y17806727D01*
X35019580Y17806716D01*
X35112898Y17606595D01*
X35112901Y17606589D01*
X35158258Y17541813D01*
X35158259Y17541812D01*
X35825096Y18208650D01*
X35825051Y18208102D01*
X35856266Y18084838D01*
X35925813Y17978388D01*
X36026157Y17900287D01*
X36146422Y17859000D01*
X36182551Y17859000D01*
X35511810Y17188260D01*
X35576590Y17142901D01*
X35576592Y17142900D01*
X35776715Y17049581D01*
X35776729Y17049576D01*
X35906468Y17014813D01*
X35966129Y16978448D01*
X35996658Y16915602D01*
X35988364Y16846226D01*
X35943878Y16792348D01*
X35908310Y16775772D01*
X35904252Y16774618D01*
X35711993Y16700137D01*
X35711986Y16700133D01*
X35536698Y16591600D01*
X35536696Y16591598D01*
X35384331Y16452700D01*
X35260081Y16288166D01*
X35168180Y16103606D01*
X35111757Y15905295D01*
X35092734Y15700000D01*
X35111757Y15494706D01*
X35168180Y15296395D01*
X35260081Y15111835D01*
X35384331Y14947301D01*
X35536696Y14808403D01*
X35536698Y14808401D01*
X35636961Y14746321D01*
X35711992Y14699864D01*
X35904246Y14625385D01*
X36106912Y14587500D01*
X36106914Y14587500D01*
X36313086Y14587500D01*
X36313088Y14587500D01*
X36515754Y14625385D01*
X36676206Y14687545D01*
X36745829Y14693407D01*
X36807569Y14660697D01*
X36841824Y14599801D01*
X36845000Y14571918D01*
X36845000Y14288083D01*
X36825315Y14221044D01*
X36772511Y14175289D01*
X36703353Y14165345D01*
X36676206Y14172456D01*
X36550785Y14221044D01*
X36515754Y14234615D01*
X36313088Y14272500D01*
X36106912Y14272500D01*
X35904246Y14234615D01*
X35904243Y14234615D01*
X35904243Y14234614D01*
X35711993Y14160137D01*
X35711986Y14160133D01*
X35536698Y14051600D01*
X35536696Y14051598D01*
X35384331Y13912700D01*
X35260081Y13748166D01*
X35168180Y13563605D01*
X35168177Y13563599D01*
X35136631Y13452723D01*
X35099352Y13393629D01*
X35036042Y13364072D01*
X34966803Y13373434D01*
X34913616Y13418744D01*
X34897590Y13454564D01*
X34860424Y13593271D01*
X34860420Y13593280D01*
X34767096Y13793414D01*
X34721741Y13858189D01*
X34721740Y13858190D01*
X34054903Y13191352D01*
X34054949Y13191898D01*
X34023734Y13315162D01*
X33954187Y13421612D01*
X33853843Y13499713D01*
X33733578Y13541000D01*
X33697448Y13541000D01*
X34368188Y14211741D01*
X34368187Y14211742D01*
X34303411Y14257099D01*
X34303405Y14257102D01*
X34103284Y14350420D01*
X34103273Y14350424D01*
X33973530Y14385188D01*
X33913870Y14421553D01*
X33883341Y14484400D01*
X33891636Y14553776D01*
X33936121Y14607654D01*
X33971703Y14624233D01*
X33975743Y14625384D01*
X33975754Y14625385D01*
X34168008Y14699864D01*
X34343303Y14808402D01*
X34495670Y14947303D01*
X34619919Y15111835D01*
X34711820Y15296397D01*
X34768242Y15494703D01*
X34787266Y15700000D01*
X34768242Y15905297D01*
X34711820Y16103603D01*
X34698663Y16130025D01*
X34655276Y16217159D01*
X34619919Y16288165D01*
X34495670Y16452697D01*
X34495668Y16452700D01*
X34343303Y16591598D01*
X34343301Y16591600D01*
X34168013Y16700133D01*
X34168006Y16700137D01*
X34010785Y16761044D01*
X33975754Y16774615D01*
X33773088Y16812500D01*
X33566912Y16812500D01*
X33364246Y16774615D01*
X33364243Y16774615D01*
X33364243Y16774614D01*
X33171993Y16700137D01*
X33171986Y16700133D01*
X32996698Y16591600D01*
X32996696Y16591598D01*
X32844331Y16452700D01*
X32720081Y16288166D01*
X32685754Y16219228D01*
X32638251Y16167991D01*
X32574754Y16150500D01*
X30162262Y16150500D01*
X30148379Y16151280D01*
X30144371Y16151732D01*
X30112965Y16155271D01*
X30056782Y16144642D01*
X30052218Y16143867D01*
X29995715Y16135349D01*
X29987539Y16132828D01*
X29979529Y16130025D01*
X29928980Y16103309D01*
X29924844Y16101221D01*
X29873359Y16076426D01*
X29866310Y16071621D01*
X29859458Y16066564D01*
X29819046Y16026152D01*
X29815709Y16022937D01*
X29773808Y15984058D01*
X29768015Y15976793D01*
X29767363Y15977313D01*
X29757969Y15965075D01*
X28943134Y15150239D01*
X28881811Y15116754D01*
X28812120Y15121738D01*
X28803050Y15125537D01*
X28783142Y15134820D01*
X28763663Y15143903D01*
X28763659Y15143904D01*
X28763655Y15143906D01*
X28535413Y15205062D01*
X28535403Y15205064D01*
X28300001Y15225659D01*
X28299999Y15225659D01*
X28064596Y15205064D01*
X28064586Y15205062D01*
X27836344Y15143906D01*
X27836335Y15143902D01*
X27622171Y15044036D01*
X27622169Y15044035D01*
X27428597Y14908495D01*
X27261505Y14741403D01*
X27125965Y14547831D01*
X27125964Y14547829D01*
X27026098Y14333665D01*
X27026094Y14333656D01*
X26964938Y14105414D01*
X26964936Y14105404D01*
X26944341Y13870001D01*
X26944341Y13870000D01*
X26964936Y13634597D01*
X26964938Y13634587D01*
X27026094Y13406345D01*
X27026096Y13406341D01*
X27026097Y13406337D01*
X27100976Y13245760D01*
X27125965Y13192170D01*
X27125967Y13192166D01*
X27220310Y13057431D01*
X27261505Y12998599D01*
X27428599Y12831505D01*
X27481218Y12794661D01*
X27622165Y12695968D01*
X27622167Y12695967D01*
X27622170Y12695965D01*
X27777906Y12623344D01*
X27830344Y12577173D01*
X27849500Y12510963D01*
X27849500Y8729038D01*
X27829815Y8661999D01*
X27777905Y8616656D01*
X27622171Y8544036D01*
X27622169Y8544035D01*
X27428597Y8408495D01*
X27261505Y8241403D01*
X27125965Y8047831D01*
X27125964Y8047829D01*
X27026098Y7833665D01*
X27026094Y7833656D01*
X26964938Y7605414D01*
X26964936Y7605404D01*
X26944341Y7370001D01*
X26944341Y7370000D01*
X26964936Y7134597D01*
X26964938Y7134587D01*
X27026094Y6906345D01*
X27026096Y6906341D01*
X27026097Y6906337D01*
X27059168Y6835416D01*
X27125965Y6692170D01*
X27125967Y6692166D01*
X27198571Y6588478D01*
X27261505Y6498599D01*
X27428599Y6331505D01*
X27525384Y6263735D01*
X27622165Y6195968D01*
X27622167Y6195967D01*
X27622170Y6195965D01*
X27836337Y6096097D01*
X28064592Y6034937D01*
X28252918Y6018461D01*
X28299999Y6014341D01*
X28300000Y6014341D01*
X28300001Y6014341D01*
X28339234Y6017774D01*
X28535408Y6034937D01*
X28763663Y6096097D01*
X28977830Y6195965D01*
X29171401Y6331505D01*
X29338495Y6498599D01*
X29474035Y6692170D01*
X29573903Y6906337D01*
X29635063Y7134592D01*
X29655659Y7370000D01*
X29655658Y7370006D01*
X29645777Y7482953D01*
X29635063Y7605408D01*
X29573903Y7833663D01*
X29474035Y8047829D01*
X29470817Y8052426D01*
X29338494Y8241403D01*
X29171402Y8408494D01*
X29171395Y8408499D01*
X28977834Y8544033D01*
X28977831Y8544035D01*
X28977830Y8544035D01*
X28871514Y8593611D01*
X28822095Y8616656D01*
X28769656Y8662829D01*
X28750500Y8729038D01*
X28750500Y12510963D01*
X28770185Y12578002D01*
X28822093Y12623344D01*
X28977830Y12695965D01*
X29171401Y12831505D01*
X29338495Y12998599D01*
X29474035Y13192170D01*
X29573903Y13406337D01*
X29635063Y13634592D01*
X29655659Y13870000D01*
X29655658Y13870006D01*
X29639771Y14051598D01*
X29635063Y14105408D01*
X29573903Y14333663D01*
X29555535Y14373051D01*
X29545044Y14442127D01*
X29573563Y14505911D01*
X29580223Y14513122D01*
X30280284Y15213181D01*
X30341607Y15246666D01*
X30367965Y15249500D01*
X32574754Y15249500D01*
X32641793Y15229815D01*
X32685754Y15180772D01*
X32720081Y15111835D01*
X32844331Y14947301D01*
X32996696Y14808403D01*
X32996698Y14808401D01*
X33096961Y14746321D01*
X33171992Y14699864D01*
X33364246Y14625385D01*
X33364251Y14625384D01*
X33368299Y14624232D01*
X33427395Y14586958D01*
X33456959Y14523651D01*
X33447602Y14454411D01*
X33402297Y14401220D01*
X33366469Y14385188D01*
X33236727Y14350424D01*
X33236720Y14350421D01*
X33036590Y14257099D01*
X32971811Y14211742D01*
X33642553Y13541000D01*
X33638431Y13541000D01*
X33544579Y13525339D01*
X33432749Y13464820D01*
X33346629Y13371269D01*
X33295552Y13254823D01*
X33289894Y13186553D01*
X32618258Y13858189D01*
X32572901Y13793410D01*
X32479579Y13593280D01*
X32479575Y13593271D01*
X32422426Y13379987D01*
X32422424Y13379977D01*
X32403179Y13160001D01*
X32403179Y13160000D01*
X32407353Y13112291D01*
X32393586Y13043791D01*
X32344971Y12993607D01*
X32276943Y12977674D01*
X32211099Y13001049D01*
X32196144Y13013802D01*
X31649544Y13560402D01*
X31635175Y13577644D01*
X31622371Y13596194D01*
X31622362Y13596204D01*
X31503675Y13701352D01*
X31503673Y13701354D01*
X31503671Y13701355D01*
X31481691Y13712892D01*
X31464912Y13723683D01*
X31463759Y13724365D01*
X31445646Y13732203D01*
X31437268Y13736207D01*
X31363254Y13775052D01*
X31334684Y13782094D01*
X31315123Y13788685D01*
X31312928Y13789635D01*
X31312924Y13789636D01*
X31293366Y13792734D01*
X31283093Y13794810D01*
X31209290Y13813000D01*
X31209289Y13813000D01*
X31175172Y13813000D01*
X31155773Y13814527D01*
X31150595Y13815347D01*
X31131585Y13813550D01*
X31119916Y13813000D01*
X31050711Y13813000D01*
X31012896Y13803681D01*
X30994906Y13800630D01*
X30986971Y13799880D01*
X30970221Y13793850D01*
X30957901Y13790126D01*
X30896746Y13775053D01*
X30896746Y13775052D01*
X30896742Y13775051D01*
X30896742Y13775050D01*
X30857863Y13754647D01*
X30842254Y13747779D01*
X30832334Y13744208D01*
X30819020Y13735160D01*
X30806956Y13727928D01*
X30756332Y13701358D01*
X30719625Y13668838D01*
X30707100Y13659098D01*
X30696400Y13651827D01*
X30696392Y13651820D01*
X30687101Y13641281D01*
X30676321Y13630475D01*
X30637634Y13596201D01*
X30637629Y13596195D01*
X30606735Y13551437D01*
X30597701Y13539876D01*
X30587707Y13528541D01*
X30582360Y13518047D01*
X30573930Y13503910D01*
X30547551Y13465695D01*
X30547547Y13465686D01*
X30526263Y13409566D01*
X30520810Y13397250D01*
X30513093Y13382103D01*
X30513092Y13382101D01*
X30511066Y13373038D01*
X30505996Y13356125D01*
X30491318Y13317425D01*
X30491317Y13317420D01*
X30483356Y13251857D01*
X30481275Y13239763D01*
X30477240Y13221710D01*
X30477239Y13221697D01*
X30477447Y13215080D01*
X30476604Y13196250D01*
X30472204Y13160004D01*
X30472204Y13160000D01*
X30480946Y13087997D01*
X30481789Y13076950D01*
X30482402Y13057430D01*
X30483472Y13053748D01*
X30487487Y13034118D01*
X30491318Y13002579D01*
X30491318Y13002577D01*
X30519572Y12928079D01*
X30522699Y12918726D01*
X30528256Y12899602D01*
X30528730Y12898800D01*
X30537938Y12879653D01*
X30547547Y12854314D01*
X30547550Y12854310D01*
X30547551Y12854307D01*
X30570998Y12820338D01*
X30597400Y12782088D01*
X30602084Y12774766D01*
X30611916Y12758139D01*
X30615205Y12753900D01*
X30624822Y12742360D01*
X30637633Y12723801D01*
X30710411Y12659325D01*
X30715846Y12654208D01*
X32528307Y10841747D01*
X32561792Y10780424D01*
X32564097Y10742625D01*
X32552734Y10620001D01*
X32571757Y10414706D01*
X32628180Y10216395D01*
X32720081Y10031835D01*
X32844331Y9867301D01*
X32979038Y9744500D01*
X33015320Y9684789D01*
X33019500Y9652863D01*
X33019500Y9047138D01*
X32999815Y8980099D01*
X32979039Y8955501D01*
X32844329Y8832697D01*
X32720081Y8668166D01*
X32628180Y8483606D01*
X32571757Y8285295D01*
X32552734Y8080000D01*
X32571757Y7874706D01*
X32628180Y7676395D01*
X32720081Y7491835D01*
X32844331Y7327301D01*
X32996696Y7188403D01*
X32996698Y7188401D01*
X33003669Y7184085D01*
X33171992Y7079864D01*
X33364246Y7005385D01*
X33566912Y6967500D01*
X33566914Y6967500D01*
X33773086Y6967500D01*
X33773088Y6967500D01*
X33975754Y7005385D01*
X34168008Y7079864D01*
X34343303Y7188402D01*
X34495670Y7327303D01*
X34619919Y7491835D01*
X34711820Y7676397D01*
X34768242Y7874703D01*
X34787266Y8080000D01*
X34768242Y8285297D01*
X34711820Y8483603D01*
X34681729Y8544033D01*
X34645567Y8616656D01*
X34619919Y8668165D01*
X34495670Y8832697D01*
X34448980Y8875261D01*
X34360961Y8955501D01*
X34324680Y9015213D01*
X34320500Y9047138D01*
X34320500Y9652863D01*
X34340185Y9719902D01*
X34360962Y9744500D01*
X34495668Y9867301D01*
X34541315Y9927747D01*
X34619919Y10031835D01*
X34711820Y10216397D01*
X34768242Y10414703D01*
X34787266Y10620000D01*
X34768242Y10825297D01*
X34711820Y11023603D01*
X34698802Y11049746D01*
X34645569Y11156653D01*
X34619919Y11208165D01*
X34495670Y11372697D01*
X34495668Y11372700D01*
X34343303Y11511598D01*
X34343301Y11511600D01*
X34168013Y11620133D01*
X34168006Y11620137D01*
X33975750Y11694617D01*
X33971692Y11695771D01*
X33912598Y11733049D01*
X33883039Y11796359D01*
X33892400Y11865598D01*
X33937709Y11918785D01*
X33973531Y11934813D01*
X34103270Y11969576D01*
X34103284Y11969581D01*
X34303407Y12062900D01*
X34303417Y12062906D01*
X34368188Y12108259D01*
X33697447Y12779000D01*
X33701569Y12779000D01*
X33795421Y12794661D01*
X33907251Y12855180D01*
X33993371Y12948731D01*
X34044448Y13065177D01*
X34050105Y13133448D01*
X34721741Y12461812D01*
X34767094Y12526583D01*
X34767100Y12526593D01*
X34860419Y12726716D01*
X34860424Y12726730D01*
X34897590Y12865437D01*
X34933955Y12925097D01*
X34996801Y12955627D01*
X35066177Y12947333D01*
X35120055Y12902848D01*
X35136631Y12867278D01*
X35168177Y12756402D01*
X35168180Y12756396D01*
X35260081Y12571835D01*
X35384331Y12407301D01*
X35536696Y12268403D01*
X35536698Y12268401D01*
X35636961Y12206321D01*
X35711992Y12159864D01*
X35904246Y12085385D01*
X36106912Y12047500D01*
X36106914Y12047500D01*
X36313086Y12047500D01*
X36313088Y12047500D01*
X36515754Y12085385D01*
X36676206Y12147545D01*
X36745829Y12153407D01*
X36807569Y12120697D01*
X36841824Y12059801D01*
X36845000Y12031918D01*
X36845000Y11748083D01*
X36825315Y11681044D01*
X36772511Y11635289D01*
X36703353Y11625345D01*
X36676206Y11632456D01*
X36550785Y11681044D01*
X36515754Y11694615D01*
X36313088Y11732500D01*
X36106912Y11732500D01*
X35904246Y11694615D01*
X35904243Y11694615D01*
X35904243Y11694614D01*
X35711993Y11620137D01*
X35711986Y11620133D01*
X35536698Y11511600D01*
X35536696Y11511598D01*
X35384331Y11372700D01*
X35260081Y11208166D01*
X35168180Y11023606D01*
X35111757Y10825295D01*
X35092734Y10620000D01*
X35111757Y10414706D01*
X35168180Y10216395D01*
X35260081Y10031835D01*
X35384331Y9867301D01*
X35536696Y9728403D01*
X35536698Y9728401D01*
X35559500Y9714283D01*
X35711992Y9619864D01*
X35904246Y9545385D01*
X36106912Y9507500D01*
X36106914Y9507500D01*
X36313086Y9507500D01*
X36313088Y9507500D01*
X36515754Y9545385D01*
X36676206Y9607545D01*
X36745829Y9613407D01*
X36807569Y9580697D01*
X36841824Y9519801D01*
X36845000Y9491918D01*
X36845000Y9316500D01*
X36825315Y9249461D01*
X36772511Y9203706D01*
X36721000Y9192500D01*
X35414739Y9192500D01*
X35346608Y9182574D01*
X35241514Y9131197D01*
X35158803Y9048486D01*
X35107426Y8943392D01*
X35097500Y8875261D01*
X35097500Y7284740D01*
X35107426Y7216609D01*
X35158803Y7111515D01*
X35241514Y7028804D01*
X35241515Y7028804D01*
X35241517Y7028802D01*
X35346607Y6977427D01*
X35380673Y6972464D01*
X35414739Y6967500D01*
X36721000Y6967500D01*
X36788039Y6947815D01*
X36833794Y6895011D01*
X36845000Y6843500D01*
X36845000Y3051362D01*
X36825315Y2984323D01*
X36808681Y2963681D01*
X36246319Y2401319D01*
X36184996Y2367834D01*
X36158638Y2365000D01*
X23561362Y2365000D01*
X23494323Y2384685D01*
X23473681Y2401319D01*
X22911319Y2963681D01*
X22877834Y3025004D01*
X22875000Y3051362D01*
X22875000Y4269999D01*
X33634532Y4269999D01*
X33654364Y4043314D01*
X33654366Y4043303D01*
X33713258Y3823512D01*
X33713261Y3823503D01*
X33809431Y3617268D01*
X33809432Y3617266D01*
X33939954Y3430859D01*
X34100858Y3269955D01*
X34100861Y3269953D01*
X34287266Y3139432D01*
X34493504Y3043261D01*
X34713308Y2984365D01*
X34883214Y2969501D01*
X34883215Y2969500D01*
X34883216Y2969500D01*
X34996785Y2969500D01*
X34996785Y2969501D01*
X35166692Y2984365D01*
X35386496Y3043261D01*
X35592734Y3139432D01*
X35779139Y3269953D01*
X35940047Y3430861D01*
X36070568Y3617266D01*
X36166739Y3823504D01*
X36225635Y4043308D01*
X36245468Y4270000D01*
X36225635Y4496692D01*
X36166739Y4716496D01*
X36070568Y4922734D01*
X35940047Y5109139D01*
X35940045Y5109142D01*
X35779141Y5270046D01*
X35592734Y5400568D01*
X35592732Y5400569D01*
X35386497Y5496739D01*
X35386488Y5496742D01*
X35166697Y5555634D01*
X35166687Y5555636D01*
X34996785Y5570500D01*
X34996784Y5570500D01*
X34883216Y5570500D01*
X34883215Y5570500D01*
X34713312Y5555636D01*
X34713302Y5555634D01*
X34493511Y5496742D01*
X34493502Y5496739D01*
X34287267Y5400569D01*
X34287265Y5400568D01*
X34100858Y5270046D01*
X33939954Y5109142D01*
X33809432Y4922735D01*
X33809431Y4922733D01*
X33713261Y4716498D01*
X33713258Y4716489D01*
X33654366Y4496698D01*
X33654364Y4496687D01*
X33634532Y4270002D01*
X33634532Y4269999D01*
X22875000Y4269999D01*
X22875000Y5956921D01*
X22894685Y6023960D01*
X22947489Y6069715D01*
X23016647Y6079659D01*
X23058018Y6065976D01*
X23195390Y5991633D01*
X23195396Y5991631D01*
X23430506Y5910917D01*
X23675707Y5870000D01*
X23924293Y5870000D01*
X24169493Y5910917D01*
X24404603Y5991631D01*
X24404614Y5991636D01*
X24623228Y6109943D01*
X24623231Y6109945D01*
X24670056Y6146391D01*
X23971568Y6844879D01*
X24088458Y6895651D01*
X24205739Y6991066D01*
X24292928Y7114585D01*
X24323354Y7200198D01*
X25023434Y6500118D01*
X25123731Y6653631D01*
X25223587Y6881283D01*
X25284612Y7122262D01*
X25284614Y7122271D01*
X25305141Y7369995D01*
X25305141Y7370006D01*
X25284614Y7617730D01*
X25284612Y7617739D01*
X25223587Y7858718D01*
X25123731Y8086370D01*
X25023434Y8239884D01*
X24325929Y7542378D01*
X24323116Y7555915D01*
X24253558Y7690156D01*
X24150362Y7800652D01*
X24021181Y7879209D01*
X23969996Y7893551D01*
X24670057Y8593611D01*
X24623229Y8630057D01*
X24404614Y8748365D01*
X24404603Y8748370D01*
X24169493Y8829084D01*
X23924293Y8870000D01*
X23675707Y8870000D01*
X23430506Y8829084D01*
X23195396Y8748370D01*
X23195385Y8748365D01*
X23058017Y8674025D01*
X22989689Y8659430D01*
X22924317Y8684093D01*
X22882656Y8740184D01*
X22875000Y8783080D01*
X22875000Y12456921D01*
X22894685Y12523960D01*
X22947489Y12569715D01*
X23016647Y12579659D01*
X23058018Y12565976D01*
X23195390Y12491633D01*
X23195396Y12491631D01*
X23430506Y12410917D01*
X23675707Y12370000D01*
X23924293Y12370000D01*
X24169493Y12410917D01*
X24404603Y12491631D01*
X24404614Y12491636D01*
X24623228Y12609943D01*
X24623231Y12609945D01*
X24670056Y12646391D01*
X23971568Y13344879D01*
X24088458Y13395651D01*
X24205739Y13491066D01*
X24292928Y13614585D01*
X24323354Y13700198D01*
X25023434Y13000118D01*
X25123731Y13153631D01*
X25223587Y13381283D01*
X25284612Y13622262D01*
X25284614Y13622271D01*
X25305141Y13869995D01*
X25305141Y13870006D01*
X25284614Y14117730D01*
X25284612Y14117739D01*
X25223587Y14358718D01*
X25123731Y14586370D01*
X25023434Y14739884D01*
X24325929Y14042378D01*
X24323116Y14055915D01*
X24253558Y14190156D01*
X24150362Y14300652D01*
X24021181Y14379209D01*
X23969996Y14393551D01*
X24670057Y15093611D01*
X24623229Y15130057D01*
X24404614Y15248365D01*
X24404603Y15248370D01*
X24169493Y15329084D01*
X23924293Y15370000D01*
X23675707Y15370000D01*
X23430506Y15329084D01*
X23195396Y15248370D01*
X23195385Y15248365D01*
X23058017Y15174025D01*
X22989689Y15159430D01*
X22924317Y15184093D01*
X22882656Y15240184D01*
X22875000Y15283080D01*
X22875000Y17986000D01*
X22894685Y18053039D01*
X22947489Y18098794D01*
X22999000Y18110000D01*
X23260000Y18110000D01*
X23260000Y19135811D01*
X23312547Y19099984D01*
X23442173Y19060000D01*
X23543724Y19060000D01*
X23644138Y19075135D01*
X23760000Y19130932D01*
X23760000Y18110000D01*
X24457828Y18110000D01*
X24457844Y18110001D01*
X24517372Y18116402D01*
X24517379Y18116404D01*
X24652086Y18166646D01*
X24652093Y18166650D01*
X24767187Y18252810D01*
X24767190Y18252813D01*
X24853350Y18367907D01*
X24853354Y18367914D01*
X24903596Y18502621D01*
X24903598Y18502628D01*
X24909999Y18562156D01*
X24910000Y18562173D01*
X24910000Y18582163D01*
X24929685Y18649202D01*
X24982489Y18694957D01*
X25051647Y18704901D01*
X25115203Y18675876D01*
X25121681Y18669844D01*
X25243123Y18548402D01*
X25422361Y18422898D01*
X25620670Y18330425D01*
X25832023Y18273793D01*
X26014926Y18257792D01*
X26049998Y18254723D01*
X26050000Y18254723D01*
X26050002Y18254723D01*
X26078254Y18257195D01*
X26267977Y18273793D01*
X26479330Y18330425D01*
X26500753Y18340416D01*
X26569829Y18350908D01*
X26633614Y18322390D01*
X26640840Y18315715D01*
X26726404Y18230151D01*
X26735670Y18219783D01*
X26756492Y18193673D01*
X26791214Y18170000D01*
X26801121Y18163246D01*
X26804904Y18160562D01*
X26848366Y18128485D01*
X26855481Y18124725D01*
X26862765Y18121218D01*
X26862770Y18121214D01*
X26914398Y18105290D01*
X26918766Y18103852D01*
X26969776Y18086002D01*
X26977681Y18084507D01*
X26985684Y18083300D01*
X26985685Y18083300D01*
X27039687Y18083300D01*
X27044322Y18083214D01*
X27056414Y18082761D01*
X27098314Y18081193D01*
X27098314Y18081194D01*
X27098316Y18081193D01*
X27098317Y18081194D01*
X27107547Y18082233D01*
X27107647Y18081344D01*
X27122503Y18083300D01*
X27438939Y18083300D01*
X27505978Y18063615D01*
X27551733Y18010811D01*
X27553500Y18006753D01*
X27583146Y17935180D01*
X27615464Y17857159D01*
X27711718Y17731718D01*
X27837159Y17635464D01*
X27983238Y17574956D01*
X28100639Y17559500D01*
X29079360Y17559501D01*
X29079363Y17559501D01*
X29196753Y17574954D01*
X29196757Y17574956D01*
X29196762Y17574956D01*
X29342841Y17635464D01*
X29468282Y17731718D01*
X29564536Y17857159D01*
X29625044Y18003238D01*
X29640500Y18120639D01*
X29640499Y18899360D01*
X29640499Y18899364D01*
X29625046Y19016754D01*
X29625044Y19016759D01*
X29625044Y19016762D01*
X29564536Y19162841D01*
X29468282Y19288282D01*
X29342841Y19384536D01*
X29342840Y19384537D01*
X29342838Y19384538D01*
X29316519Y19395439D01*
X29262115Y19439279D01*
X29240050Y19505573D01*
X29257329Y19573273D01*
X29308466Y19620884D01*
X29316519Y19624561D01*
X29321246Y19626520D01*
X29342841Y19635464D01*
X29468282Y19731718D01*
X29564536Y19857159D01*
X29616641Y19982953D01*
X29660482Y20037356D01*
X29726776Y20059421D01*
X29731202Y20059500D01*
X31162034Y20059500D01*
X31229073Y20039815D01*
G37*
%TD.AperFunction*%
%TA.AperFunction,Conductor*%
G36*
X-1846667Y36593717D02*
G01*
X-1802320Y36565216D01*
X1578630Y33184267D01*
X1587895Y33173900D01*
X1610121Y33146030D01*
X1610123Y33146028D01*
X1657363Y33113820D01*
X1661145Y33111137D01*
X1707118Y33077207D01*
X1714654Y33073224D01*
X1722319Y33069533D01*
X1722327Y33069528D01*
X1747188Y33061860D01*
X1776980Y33052670D01*
X1781371Y33051226D01*
X1835301Y33032354D01*
X1835305Y33032354D01*
X1843698Y33030766D01*
X1852095Y33029500D01*
X1852098Y33029500D01*
X1909245Y33029500D01*
X1913883Y33029413D01*
X1971009Y33027275D01*
X1971009Y33027276D01*
X1971010Y33027275D01*
X1971010Y33027276D01*
X1980242Y33028315D01*
X1980335Y33027487D01*
X1995639Y33029500D01*
X32574754Y33029500D01*
X32641793Y33009815D01*
X32685754Y32960772D01*
X32720081Y32891835D01*
X32844331Y32727301D01*
X32996696Y32588403D01*
X32996698Y32588401D01*
X33039895Y32561655D01*
X33171992Y32479864D01*
X33364246Y32405385D01*
X33364251Y32405384D01*
X33368299Y32404232D01*
X33427395Y32366958D01*
X33456959Y32303651D01*
X33447602Y32234411D01*
X33402297Y32181220D01*
X33366469Y32165188D01*
X33236727Y32130424D01*
X33236720Y32130421D01*
X33036590Y32037099D01*
X32971811Y31991742D01*
X33642553Y31321000D01*
X33638431Y31321000D01*
X33544579Y31305339D01*
X33432749Y31244820D01*
X33346629Y31151269D01*
X33295552Y31034823D01*
X33289894Y30966553D01*
X32618258Y31638189D01*
X32572901Y31573410D01*
X32479579Y31373280D01*
X32479575Y31373271D01*
X32422426Y31159987D01*
X32422424Y31159977D01*
X32403179Y30940001D01*
X32403179Y30940000D01*
X32422424Y30720024D01*
X32422426Y30720014D01*
X32479575Y30506730D01*
X32479580Y30506716D01*
X32572898Y30306595D01*
X32572901Y30306589D01*
X32618258Y30241813D01*
X32618259Y30241812D01*
X33285096Y30908650D01*
X33285051Y30908102D01*
X33316266Y30784838D01*
X33385813Y30678388D01*
X33486157Y30600287D01*
X33606422Y30559000D01*
X33642553Y30559000D01*
X32971810Y29888260D01*
X33036590Y29842901D01*
X33036592Y29842900D01*
X33236715Y29749581D01*
X33236729Y29749576D01*
X33366468Y29714813D01*
X33426129Y29678448D01*
X33456658Y29615602D01*
X33448364Y29546226D01*
X33403878Y29492348D01*
X33368310Y29475772D01*
X33364252Y29474618D01*
X33171993Y29400137D01*
X33171986Y29400133D01*
X32996698Y29291600D01*
X32996696Y29291598D01*
X32844331Y29152700D01*
X32720081Y28988166D01*
X32628180Y28803606D01*
X32571757Y28605295D01*
X32552734Y28400000D01*
X32571757Y28194706D01*
X32628180Y27996395D01*
X32720081Y27811835D01*
X32844331Y27647301D01*
X32996696Y27508403D01*
X32996698Y27508401D01*
X33096961Y27446321D01*
X33171992Y27399864D01*
X33364246Y27325385D01*
X33566912Y27287500D01*
X33566914Y27287500D01*
X33773086Y27287500D01*
X33773088Y27287500D01*
X33975754Y27325385D01*
X34168008Y27399864D01*
X34343303Y27508402D01*
X34495670Y27647303D01*
X34619919Y27811835D01*
X34711820Y27996397D01*
X34768242Y28194703D01*
X34787266Y28400000D01*
X34768242Y28605297D01*
X34711820Y28803603D01*
X34619919Y28988165D01*
X34512057Y29130997D01*
X34495668Y29152700D01*
X34343303Y29291598D01*
X34343301Y29291600D01*
X34168013Y29400133D01*
X34168006Y29400137D01*
X33975750Y29474617D01*
X33971692Y29475771D01*
X33912598Y29513049D01*
X33883039Y29576359D01*
X33892400Y29645598D01*
X33937709Y29698785D01*
X33973531Y29714813D01*
X34103270Y29749576D01*
X34103284Y29749581D01*
X34303407Y29842900D01*
X34303417Y29842906D01*
X34368188Y29888259D01*
X33697448Y30559000D01*
X33701569Y30559000D01*
X33795421Y30574661D01*
X33907251Y30635180D01*
X33993371Y30728731D01*
X34044448Y30845177D01*
X34050105Y30913448D01*
X34721741Y30241812D01*
X34767094Y30306583D01*
X34767100Y30306593D01*
X34860419Y30506716D01*
X34860424Y30506730D01*
X34897590Y30645437D01*
X34933955Y30705097D01*
X34996801Y30735627D01*
X35066177Y30727333D01*
X35120055Y30682848D01*
X35136631Y30647278D01*
X35168177Y30536402D01*
X35168180Y30536396D01*
X35260081Y30351835D01*
X35384331Y30187301D01*
X35536696Y30048403D01*
X35536698Y30048401D01*
X35636961Y29986321D01*
X35711992Y29939864D01*
X35904246Y29865385D01*
X36106912Y29827500D01*
X36106914Y29827500D01*
X36313086Y29827500D01*
X36313088Y29827500D01*
X36515754Y29865385D01*
X36676206Y29927545D01*
X36745829Y29933407D01*
X36807569Y29900697D01*
X36841824Y29839801D01*
X36845000Y29811918D01*
X36845000Y29528083D01*
X36825315Y29461044D01*
X36772511Y29415289D01*
X36703353Y29405345D01*
X36676206Y29412456D01*
X36563206Y29456232D01*
X36515754Y29474615D01*
X36313088Y29512500D01*
X36106912Y29512500D01*
X35904246Y29474615D01*
X35904243Y29474615D01*
X35904243Y29474614D01*
X35711993Y29400137D01*
X35711986Y29400133D01*
X35536698Y29291600D01*
X35536696Y29291598D01*
X35384331Y29152700D01*
X35260081Y28988166D01*
X35168180Y28803606D01*
X35111757Y28605295D01*
X35092734Y28400000D01*
X35111757Y28194706D01*
X35168180Y27996395D01*
X35260081Y27811835D01*
X35384331Y27647301D01*
X35536696Y27508403D01*
X35536698Y27508401D01*
X35636961Y27446321D01*
X35711992Y27399864D01*
X35904246Y27325385D01*
X36106912Y27287500D01*
X36106914Y27287500D01*
X36313086Y27287500D01*
X36313088Y27287500D01*
X36515754Y27325385D01*
X36676206Y27387545D01*
X36745829Y27393407D01*
X36807569Y27360697D01*
X36841824Y27299801D01*
X36845000Y27271918D01*
X36845000Y26988083D01*
X36825315Y26921044D01*
X36772511Y26875289D01*
X36703353Y26865345D01*
X36676206Y26872456D01*
X36550785Y26921044D01*
X36515754Y26934615D01*
X36313088Y26972500D01*
X36106912Y26972500D01*
X35904246Y26934615D01*
X35904243Y26934615D01*
X35904243Y26934614D01*
X35711993Y26860137D01*
X35711986Y26860133D01*
X35536698Y26751600D01*
X35536696Y26751598D01*
X35384331Y26612700D01*
X35260081Y26448166D01*
X35168180Y26263606D01*
X35111757Y26065295D01*
X35092734Y25860000D01*
X35111757Y25654706D01*
X35168180Y25456395D01*
X35260081Y25271835D01*
X35384331Y25107301D01*
X35536696Y24968403D01*
X35536698Y24968401D01*
X35587153Y24937161D01*
X35711992Y24859864D01*
X35904246Y24785385D01*
X36106912Y24747500D01*
X36106914Y24747500D01*
X36313086Y24747500D01*
X36313088Y24747500D01*
X36515754Y24785385D01*
X36676206Y24847545D01*
X36745829Y24853407D01*
X36807569Y24820697D01*
X36841824Y24759801D01*
X36845000Y24731918D01*
X36845000Y24448083D01*
X36825315Y24381044D01*
X36772511Y24335289D01*
X36703353Y24325345D01*
X36676206Y24332456D01*
X36598759Y24362459D01*
X36515754Y24394615D01*
X36313088Y24432500D01*
X36106912Y24432500D01*
X35904246Y24394615D01*
X35904243Y24394615D01*
X35904243Y24394614D01*
X35711993Y24320137D01*
X35711986Y24320133D01*
X35536698Y24211600D01*
X35536696Y24211598D01*
X35384331Y24072700D01*
X35260081Y23908166D01*
X35168180Y23723605D01*
X35168177Y23723599D01*
X35136631Y23612723D01*
X35099352Y23553629D01*
X35036042Y23524072D01*
X34966803Y23533434D01*
X34913616Y23578744D01*
X34897590Y23614564D01*
X34860424Y23753271D01*
X34860420Y23753280D01*
X34767096Y23953414D01*
X34721741Y24018189D01*
X34721740Y24018190D01*
X34054903Y23351352D01*
X34054949Y23351898D01*
X34023734Y23475162D01*
X33954187Y23581612D01*
X33853843Y23659713D01*
X33733578Y23701000D01*
X33697448Y23701000D01*
X34368188Y24371741D01*
X34368187Y24371742D01*
X34303411Y24417099D01*
X34303405Y24417102D01*
X34103284Y24510420D01*
X34103273Y24510424D01*
X33973530Y24545188D01*
X33913870Y24581553D01*
X33883341Y24644400D01*
X33891636Y24713776D01*
X33936121Y24767654D01*
X33971703Y24784233D01*
X33975743Y24785384D01*
X33975754Y24785385D01*
X34168008Y24859864D01*
X34343303Y24968402D01*
X34495670Y25107303D01*
X34619919Y25271835D01*
X34711820Y25456397D01*
X34768242Y25654703D01*
X34787266Y25860000D01*
X34768242Y26065297D01*
X34711820Y26263603D01*
X34619919Y26448165D01*
X34560308Y26527102D01*
X34495668Y26612700D01*
X34343303Y26751598D01*
X34343301Y26751600D01*
X34168013Y26860133D01*
X34168006Y26860137D01*
X34010785Y26921044D01*
X33975754Y26934615D01*
X33773088Y26972500D01*
X33566912Y26972500D01*
X33364246Y26934615D01*
X33364243Y26934615D01*
X33364243Y26934614D01*
X33171993Y26860137D01*
X33171986Y26860133D01*
X32996698Y26751600D01*
X32996696Y26751598D01*
X32844331Y26612700D01*
X32720081Y26448166D01*
X32628180Y26263606D01*
X32571757Y26065295D01*
X32552734Y25860000D01*
X32571757Y25654706D01*
X32628180Y25456395D01*
X32720081Y25271835D01*
X32844331Y25107301D01*
X32996696Y24968403D01*
X32996698Y24968401D01*
X33047153Y24937161D01*
X33171992Y24859864D01*
X33364246Y24785385D01*
X33364251Y24785384D01*
X33368299Y24784232D01*
X33427395Y24746958D01*
X33456959Y24683651D01*
X33447602Y24614411D01*
X33402297Y24561220D01*
X33366469Y24545188D01*
X33236727Y24510424D01*
X33236720Y24510421D01*
X33036590Y24417099D01*
X32971811Y24371742D01*
X33642553Y23701000D01*
X33638431Y23701000D01*
X33544579Y23685339D01*
X33432749Y23624820D01*
X33346629Y23531269D01*
X33295552Y23414823D01*
X33289894Y23346553D01*
X32618258Y24018189D01*
X32572901Y23953410D01*
X32479579Y23753280D01*
X32479575Y23753271D01*
X32422426Y23539987D01*
X32422424Y23539977D01*
X32403179Y23320001D01*
X32403179Y23320000D01*
X32422424Y23100024D01*
X32422426Y23100014D01*
X32461996Y22952337D01*
X32460333Y22882487D01*
X32421170Y22824625D01*
X32356942Y22797121D01*
X32288040Y22808708D01*
X32254540Y22832563D01*
X29676818Y25410285D01*
X29643333Y25471608D01*
X29640499Y25497966D01*
X29640499Y25979364D01*
X29625046Y26096754D01*
X29625044Y26096761D01*
X29625044Y26096762D01*
X29564536Y26242841D01*
X29468282Y26368282D01*
X29342841Y26464536D01*
X29196762Y26525044D01*
X29196760Y26525045D01*
X29079370Y26540499D01*
X29079367Y26540500D01*
X29079361Y26540500D01*
X29079354Y26540500D01*
X28100636Y26540500D01*
X27983246Y26525047D01*
X27983237Y26525044D01*
X27837160Y26464537D01*
X27711718Y26368282D01*
X27615463Y26242840D01*
X27554956Y26096763D01*
X27554955Y26096761D01*
X27539500Y25979362D01*
X27539500Y25200637D01*
X27554953Y25083247D01*
X27554956Y25083238D01*
X27581430Y25019323D01*
X27615464Y24937159D01*
X27711718Y24811718D01*
X27837159Y24715464D01*
X27860488Y24705801D01*
X27863481Y24704561D01*
X27917884Y24660720D01*
X27939949Y24594425D01*
X27922670Y24526726D01*
X27871532Y24479116D01*
X27863481Y24475439D01*
X27837160Y24464537D01*
X27711718Y24368282D01*
X27615462Y24242839D01*
X27563359Y24117048D01*
X27519518Y24062644D01*
X27453224Y24040579D01*
X27448798Y24040500D01*
X27358976Y24040500D01*
X27291937Y24060185D01*
X27246182Y24112989D01*
X27236238Y24182147D01*
X27239201Y24196593D01*
X27272304Y24320137D01*
X27286207Y24372023D01*
X27305277Y24590000D01*
X27286207Y24807977D01*
X27229575Y25019330D01*
X27137102Y25217638D01*
X27137100Y25217641D01*
X27137099Y25217643D01*
X27011599Y25396876D01*
X26936867Y25471608D01*
X26856877Y25551598D01*
X26709624Y25654706D01*
X26677638Y25677103D01*
X26559708Y25732094D01*
X26479330Y25769575D01*
X26479326Y25769576D01*
X26479322Y25769578D01*
X26267977Y25826207D01*
X26050002Y25845277D01*
X26049998Y25845277D01*
X25904682Y25832564D01*
X25832023Y25826207D01*
X25832020Y25826207D01*
X25620677Y25769578D01*
X25620668Y25769574D01*
X25422361Y25677102D01*
X25422357Y25677100D01*
X25243121Y25551598D01*
X25121681Y25430157D01*
X25060358Y25396672D01*
X24990666Y25401656D01*
X24934733Y25443528D01*
X24910316Y25508992D01*
X24910000Y25517838D01*
X24910000Y25537828D01*
X24909999Y25537845D01*
X24903598Y25597373D01*
X24903596Y25597380D01*
X24853354Y25732087D01*
X24853350Y25732094D01*
X24767190Y25847188D01*
X24767187Y25847191D01*
X24652093Y25933351D01*
X24652086Y25933355D01*
X24517379Y25983597D01*
X24517372Y25983599D01*
X24457844Y25990000D01*
X23760000Y25990000D01*
X23760000Y24964190D01*
X23707453Y25000016D01*
X23577827Y25040000D01*
X23476276Y25040000D01*
X23375862Y25024865D01*
X23260000Y24969069D01*
X23260000Y25990000D01*
X22999000Y25990000D01*
X22931961Y26009685D01*
X22886206Y26062489D01*
X22875000Y26114000D01*
X22875000Y27130000D01*
X22240000Y27765000D01*
X-10780000Y27765000D01*
X-10780001Y27765000D01*
X-11415000Y27130001D01*
X-11415000Y11856500D01*
X-11434685Y11789461D01*
X-11487489Y11743706D01*
X-11539000Y11732500D01*
X-12474035Y11732500D01*
X-12541074Y11752185D01*
X-12561716Y11768819D01*
X-12629087Y11836190D01*
X-12662572Y11897513D01*
X-12664502Y11908925D01*
X-12681318Y12047421D01*
X-12686013Y12059801D01*
X-12737551Y12195693D01*
X-12827633Y12326199D01*
X-12827636Y12326202D01*
X-12827638Y12326204D01*
X-12946327Y12431354D01*
X-13004360Y12461812D01*
X-13086742Y12505050D01*
X-13086743Y12505051D01*
X-13086746Y12505052D01*
X-13240710Y12543000D01*
X-13240711Y12543000D01*
X-13399289Y12543000D01*
X-13399290Y12543000D01*
X-13553255Y12505052D01*
X-13693674Y12431354D01*
X-13812363Y12326204D01*
X-13812369Y12326197D01*
X-13902449Y12195695D01*
X-13958683Y12047421D01*
X-13977796Y11890000D01*
X-13958683Y11732580D01*
X-13902449Y11584306D01*
X-13820745Y11465938D01*
X-13812367Y11453801D01*
X-13812365Y11453799D01*
X-13812363Y11453797D01*
X-13693673Y11348646D01*
X-13693671Y11348645D01*
X-13594119Y11296396D01*
X-13543907Y11247812D01*
X-13527932Y11179793D01*
X-13532320Y11156653D01*
X-13531848Y11156552D01*
X-13533265Y11149935D01*
X-13543500Y11049754D01*
X-13543500Y10190247D01*
X-13533265Y10090070D01*
X-13479477Y9927747D01*
X-13389707Y9782210D01*
X-13268791Y9661294D01*
X-13123254Y9571524D01*
X-13123253Y9571524D01*
X-13123250Y9571522D01*
X-13017051Y9536332D01*
X-12959606Y9496560D01*
X-12932783Y9432044D01*
X-12936575Y9385451D01*
X-12950772Y9334325D01*
X-11784128Y8167681D01*
X-11750643Y8106358D01*
X-11755627Y8036666D01*
X-11784128Y7992319D01*
X-11962319Y7814129D01*
X-12023642Y7780644D01*
X-12093334Y7785628D01*
X-12137681Y7814129D01*
X-13423419Y9099867D01*
X-13438632Y9087637D01*
X-13438638Y9087631D01*
X-13558693Y8938276D01*
X-13643835Y8766603D01*
X-13690082Y8580641D01*
X-13693000Y8537605D01*
X-13693000Y8119465D01*
X-13712685Y8052426D01*
X-13765489Y8006671D01*
X-13834647Y7996727D01*
X-13898203Y8025752D01*
X-13904681Y8031784D01*
X-15520781Y9647884D01*
X-15554266Y9709207D01*
X-15557100Y9735565D01*
X-15557100Y15673194D01*
X-15537415Y15740233D01*
X-15484611Y15785988D01*
X-15415453Y15795932D01*
X-15394094Y15790899D01*
X-15362700Y15780496D01*
X-15362691Y15780494D01*
X-15259981Y15770001D01*
X-15110001Y15770001D01*
X-15110000Y15770002D01*
X-15110000Y16720000D01*
X-14610000Y16720000D01*
X-14610000Y15770001D01*
X-14460028Y15770001D01*
X-14460014Y15770002D01*
X-14357303Y15780495D01*
X-14190881Y15835642D01*
X-14190876Y15835644D01*
X-14041655Y15927685D01*
X-13917685Y16051655D01*
X-13825644Y16200876D01*
X-13825642Y16200881D01*
X-13770495Y16367303D01*
X-13770494Y16367310D01*
X-13760001Y16470014D01*
X-13760000Y16470027D01*
X-13760000Y16720000D01*
X-14610000Y16720000D01*
X-15110000Y16720000D01*
X-15110000Y18170000D01*
X-14610000Y18170000D01*
X-14610000Y17220000D01*
X-13760001Y17220000D01*
X-13760001Y17469972D01*
X-13760002Y17469987D01*
X-13770495Y17572698D01*
X-13825642Y17739120D01*
X-13825644Y17739125D01*
X-13917685Y17888346D01*
X-14041655Y18012316D01*
X-14190876Y18104357D01*
X-14190881Y18104359D01*
X-14357303Y18159506D01*
X-14357310Y18159507D01*
X-14460014Y18170000D01*
X-14610000Y18170000D01*
X-15110000Y18170000D01*
X-15259973Y18170000D01*
X-15259988Y18169999D01*
X-15362697Y18159506D01*
X-15394098Y18149101D01*
X-15463926Y18146701D01*
X-15523968Y18182433D01*
X-15555159Y18244954D01*
X-15557100Y18266808D01*
X-15557100Y18368218D01*
X-15537415Y18435257D01*
X-15484611Y18481012D01*
X-15415453Y18490956D01*
X-15385653Y18482781D01*
X-15366762Y18474956D01*
X-15249361Y18459500D01*
X-14470640Y18459501D01*
X-14470637Y18459501D01*
X-14353247Y18474954D01*
X-14353243Y18474956D01*
X-14353238Y18474956D01*
X-14207159Y18535464D01*
X-14081718Y18631718D01*
X-13985464Y18757159D01*
X-13924956Y18903238D01*
X-13918578Y18951686D01*
X-13890312Y19015582D01*
X-13831987Y19054053D01*
X-13795639Y19059500D01*
X-13704662Y19059500D01*
X-13690780Y19058721D01*
X-13677979Y19057278D01*
X-13655367Y19054730D01*
X-13655367Y19054731D01*
X-13655365Y19054730D01*
X-13599164Y19065365D01*
X-13594674Y19066128D01*
X-13538113Y19074652D01*
X-13538109Y19074655D01*
X-13529953Y19077170D01*
X-13521931Y19079976D01*
X-13521930Y19079977D01*
X-13521928Y19079977D01*
X-13471312Y19106730D01*
X-13467307Y19108752D01*
X-13415758Y19133575D01*
X-13415757Y19133577D01*
X-13415755Y19133577D01*
X-13408705Y19138384D01*
X-13401866Y19143433D01*
X-13401862Y19143434D01*
X-13361426Y19183872D01*
X-13358140Y19187038D01*
X-13316206Y19225945D01*
X-13316204Y19225950D01*
X-13310413Y19233210D01*
X-13309757Y19232687D01*
X-13300368Y19244930D01*
X-12106656Y20438643D01*
X-12096307Y20447891D01*
X-12068430Y20470121D01*
X-12036202Y20517393D01*
X-12033588Y20521077D01*
X-11999607Y20567118D01*
X-11999607Y20567121D01*
X-11999605Y20567122D01*
X-11995622Y20574659D01*
X-11991932Y20582323D01*
X-11991928Y20582327D01*
X-11975070Y20636982D01*
X-11973639Y20641332D01*
X-11954754Y20695300D01*
X-11954754Y20695302D01*
X-11953172Y20703664D01*
X-11951900Y20712101D01*
X-11951900Y20769262D01*
X-11951813Y20773900D01*
X-11949676Y20831008D01*
X-11950716Y20840239D01*
X-11949887Y20840333D01*
X-11951900Y20855634D01*
X-11951900Y29079635D01*
X-11932215Y29146674D01*
X-11915581Y29167316D01*
X-10832216Y30250681D01*
X-10770893Y30284166D01*
X-10744535Y30287000D01*
X-10700710Y30287000D01*
X-10546746Y30324949D01*
X-10546746Y30324950D01*
X-10546742Y30324950D01*
X-10406329Y30398645D01*
X-10287633Y30503801D01*
X-10197551Y30634307D01*
X-10141318Y30782579D01*
X-10122204Y30940000D01*
X-10141318Y31097421D01*
X-10197551Y31245693D01*
X-10287633Y31376199D01*
X-10287636Y31376202D01*
X-10287638Y31376204D01*
X-10406327Y31481354D01*
X-10546746Y31555052D01*
X-10700710Y31593000D01*
X-10700711Y31593000D01*
X-10859289Y31593000D01*
X-10859290Y31593000D01*
X-11013255Y31555052D01*
X-11153674Y31481354D01*
X-11272363Y31376204D01*
X-11272369Y31376197D01*
X-11362449Y31245695D01*
X-11418683Y31097421D01*
X-11435498Y30958928D01*
X-11463120Y30894750D01*
X-11470913Y30886193D01*
X-12698137Y29658968D01*
X-12708502Y29649705D01*
X-12736367Y29627483D01*
X-12736370Y29627479D01*
X-12768577Y29580243D01*
X-12771256Y29576468D01*
X-12805194Y29530482D01*
X-12809184Y29522933D01*
X-12812872Y29515275D01*
X-12829727Y29460633D01*
X-12831175Y29456232D01*
X-12850047Y29402296D01*
X-12851629Y29393941D01*
X-12852900Y29385500D01*
X-12852900Y29328340D01*
X-12852987Y29323703D01*
X-12855125Y29266591D01*
X-12854084Y29257357D01*
X-12854915Y29257264D01*
X-12852900Y29241965D01*
X-12852900Y21477441D01*
X-12872585Y21410402D01*
X-12925389Y21364647D01*
X-12994547Y21354703D01*
X-13034523Y21367643D01*
X-13086742Y21395050D01*
X-13086743Y21395051D01*
X-13086746Y21395052D01*
X-13240710Y21433000D01*
X-13240711Y21433000D01*
X-13284535Y21433000D01*
X-13351574Y21452685D01*
X-13372216Y21469319D01*
X-13873182Y21970285D01*
X-13906667Y22031608D01*
X-13909501Y22057966D01*
X-13909501Y22539364D01*
X-13924954Y22656754D01*
X-13924956Y22656759D01*
X-13924956Y22656762D01*
X-13985464Y22802841D01*
X-14081718Y22928282D01*
X-14207159Y23024536D01*
X-14213779Y23027278D01*
X-14353238Y23085044D01*
X-14353240Y23085045D01*
X-14470639Y23100500D01*
X-15249364Y23100500D01*
X-15366754Y23085047D01*
X-15366763Y23085044D01*
X-15512840Y23024537D01*
X-15638282Y22928282D01*
X-15734537Y22802840D01*
X-15745439Y22776519D01*
X-15789280Y22722116D01*
X-15855575Y22700051D01*
X-15923274Y22717330D01*
X-15970884Y22768468D01*
X-15974561Y22776519D01*
X-15985464Y22802840D01*
X-15985464Y22802841D01*
X-16081718Y22928282D01*
X-16207159Y23024536D01*
X-16209334Y23025437D01*
X-16332953Y23076642D01*
X-16387356Y23120483D01*
X-16409421Y23186778D01*
X-16409500Y23191203D01*
X-16409500Y23448798D01*
X-16389815Y23515837D01*
X-16337011Y23561592D01*
X-16332964Y23563354D01*
X-16207159Y23615464D01*
X-16081718Y23711718D01*
X-15985464Y23837159D01*
X-15974561Y23863481D01*
X-15930721Y23917885D01*
X-15864427Y23939950D01*
X-15796727Y23922671D01*
X-15749116Y23871534D01*
X-15745439Y23863481D01*
X-15734538Y23837162D01*
X-15734537Y23837161D01*
X-15734536Y23837159D01*
X-15638282Y23711718D01*
X-15512841Y23615464D01*
X-15366762Y23554956D01*
X-15249361Y23539500D01*
X-14470640Y23539501D01*
X-14470637Y23539501D01*
X-14353247Y23554954D01*
X-14353243Y23554956D01*
X-14353238Y23554956D01*
X-14207159Y23615464D01*
X-14081718Y23711718D01*
X-13985464Y23837159D01*
X-13924956Y23983238D01*
X-13909500Y24100639D01*
X-13909501Y25079360D01*
X-13909501Y25079361D01*
X-13909501Y25079364D01*
X-13924954Y25196754D01*
X-13924956Y25196759D01*
X-13924956Y25196762D01*
X-13985464Y25342841D01*
X-14081718Y25468282D01*
X-14207159Y25564536D01*
X-14286451Y25597380D01*
X-14332953Y25616642D01*
X-14387356Y25660483D01*
X-14409421Y25726778D01*
X-14409500Y25731203D01*
X-14409500Y31432036D01*
X-14389815Y31499075D01*
X-14373185Y31519713D01*
X-13499715Y32393184D01*
X-13438394Y32426667D01*
X-13412045Y32429501D01*
X-12660640Y32429501D01*
X-12660637Y32429501D01*
X-12543247Y32444954D01*
X-12543243Y32444956D01*
X-12543238Y32444956D01*
X-12397159Y32505464D01*
X-12271718Y32601718D01*
X-12240016Y32643035D01*
X-12183590Y32684236D01*
X-12113844Y32688391D01*
X-12052924Y32654180D01*
X-12036102Y32632644D01*
X-11992316Y32561655D01*
X-11868346Y32437685D01*
X-11719125Y32345644D01*
X-11719120Y32345642D01*
X-11552698Y32290495D01*
X-11552691Y32290494D01*
X-11449981Y32280001D01*
X-11300001Y32280001D01*
X-11300000Y32280002D01*
X-11300000Y33230000D01*
X-10800000Y33230000D01*
X-10800000Y32280001D01*
X-10650028Y32280001D01*
X-10650014Y32280002D01*
X-10547303Y32290495D01*
X-10380881Y32345642D01*
X-10380876Y32345644D01*
X-10231655Y32437685D01*
X-10107685Y32561655D01*
X-10015644Y32710876D01*
X-10015642Y32710881D01*
X-9960495Y32877303D01*
X-9960494Y32877310D01*
X-9950001Y32980014D01*
X-9950000Y32980027D01*
X-9950000Y33230000D01*
X-10800000Y33230000D01*
X-11300000Y33230000D01*
X-11300000Y34680000D01*
X-10800000Y34680000D01*
X-10800000Y33730000D01*
X-9950001Y33730000D01*
X-9950001Y33979972D01*
X-9950002Y33979987D01*
X-9960495Y34082698D01*
X-10015642Y34249120D01*
X-10015644Y34249125D01*
X-10107685Y34398346D01*
X-10231655Y34522316D01*
X-10380876Y34614357D01*
X-10380881Y34614359D01*
X-10547303Y34669506D01*
X-10547310Y34669507D01*
X-10650014Y34680000D01*
X-10800000Y34680000D01*
X-11300000Y34680000D01*
X-11449973Y34680000D01*
X-11449988Y34679999D01*
X-11552698Y34669506D01*
X-11719120Y34614359D01*
X-11719125Y34614357D01*
X-11868346Y34522316D01*
X-11992317Y34398345D01*
X-11992320Y34398341D01*
X-12036103Y34327357D01*
X-12088051Y34280632D01*
X-12157013Y34269411D01*
X-12221095Y34297254D01*
X-12240017Y34316968D01*
X-12247989Y34327357D01*
X-12271718Y34358282D01*
X-12397159Y34454536D01*
X-12397161Y34454537D01*
X-12522953Y34506642D01*
X-12577356Y34550483D01*
X-12599421Y34616778D01*
X-12599500Y34621203D01*
X-12599500Y34878798D01*
X-12579815Y34945837D01*
X-12527011Y34991592D01*
X-12522964Y34993354D01*
X-12397159Y35045464D01*
X-12271718Y35141718D01*
X-12175464Y35267159D01*
X-12164561Y35293481D01*
X-12120721Y35347885D01*
X-12054427Y35369950D01*
X-11986727Y35352671D01*
X-11939116Y35301534D01*
X-11935439Y35293481D01*
X-11924538Y35267162D01*
X-11924537Y35267161D01*
X-11924536Y35267159D01*
X-11828282Y35141718D01*
X-11702841Y35045464D01*
X-11556762Y34984956D01*
X-11439361Y34969500D01*
X-10660640Y34969501D01*
X-10660637Y34969501D01*
X-10543247Y34984954D01*
X-10543243Y34984956D01*
X-10543238Y34984956D01*
X-10397159Y35045464D01*
X-10271718Y35141718D01*
X-10175464Y35267159D01*
X-10114956Y35413238D01*
X-10108578Y35461686D01*
X-10080312Y35525582D01*
X-10021987Y35564053D01*
X-9985639Y35569500D01*
X-3192262Y35569500D01*
X-3178380Y35568721D01*
X-3167435Y35567487D01*
X-3142967Y35564730D01*
X-3142967Y35564731D01*
X-3142965Y35564730D01*
X-3086764Y35575365D01*
X-3082274Y35576128D01*
X-3025713Y35584652D01*
X-3025709Y35584655D01*
X-3017553Y35587170D01*
X-3009531Y35589976D01*
X-3009530Y35589977D01*
X-3009528Y35589977D01*
X-2958912Y35616730D01*
X-2954907Y35618752D01*
X-2903358Y35643575D01*
X-2903357Y35643577D01*
X-2903355Y35643577D01*
X-2896305Y35648384D01*
X-2889466Y35653433D01*
X-2889462Y35653434D01*
X-2849026Y35693872D01*
X-2845740Y35697038D01*
X-2803806Y35735945D01*
X-2803804Y35735950D01*
X-2798013Y35743210D01*
X-2797357Y35742687D01*
X-2787968Y35754930D01*
X-1977682Y36565217D01*
X-1916359Y36598701D01*
X-1846667Y36593717D01*
G37*
%TD.AperFunction*%
%TA.AperFunction,Conductor*%
G36*
X34721741Y22621812D02*
G01*
X34767094Y22686583D01*
X34767100Y22686593D01*
X34860419Y22886716D01*
X34860424Y22886730D01*
X34897590Y23025437D01*
X34933955Y23085097D01*
X34996801Y23115627D01*
X35066177Y23107333D01*
X35120055Y23062848D01*
X35136631Y23027278D01*
X35168177Y22916402D01*
X35168180Y22916396D01*
X35260081Y22731835D01*
X35384331Y22567301D01*
X35536696Y22428403D01*
X35536698Y22428401D01*
X35636961Y22366321D01*
X35711992Y22319864D01*
X35904246Y22245385D01*
X36106912Y22207500D01*
X36106914Y22207500D01*
X36313086Y22207500D01*
X36313088Y22207500D01*
X36515754Y22245385D01*
X36676206Y22307545D01*
X36745829Y22313407D01*
X36807569Y22280697D01*
X36841824Y22219801D01*
X36845000Y22191918D01*
X36845000Y21908083D01*
X36825315Y21841044D01*
X36772511Y21795289D01*
X36703353Y21785345D01*
X36676206Y21792456D01*
X36668893Y21795289D01*
X36515754Y21854615D01*
X36313088Y21892500D01*
X36106912Y21892500D01*
X35904246Y21854615D01*
X35904243Y21854615D01*
X35904243Y21854614D01*
X35711993Y21780137D01*
X35711986Y21780133D01*
X35536698Y21671600D01*
X35536696Y21671598D01*
X35384331Y21532700D01*
X35260081Y21368166D01*
X35168180Y21183606D01*
X35111757Y20985295D01*
X35092734Y20780000D01*
X35111757Y20574706D01*
X35168180Y20376395D01*
X35260081Y20191835D01*
X35384331Y20027301D01*
X35536696Y19888403D01*
X35536698Y19888401D01*
X35587151Y19857162D01*
X35711992Y19779864D01*
X35904246Y19705385D01*
X35904251Y19705384D01*
X35908299Y19704232D01*
X35967395Y19666958D01*
X35996959Y19603651D01*
X35987602Y19534411D01*
X35942297Y19481220D01*
X35906469Y19465188D01*
X35776727Y19430424D01*
X35776720Y19430421D01*
X35576590Y19337099D01*
X35511811Y19291742D01*
X36182553Y18621000D01*
X36178431Y18621000D01*
X36084579Y18605339D01*
X35972749Y18544820D01*
X35886629Y18451269D01*
X35835552Y18334823D01*
X35829894Y18266553D01*
X35158258Y18938189D01*
X35112901Y18873410D01*
X35019579Y18673280D01*
X35019576Y18673273D01*
X34982409Y18534563D01*
X34946044Y18474903D01*
X34883197Y18444374D01*
X34813821Y18452669D01*
X34759943Y18497154D01*
X34743367Y18532724D01*
X34742587Y18535464D01*
X34711820Y18643603D01*
X34685730Y18695998D01*
X34655275Y18757161D01*
X34619919Y18828165D01*
X34495670Y18992697D01*
X34495668Y18992700D01*
X34343303Y19131598D01*
X34343301Y19131600D01*
X34168013Y19240133D01*
X34168006Y19240137D01*
X34010511Y19301150D01*
X33975754Y19314615D01*
X33773088Y19352500D01*
X33566912Y19352500D01*
X33467203Y19333861D01*
X33364240Y19314614D01*
X33344619Y19307012D01*
X33274996Y19301150D01*
X33213256Y19333861D01*
X33212145Y19334958D01*
X32864930Y19682173D01*
X32831445Y19743496D01*
X32836429Y19813188D01*
X32878301Y19869121D01*
X32943765Y19893538D01*
X33012038Y19878686D01*
X33017874Y19875290D01*
X33171992Y19779864D01*
X33364246Y19705385D01*
X33566912Y19667500D01*
X33566914Y19667500D01*
X33773086Y19667500D01*
X33773088Y19667500D01*
X33975754Y19705385D01*
X34168008Y19779864D01*
X34343303Y19888402D01*
X34472781Y20006438D01*
X34495668Y20027301D01*
X34495670Y20027303D01*
X34619919Y20191835D01*
X34711820Y20376397D01*
X34768242Y20574703D01*
X34787266Y20780000D01*
X34768242Y20985297D01*
X34711820Y21183603D01*
X34685730Y21235998D01*
X34655276Y21297159D01*
X34619919Y21368165D01*
X34556092Y21452685D01*
X34495668Y21532700D01*
X34343303Y21671598D01*
X34343301Y21671600D01*
X34168013Y21780133D01*
X34168006Y21780137D01*
X33975750Y21854617D01*
X33971692Y21855771D01*
X33912598Y21893049D01*
X33883039Y21956359D01*
X33892400Y22025598D01*
X33937709Y22078785D01*
X33973531Y22094813D01*
X34103270Y22129576D01*
X34103284Y22129581D01*
X34303407Y22222900D01*
X34303417Y22222906D01*
X34368188Y22268259D01*
X33697447Y22939000D01*
X33701569Y22939000D01*
X33795421Y22954661D01*
X33907251Y23015180D01*
X33993371Y23108731D01*
X34044448Y23225177D01*
X34050105Y23293448D01*
X34721741Y22621812D01*
G37*
%TD.AperFunction*%
%TA.AperFunction,Conductor*%
G36*
X23312547Y24179984D02*
G01*
X23442173Y24140000D01*
X23543724Y24140000D01*
X23644138Y24155135D01*
X23760000Y24210932D01*
X23760000Y23190000D01*
X24457828Y23190000D01*
X24457844Y23190001D01*
X24517372Y23196402D01*
X24517379Y23196404D01*
X24652086Y23246646D01*
X24652093Y23246650D01*
X24767187Y23332810D01*
X24767190Y23332813D01*
X24853350Y23447907D01*
X24853354Y23447914D01*
X24903596Y23582621D01*
X24903598Y23582628D01*
X24909999Y23642156D01*
X24910000Y23642173D01*
X24910000Y23662163D01*
X24929685Y23729202D01*
X24982489Y23774957D01*
X25051647Y23784901D01*
X25115203Y23755876D01*
X25121681Y23749844D01*
X25243123Y23628402D01*
X25422361Y23502898D01*
X25620670Y23410425D01*
X25832023Y23353793D01*
X26014926Y23337792D01*
X26049998Y23334723D01*
X26050000Y23334723D01*
X26050002Y23334723D01*
X26078254Y23337195D01*
X26267977Y23353793D01*
X26479330Y23410425D01*
X26479338Y23410430D01*
X26484411Y23412275D01*
X26484949Y23410797D01*
X26546869Y23420205D01*
X26610655Y23391690D01*
X26617886Y23385011D01*
X26708630Y23294267D01*
X26717895Y23283900D01*
X26740121Y23256030D01*
X26740123Y23256028D01*
X26787363Y23223820D01*
X26791145Y23221137D01*
X26837118Y23187207D01*
X26844654Y23183224D01*
X26852319Y23179533D01*
X26852327Y23179528D01*
X26877188Y23171860D01*
X26906980Y23162670D01*
X26911371Y23161226D01*
X26965301Y23142354D01*
X26965305Y23142354D01*
X26973698Y23140766D01*
X26982095Y23139500D01*
X26982098Y23139500D01*
X27039245Y23139500D01*
X27043883Y23139413D01*
X27101009Y23137275D01*
X27101009Y23137276D01*
X27101010Y23137275D01*
X27101010Y23137276D01*
X27110242Y23138315D01*
X27110335Y23137487D01*
X27125639Y23139500D01*
X27448798Y23139500D01*
X27515837Y23119815D01*
X27561592Y23067011D01*
X27563359Y23062952D01*
X27615462Y22937162D01*
X27615463Y22937161D01*
X27615464Y22937159D01*
X27711718Y22811718D01*
X27837159Y22715464D01*
X27983238Y22654956D01*
X28100639Y22639500D01*
X29079360Y22639501D01*
X29079363Y22639501D01*
X29196753Y22654954D01*
X29196757Y22654956D01*
X29196762Y22654956D01*
X29342841Y22715464D01*
X29468282Y22811718D01*
X29564536Y22937159D01*
X29625044Y23083238D01*
X29640500Y23200639D01*
X29640499Y23873036D01*
X29660183Y23940074D01*
X29712987Y23985829D01*
X29782146Y23995773D01*
X29845702Y23966748D01*
X29852180Y23960716D01*
X32576899Y21235998D01*
X32610384Y21174675D01*
X32608485Y21114384D01*
X32571757Y20985295D01*
X32552734Y20780000D01*
X32571757Y20574706D01*
X32628180Y20376395D01*
X32720081Y20191835D01*
X32768721Y20127425D01*
X32793413Y20062063D01*
X32778848Y19993729D01*
X32729650Y19944116D01*
X32661440Y19928978D01*
X32595874Y19953120D01*
X32582086Y19965017D01*
X31741368Y20805735D01*
X31732102Y20816103D01*
X31720214Y20831010D01*
X31709879Y20843970D01*
X31709878Y20843971D01*
X31709877Y20843972D01*
X31684350Y20861376D01*
X31662633Y20876182D01*
X31658869Y20878853D01*
X31612886Y20912791D01*
X31605297Y20916802D01*
X31597675Y20920472D01*
X31543049Y20937321D01*
X31538644Y20938770D01*
X31484695Y20957648D01*
X31476326Y20959232D01*
X31467904Y20960500D01*
X31467902Y20960500D01*
X31410738Y20960500D01*
X31406101Y20960587D01*
X31404085Y20960663D01*
X31348989Y20962725D01*
X31339756Y20961684D01*
X31339662Y20962514D01*
X31324364Y20960500D01*
X29731202Y20960500D01*
X29664163Y20980185D01*
X29618408Y21032989D01*
X29616641Y21037048D01*
X29564537Y21162839D01*
X29564536Y21162840D01*
X29564536Y21162841D01*
X29468282Y21288282D01*
X29342841Y21384536D01*
X29317453Y21395052D01*
X29196762Y21445044D01*
X29196760Y21445045D01*
X29079370Y21460499D01*
X29079367Y21460500D01*
X29079361Y21460500D01*
X29079354Y21460500D01*
X28100636Y21460500D01*
X27983246Y21445047D01*
X27983237Y21445044D01*
X27837160Y21384537D01*
X27711718Y21288282D01*
X27615463Y21162840D01*
X27554956Y21016763D01*
X27554955Y21016761D01*
X27539500Y20899362D01*
X27539500Y20120637D01*
X27554953Y20003247D01*
X27554956Y20003238D01*
X27607957Y19875281D01*
X27615464Y19857159D01*
X27711718Y19731718D01*
X27837159Y19635464D01*
X27860488Y19625801D01*
X27863481Y19624561D01*
X27917884Y19580720D01*
X27939949Y19514425D01*
X27922670Y19446726D01*
X27871532Y19399116D01*
X27863481Y19395439D01*
X27837160Y19384537D01*
X27711718Y19288282D01*
X27615463Y19162840D01*
X27553500Y19013247D01*
X27509659Y18958844D01*
X27443365Y18936779D01*
X27438939Y18936700D01*
X27352599Y18936700D01*
X27285560Y18956385D01*
X27239805Y19009189D01*
X27229861Y19078347D01*
X27232824Y19092793D01*
X27272304Y19240137D01*
X27286207Y19292023D01*
X27305277Y19510000D01*
X27286207Y19727977D01*
X27251548Y19857325D01*
X27229577Y19939323D01*
X27229576Y19939324D01*
X27229575Y19939330D01*
X27137102Y20137638D01*
X27137100Y20137641D01*
X27137099Y20137643D01*
X27011599Y20316876D01*
X26940193Y20388282D01*
X26856877Y20471598D01*
X26677639Y20597102D01*
X26677640Y20597102D01*
X26677638Y20597103D01*
X26559708Y20652094D01*
X26479330Y20689575D01*
X26479326Y20689576D01*
X26479322Y20689578D01*
X26267977Y20746207D01*
X26050002Y20765277D01*
X26049998Y20765277D01*
X25904682Y20752564D01*
X25832023Y20746207D01*
X25832020Y20746207D01*
X25620677Y20689578D01*
X25620668Y20689574D01*
X25422361Y20597102D01*
X25422357Y20597100D01*
X25243121Y20471598D01*
X25121681Y20350157D01*
X25060358Y20316672D01*
X24990666Y20321656D01*
X24934733Y20363528D01*
X24910316Y20428992D01*
X24910000Y20437838D01*
X24910000Y20457828D01*
X24909999Y20457845D01*
X24903598Y20517373D01*
X24903596Y20517380D01*
X24853354Y20652087D01*
X24853350Y20652094D01*
X24767190Y20767188D01*
X24767187Y20767191D01*
X24652093Y20853351D01*
X24652086Y20853355D01*
X24517379Y20903597D01*
X24517372Y20903599D01*
X24457844Y20910000D01*
X23760000Y20910000D01*
X23760000Y19884190D01*
X23707453Y19920016D01*
X23577827Y19960000D01*
X23476276Y19960000D01*
X23375862Y19944865D01*
X23260000Y19889069D01*
X23260000Y20910000D01*
X22999000Y20910000D01*
X22931961Y20929685D01*
X22886206Y20982489D01*
X22875000Y21034000D01*
X22875000Y23066000D01*
X22894685Y23133039D01*
X22947489Y23178794D01*
X22999000Y23190000D01*
X23260000Y23190000D01*
X23260000Y24215811D01*
X23312547Y24179984D01*
G37*
%TD.AperFunction*%
%TA.AperFunction,Conductor*%
G36*
X-13273959Y54415315D02*
G01*
X-13228204Y54362511D01*
X-13218260Y54293353D01*
X-13228616Y54258594D01*
X-13240423Y54233275D01*
X-13240425Y54233271D01*
X-13297574Y54019987D01*
X-13297576Y54019977D01*
X-13316821Y53800001D01*
X-13316821Y53800000D01*
X-13297576Y53580024D01*
X-13297574Y53580014D01*
X-13240425Y53366730D01*
X-13240420Y53366716D01*
X-13147102Y53166595D01*
X-13147099Y53166589D01*
X-13101742Y53101813D01*
X-13101742Y53101812D01*
X-12434904Y53768650D01*
X-12434949Y53768102D01*
X-12403734Y53644838D01*
X-12334187Y53538388D01*
X-12233843Y53460287D01*
X-12113578Y53419000D01*
X-12077447Y53419000D01*
X-12748190Y52748260D01*
X-12683410Y52702901D01*
X-12683408Y52702900D01*
X-12483285Y52609581D01*
X-12483271Y52609576D01*
X-12269987Y52552427D01*
X-12269977Y52552425D01*
X-12050001Y52533179D01*
X-12049999Y52533179D01*
X-11830024Y52552425D01*
X-11830014Y52552427D01*
X-11616730Y52609576D01*
X-11616716Y52609581D01*
X-11416593Y52702900D01*
X-11416583Y52702906D01*
X-11351812Y52748259D01*
X-12022552Y53419000D01*
X-12018431Y53419000D01*
X-11924579Y53434661D01*
X-11812749Y53495180D01*
X-11726629Y53588731D01*
X-11675552Y53705177D01*
X-11669895Y53773448D01*
X-10998259Y53101812D01*
X-10952906Y53166583D01*
X-10952900Y53166593D01*
X-10859581Y53366716D01*
X-10859576Y53366730D01*
X-10802427Y53580014D01*
X-10802425Y53580024D01*
X-10783179Y53800000D01*
X-10783179Y53800001D01*
X-10802425Y54019977D01*
X-10802427Y54019987D01*
X-10859576Y54233271D01*
X-10859578Y54233275D01*
X-10871384Y54258594D01*
X-10881876Y54327672D01*
X-10853357Y54391456D01*
X-10794881Y54429696D01*
X-10759002Y54435000D01*
X1899002Y54435000D01*
X1966041Y54415315D01*
X2011796Y54362511D01*
X2021740Y54293353D01*
X2011384Y54258594D01*
X1999577Y54233275D01*
X1999575Y54233271D01*
X1942426Y54019987D01*
X1942424Y54019977D01*
X1923179Y53800001D01*
X1923179Y53800000D01*
X1942424Y53580024D01*
X1942426Y53580014D01*
X1999575Y53366730D01*
X1999580Y53366716D01*
X2092898Y53166595D01*
X2092901Y53166589D01*
X2138258Y53101813D01*
X2138258Y53101812D01*
X2805096Y53768650D01*
X2805051Y53768102D01*
X2836266Y53644838D01*
X2905813Y53538388D01*
X3006157Y53460287D01*
X3126422Y53419000D01*
X3162553Y53419000D01*
X2491810Y52748260D01*
X2556590Y52702901D01*
X2556592Y52702900D01*
X2756715Y52609581D01*
X2756729Y52609576D01*
X2970013Y52552427D01*
X2970023Y52552425D01*
X3189999Y52533179D01*
X3190001Y52533179D01*
X3409976Y52552425D01*
X3409986Y52552427D01*
X3623270Y52609576D01*
X3623284Y52609581D01*
X3823407Y52702900D01*
X3823417Y52702906D01*
X3888188Y52748259D01*
X3217448Y53419000D01*
X3221569Y53419000D01*
X3315421Y53434661D01*
X3427251Y53495180D01*
X3513371Y53588731D01*
X3564448Y53705177D01*
X3570105Y53773448D01*
X4241741Y53101812D01*
X4287094Y53166583D01*
X4287100Y53166593D01*
X4380419Y53366716D01*
X4380424Y53366730D01*
X4437573Y53580014D01*
X4437575Y53580024D01*
X4456821Y53800000D01*
X4456821Y53800001D01*
X4437575Y54019977D01*
X4437573Y54019987D01*
X4380424Y54233271D01*
X4380422Y54233275D01*
X4368616Y54258594D01*
X4358124Y54327672D01*
X4386643Y54391456D01*
X4445119Y54429696D01*
X4480998Y54435000D01*
X6937073Y54435000D01*
X7004112Y54415315D01*
X7049867Y54362511D01*
X7059811Y54293353D01*
X7049455Y54258594D01*
X7043732Y54246322D01*
X7043730Y54246318D01*
X6991127Y54050001D01*
X6991128Y54050000D01*
X7954314Y54050000D01*
X7942359Y54038045D01*
X7884835Y53925148D01*
X7865014Y53800000D01*
X7884835Y53674852D01*
X7942359Y53561955D01*
X7954314Y53550000D01*
X6991128Y53550000D01*
X7043730Y53353683D01*
X7043734Y53353674D01*
X7139865Y53147518D01*
X7270342Y52961180D01*
X7431179Y52800343D01*
X7617517Y52669866D01*
X7823673Y52573735D01*
X7823682Y52573731D01*
X8019999Y52521128D01*
X8020000Y52521129D01*
X8020000Y53484314D01*
X8031955Y53472359D01*
X8144852Y53414835D01*
X8238519Y53400000D01*
X8301481Y53400000D01*
X8395148Y53414835D01*
X8508045Y53472359D01*
X8520000Y53484314D01*
X8520000Y52521128D01*
X8716317Y52573731D01*
X8716326Y52573735D01*
X8922482Y52669866D01*
X9108820Y52800343D01*
X9269657Y52961180D01*
X9400134Y53147519D01*
X9400135Y53147521D01*
X9427618Y53206457D01*
X9473790Y53258897D01*
X9540983Y53278049D01*
X9607864Y53257834D01*
X9652382Y53206457D01*
X9679864Y53147521D01*
X9679865Y53147519D01*
X9810342Y52961180D01*
X9971179Y52800343D01*
X10157517Y52669866D01*
X10363673Y52573735D01*
X10363682Y52573731D01*
X10559999Y52521128D01*
X10560000Y52521129D01*
X10560000Y53484314D01*
X10571955Y53472359D01*
X10684852Y53414835D01*
X10778519Y53400000D01*
X10841481Y53400000D01*
X10935148Y53414835D01*
X11048045Y53472359D01*
X11060000Y53484314D01*
X11060000Y52521128D01*
X11256317Y52573731D01*
X11256326Y52573735D01*
X11462482Y52669866D01*
X11648820Y52800343D01*
X11809657Y52961180D01*
X11940134Y53147519D01*
X11940135Y53147521D01*
X11967618Y53206457D01*
X12013790Y53258897D01*
X12080983Y53278049D01*
X12147864Y53257834D01*
X12192382Y53206457D01*
X12219864Y53147521D01*
X12219865Y53147519D01*
X12350342Y52961180D01*
X12511179Y52800343D01*
X12697517Y52669866D01*
X12903673Y52573735D01*
X12903682Y52573731D01*
X13099999Y52521128D01*
X13100000Y52521129D01*
X13100000Y53484314D01*
X13111955Y53472359D01*
X13224852Y53414835D01*
X13318519Y53400000D01*
X13381481Y53400000D01*
X13475148Y53414835D01*
X13588045Y53472359D01*
X13600000Y53484314D01*
X13600000Y52521128D01*
X13796317Y52573731D01*
X13796326Y52573735D01*
X14002482Y52669866D01*
X14188820Y52800343D01*
X14349657Y52961180D01*
X14480134Y53147519D01*
X14480135Y53147521D01*
X14507618Y53206457D01*
X14553790Y53258897D01*
X14620983Y53278049D01*
X14687864Y53257834D01*
X14732382Y53206457D01*
X14759864Y53147521D01*
X14759865Y53147519D01*
X14890342Y52961180D01*
X15051179Y52800343D01*
X15237517Y52669866D01*
X15443673Y52573735D01*
X15443682Y52573731D01*
X15639999Y52521128D01*
X15640000Y52521129D01*
X15640000Y53484314D01*
X15651955Y53472359D01*
X15764852Y53414835D01*
X15858519Y53400000D01*
X15921481Y53400000D01*
X16015148Y53414835D01*
X16128045Y53472359D01*
X16140000Y53484314D01*
X16140000Y52521128D01*
X16336317Y52573731D01*
X16336326Y52573735D01*
X16542482Y52669866D01*
X16728820Y52800343D01*
X16889657Y52961180D01*
X17020134Y53147519D01*
X17020135Y53147521D01*
X17047618Y53206457D01*
X17093790Y53258897D01*
X17160983Y53278049D01*
X17227864Y53257834D01*
X17272382Y53206457D01*
X17299864Y53147521D01*
X17299865Y53147519D01*
X17430342Y52961180D01*
X17591179Y52800343D01*
X17777517Y52669866D01*
X17983673Y52573735D01*
X17983682Y52573731D01*
X18179999Y52521128D01*
X18180000Y52521129D01*
X18180000Y53484314D01*
X18191955Y53472359D01*
X18304852Y53414835D01*
X18398519Y53400000D01*
X18461481Y53400000D01*
X18555148Y53414835D01*
X18668045Y53472359D01*
X18680000Y53484314D01*
X18680000Y52521128D01*
X18876317Y52573731D01*
X18876326Y52573735D01*
X19082482Y52669866D01*
X19268820Y52800343D01*
X19429657Y52961180D01*
X19560134Y53147519D01*
X19560135Y53147521D01*
X19587618Y53206457D01*
X19633790Y53258897D01*
X19700983Y53278049D01*
X19767864Y53257834D01*
X19812382Y53206457D01*
X19839864Y53147521D01*
X19839865Y53147519D01*
X19970342Y52961180D01*
X20131179Y52800343D01*
X20317517Y52669866D01*
X20523673Y52573735D01*
X20523682Y52573731D01*
X20719999Y52521128D01*
X20720000Y52521129D01*
X20720000Y53484314D01*
X20731955Y53472359D01*
X20844852Y53414835D01*
X20938519Y53400000D01*
X21001481Y53400000D01*
X21095148Y53414835D01*
X21208045Y53472359D01*
X21220000Y53484314D01*
X21220000Y52521128D01*
X21253107Y52529999D01*
X27284532Y52529999D01*
X27304364Y52303314D01*
X27304366Y52303303D01*
X27363258Y52083512D01*
X27363261Y52083503D01*
X27459431Y51877268D01*
X27459432Y51877266D01*
X27589954Y51690859D01*
X27750858Y51529955D01*
X27750861Y51529953D01*
X27937266Y51399432D01*
X28143504Y51303261D01*
X28363308Y51244365D01*
X28533214Y51229501D01*
X28533215Y51229500D01*
X28533216Y51229500D01*
X28646785Y51229500D01*
X28646785Y51229501D01*
X28816692Y51244365D01*
X29036496Y51303261D01*
X29242734Y51399432D01*
X29429139Y51529953D01*
X29590047Y51690861D01*
X29720568Y51877266D01*
X29816739Y52083504D01*
X29875635Y52303308D01*
X29895468Y52530000D01*
X29875635Y52756692D01*
X29816739Y52976496D01*
X29720568Y53182734D01*
X29590047Y53369139D01*
X29590045Y53369142D01*
X29429141Y53530046D01*
X29242734Y53660568D01*
X29242732Y53660569D01*
X29036497Y53756739D01*
X29036488Y53756742D01*
X28816697Y53815634D01*
X28816687Y53815636D01*
X28646785Y53830500D01*
X28646784Y53830500D01*
X28533216Y53830500D01*
X28533215Y53830500D01*
X28363312Y53815636D01*
X28363302Y53815634D01*
X28143511Y53756742D01*
X28143502Y53756739D01*
X27937267Y53660569D01*
X27937265Y53660568D01*
X27750858Y53530046D01*
X27589954Y53369142D01*
X27459432Y53182735D01*
X27459431Y53182733D01*
X27363261Y52976498D01*
X27363258Y52976489D01*
X27304366Y52756698D01*
X27304364Y52756687D01*
X27284532Y52530002D01*
X27284532Y52529999D01*
X21253107Y52529999D01*
X21416317Y52573731D01*
X21416326Y52573735D01*
X21622482Y52669866D01*
X21808820Y52800343D01*
X21969657Y52961180D01*
X22100134Y53147518D01*
X22196265Y53353674D01*
X22196269Y53353683D01*
X22248872Y53550000D01*
X21285686Y53550000D01*
X21297641Y53561955D01*
X21355165Y53674852D01*
X21374986Y53800000D01*
X21355165Y53925148D01*
X21297641Y54038045D01*
X21285686Y54050000D01*
X22248872Y54050000D01*
X22248872Y54050001D01*
X22196269Y54246318D01*
X22196267Y54246322D01*
X22190545Y54258594D01*
X22180053Y54327671D01*
X22208572Y54391456D01*
X22267048Y54429696D01*
X22302927Y54435000D01*
X32543135Y54435000D01*
X32610174Y54415315D01*
X32655929Y54362511D01*
X32665873Y54293353D01*
X32654135Y54255728D01*
X32628180Y54203605D01*
X32571757Y54005295D01*
X32552734Y53800000D01*
X32571757Y53594706D01*
X32608485Y53465618D01*
X32607897Y53395751D01*
X32576899Y53344004D01*
X25899716Y46666819D01*
X25838393Y46633334D01*
X25812035Y46630500D01*
X22107695Y46630500D01*
X22040656Y46650185D01*
X21996696Y46699226D01*
X21952366Y46788255D01*
X21823872Y46958407D01*
X21666302Y47102052D01*
X21485019Y47214298D01*
X21485017Y47214299D01*
X21385608Y47252810D01*
X21286198Y47291321D01*
X21076610Y47330500D01*
X20863390Y47330500D01*
X20653802Y47291321D01*
X20653799Y47291321D01*
X20653799Y47291320D01*
X20454982Y47214299D01*
X20454980Y47214298D01*
X20273699Y47102053D01*
X20116127Y46958407D01*
X19987632Y46788254D01*
X19892596Y46597395D01*
X19892596Y46597393D01*
X19834244Y46392311D01*
X19823471Y46276049D01*
X19797685Y46211112D01*
X19753130Y46179196D01*
X19789503Y46158332D01*
X19821693Y46096319D01*
X19823470Y46083953D01*
X19834244Y45967690D01*
X19892595Y45762611D01*
X19958518Y45630219D01*
X19970778Y45561434D01*
X19943905Y45496939D01*
X19886428Y45457211D01*
X19816598Y45454865D01*
X19759836Y45487267D01*
X19553856Y45693247D01*
X19520371Y45754570D01*
X19522270Y45814859D01*
X19565756Y45967690D01*
X19576529Y46083953D01*
X19602315Y46148889D01*
X19646869Y46180806D01*
X19610497Y46201669D01*
X19578307Y46263682D01*
X19576529Y46276049D01*
X19572029Y46324613D01*
X19565756Y46392310D01*
X19507405Y46597389D01*
X19507403Y46597394D01*
X19507403Y46597395D01*
X19412367Y46788254D01*
X19283872Y46958407D01*
X19126302Y47102052D01*
X18945019Y47214298D01*
X18945017Y47214299D01*
X18845608Y47252810D01*
X18746198Y47291321D01*
X18536610Y47330500D01*
X18323390Y47330500D01*
X18113802Y47291321D01*
X18113799Y47291321D01*
X18113799Y47291320D01*
X17914982Y47214299D01*
X17914980Y47214298D01*
X17733699Y47102053D01*
X17576127Y46958407D01*
X17447632Y46788254D01*
X17352596Y46597395D01*
X17352596Y46597393D01*
X17294244Y46392311D01*
X17283471Y46276049D01*
X17257685Y46211112D01*
X17213130Y46179196D01*
X17249503Y46158332D01*
X17281693Y46096319D01*
X17283470Y46083953D01*
X17294244Y45967690D01*
X17352595Y45762611D01*
X17418518Y45630219D01*
X17430778Y45561434D01*
X17403905Y45496939D01*
X17346428Y45457211D01*
X17276598Y45454865D01*
X17219836Y45487267D01*
X17013856Y45693247D01*
X16980371Y45754570D01*
X16982270Y45814859D01*
X17025756Y45967690D01*
X17036529Y46083953D01*
X17062315Y46148889D01*
X17106869Y46180806D01*
X17070497Y46201669D01*
X17038307Y46263682D01*
X17036529Y46276049D01*
X17032029Y46324613D01*
X17025756Y46392310D01*
X16967405Y46597389D01*
X16967403Y46597394D01*
X16967403Y46597395D01*
X16872367Y46788254D01*
X16743872Y46958407D01*
X16586302Y47102052D01*
X16405019Y47214298D01*
X16405017Y47214299D01*
X16305608Y47252810D01*
X16206198Y47291321D01*
X15996610Y47330500D01*
X15783390Y47330500D01*
X15573802Y47291321D01*
X15573799Y47291321D01*
X15573799Y47291320D01*
X15374982Y47214299D01*
X15374980Y47214298D01*
X15193699Y47102053D01*
X15036127Y46958407D01*
X14907632Y46788254D01*
X14812596Y46597395D01*
X14812596Y46597393D01*
X14754244Y46392311D01*
X14743471Y46276049D01*
X14717685Y46211112D01*
X14673130Y46179196D01*
X14709503Y46158332D01*
X14741693Y46096319D01*
X14743470Y46083953D01*
X14754244Y45967690D01*
X14812595Y45762611D01*
X14878518Y45630219D01*
X14890778Y45561434D01*
X14863905Y45496939D01*
X14806428Y45457211D01*
X14736598Y45454865D01*
X14679836Y45487267D01*
X14473856Y45693247D01*
X14440371Y45754570D01*
X14442270Y45814859D01*
X14485756Y45967690D01*
X14496529Y46083953D01*
X14522315Y46148889D01*
X14566869Y46180806D01*
X14530497Y46201669D01*
X14498307Y46263682D01*
X14496529Y46276049D01*
X14492029Y46324613D01*
X14485756Y46392310D01*
X14427405Y46597389D01*
X14427403Y46597394D01*
X14427403Y46597395D01*
X14332367Y46788254D01*
X14203872Y46958407D01*
X14046302Y47102052D01*
X13865019Y47214298D01*
X13865017Y47214299D01*
X13765608Y47252810D01*
X13666198Y47291321D01*
X13456610Y47330500D01*
X13243390Y47330500D01*
X13033802Y47291321D01*
X13033799Y47291321D01*
X13033799Y47291320D01*
X12834982Y47214299D01*
X12834980Y47214298D01*
X12653699Y47102053D01*
X12496127Y46958407D01*
X12367632Y46788254D01*
X12272596Y46597395D01*
X12272596Y46597393D01*
X12214244Y46392311D01*
X12203471Y46276049D01*
X12177685Y46211112D01*
X12133130Y46179196D01*
X12169503Y46158332D01*
X12201693Y46096319D01*
X12203470Y46083953D01*
X12214244Y45967690D01*
X12272595Y45762611D01*
X12338518Y45630219D01*
X12350778Y45561434D01*
X12323905Y45496939D01*
X12266428Y45457211D01*
X12196598Y45454865D01*
X12139836Y45487267D01*
X11933856Y45693247D01*
X11900371Y45754570D01*
X11902270Y45814859D01*
X11945756Y45967690D01*
X11956529Y46083953D01*
X11982315Y46148889D01*
X12026869Y46180806D01*
X11990497Y46201669D01*
X11958307Y46263682D01*
X11956529Y46276049D01*
X11952029Y46324613D01*
X11945756Y46392310D01*
X11887405Y46597389D01*
X11887403Y46597394D01*
X11887403Y46597395D01*
X11792367Y46788254D01*
X11663872Y46958407D01*
X11506302Y47102052D01*
X11325019Y47214298D01*
X11325017Y47214299D01*
X11225608Y47252810D01*
X11126198Y47291321D01*
X10916610Y47330500D01*
X10703390Y47330500D01*
X10493802Y47291321D01*
X10493799Y47291321D01*
X10493799Y47291320D01*
X10294982Y47214299D01*
X10294980Y47214298D01*
X10113699Y47102053D01*
X9956127Y46958407D01*
X9827632Y46788254D01*
X9732596Y46597395D01*
X9732596Y46597393D01*
X9674244Y46392311D01*
X9667971Y46324613D01*
X9642185Y46259676D01*
X9585384Y46218988D01*
X9515604Y46215468D01*
X9454997Y46250233D01*
X9422807Y46312246D01*
X9420500Y46336054D01*
X9420500Y47013261D01*
X9410573Y47081392D01*
X9410573Y47081393D01*
X9359198Y47186483D01*
X9359196Y47186485D01*
X9359196Y47186486D01*
X9276485Y47269197D01*
X9270039Y47272348D01*
X9171393Y47320573D01*
X9171391Y47320574D01*
X9103261Y47330500D01*
X9103260Y47330500D01*
X7436740Y47330500D01*
X7436739Y47330500D01*
X7368608Y47320574D01*
X7263514Y47269197D01*
X7180803Y47186486D01*
X7129426Y47081392D01*
X7119500Y47013261D01*
X7119500Y45346740D01*
X7129426Y45278609D01*
X7180803Y45173515D01*
X7263514Y45090804D01*
X7263515Y45090804D01*
X7263517Y45090802D01*
X7368607Y45039427D01*
X7402673Y45034464D01*
X7436739Y45029500D01*
X7436740Y45029500D01*
X8732034Y45029500D01*
X8799073Y45009815D01*
X8819715Y44993181D01*
X18088630Y35724267D01*
X18097895Y35713900D01*
X18120121Y35686030D01*
X18120123Y35686028D01*
X18167363Y35653820D01*
X18171145Y35651137D01*
X18217118Y35617207D01*
X18224654Y35613224D01*
X18232319Y35609533D01*
X18232327Y35609528D01*
X18257188Y35601860D01*
X18286980Y35592670D01*
X18291371Y35591226D01*
X18345301Y35572354D01*
X18345305Y35572354D01*
X18353698Y35570766D01*
X18362095Y35569500D01*
X18362098Y35569500D01*
X18419245Y35569500D01*
X18423883Y35569413D01*
X18481009Y35567275D01*
X18481009Y35567276D01*
X18481010Y35567275D01*
X18481010Y35567276D01*
X18490242Y35568315D01*
X18490335Y35567487D01*
X18505639Y35569500D01*
X32574754Y35569500D01*
X32641793Y35549815D01*
X32685754Y35500772D01*
X32720081Y35431835D01*
X32844331Y35267301D01*
X32996696Y35128403D01*
X32996698Y35128401D01*
X33056509Y35091368D01*
X33171992Y35019864D01*
X33364246Y34945385D01*
X33566912Y34907500D01*
X33566914Y34907500D01*
X33773086Y34907500D01*
X33773088Y34907500D01*
X33975754Y34945385D01*
X34168008Y35019864D01*
X34343303Y35128402D01*
X34495514Y35267161D01*
X34495668Y35267301D01*
X34495670Y35267303D01*
X34619919Y35431835D01*
X34711820Y35616397D01*
X34768242Y35814703D01*
X34787266Y36020000D01*
X34768242Y36225297D01*
X34711820Y36423603D01*
X34619919Y36608165D01*
X34533897Y36722076D01*
X34495668Y36772700D01*
X34343303Y36911598D01*
X34343301Y36911600D01*
X34168013Y37020133D01*
X34168006Y37020137D01*
X34059735Y37062081D01*
X33975754Y37094615D01*
X33773088Y37132500D01*
X33566912Y37132500D01*
X33364246Y37094615D01*
X33364243Y37094615D01*
X33364243Y37094614D01*
X33171993Y37020137D01*
X33171986Y37020133D01*
X32996698Y36911600D01*
X32996696Y36911598D01*
X32844331Y36772700D01*
X32720081Y36608166D01*
X32685754Y36539228D01*
X32638251Y36487991D01*
X32574754Y36470500D01*
X18667965Y36470500D01*
X18600926Y36490185D01*
X18580284Y36506819D01*
X10122292Y44964811D01*
X10088807Y45026134D01*
X10093791Y45095826D01*
X10135663Y45151759D01*
X10201127Y45176176D01*
X10269400Y45161324D01*
X10275251Y45157918D01*
X10294972Y45145707D01*
X10294976Y45145705D01*
X10294981Y45145702D01*
X10493802Y45068679D01*
X10703390Y45029500D01*
X10703392Y45029500D01*
X10916608Y45029500D01*
X10916610Y45029500D01*
X11126198Y45068679D01*
X11164752Y45083616D01*
X11234372Y45089478D01*
X11296113Y45056769D01*
X11297226Y45055670D01*
X18088634Y38264262D01*
X18097899Y38253895D01*
X18116215Y38230927D01*
X18120121Y38226030D01*
X18143215Y38210285D01*
X18167351Y38193829D01*
X18171128Y38191149D01*
X18217117Y38157207D01*
X18217119Y38157206D01*
X18224666Y38153217D01*
X18232326Y38149528D01*
X18286954Y38132679D01*
X18291358Y38131230D01*
X18345300Y38112354D01*
X18345304Y38112354D01*
X18353694Y38110767D01*
X18362095Y38109500D01*
X18362098Y38109500D01*
X18419261Y38109500D01*
X18423898Y38109413D01*
X18481009Y38107276D01*
X18481009Y38107277D01*
X18481010Y38107276D01*
X18481010Y38107277D01*
X18490243Y38108316D01*
X18490336Y38107487D01*
X18505636Y38109500D01*
X32574754Y38109500D01*
X32641793Y38089815D01*
X32685754Y38040772D01*
X32720081Y37971835D01*
X32844331Y37807301D01*
X32996696Y37668403D01*
X32996698Y37668401D01*
X33033782Y37645440D01*
X33171992Y37559864D01*
X33364246Y37485385D01*
X33566912Y37447500D01*
X33566914Y37447500D01*
X33773086Y37447500D01*
X33773088Y37447500D01*
X33975754Y37485385D01*
X34168008Y37559864D01*
X34343303Y37668402D01*
X34495670Y37807303D01*
X34619919Y37971835D01*
X34711820Y38156397D01*
X34743368Y38267279D01*
X34780646Y38326371D01*
X34843955Y38355929D01*
X34913195Y38346568D01*
X34966382Y38301258D01*
X34982409Y38265438D01*
X35019576Y38126727D01*
X35019580Y38126716D01*
X35112898Y37926595D01*
X35112901Y37926589D01*
X35158258Y37861813D01*
X35158259Y37861812D01*
X35825096Y38528650D01*
X35825051Y38528102D01*
X35856266Y38404838D01*
X35925813Y38298388D01*
X36026157Y38220287D01*
X36146422Y38179000D01*
X36182551Y38179000D01*
X35511810Y37508260D01*
X35576590Y37462901D01*
X35576592Y37462900D01*
X35776715Y37369581D01*
X35776729Y37369576D01*
X35906468Y37334813D01*
X35966129Y37298448D01*
X35996658Y37235602D01*
X35988364Y37166226D01*
X35943878Y37112348D01*
X35908310Y37095772D01*
X35904252Y37094618D01*
X35711993Y37020137D01*
X35711986Y37020133D01*
X35536698Y36911600D01*
X35536696Y36911598D01*
X35384331Y36772700D01*
X35260081Y36608166D01*
X35168180Y36423606D01*
X35111757Y36225295D01*
X35092734Y36020000D01*
X35111757Y35814706D01*
X35168180Y35616395D01*
X35260081Y35431835D01*
X35384331Y35267301D01*
X35536696Y35128403D01*
X35536698Y35128401D01*
X35596509Y35091368D01*
X35711992Y35019864D01*
X35904246Y34945385D01*
X36106912Y34907500D01*
X36106914Y34907500D01*
X36313086Y34907500D01*
X36313088Y34907500D01*
X36515754Y34945385D01*
X36676206Y35007545D01*
X36745829Y35013407D01*
X36807569Y34980697D01*
X36841824Y34919801D01*
X36845000Y34891918D01*
X36845000Y34608083D01*
X36825315Y34541044D01*
X36772511Y34495289D01*
X36703353Y34485345D01*
X36676206Y34492456D01*
X36668893Y34495289D01*
X36515754Y34554615D01*
X36313088Y34592500D01*
X36106912Y34592500D01*
X35904246Y34554615D01*
X35904243Y34554615D01*
X35904243Y34554614D01*
X35711993Y34480137D01*
X35711986Y34480133D01*
X35536698Y34371600D01*
X35536696Y34371598D01*
X35384331Y34232700D01*
X35260081Y34068166D01*
X35168180Y33883606D01*
X35111757Y33685295D01*
X35092734Y33480000D01*
X35111757Y33274706D01*
X35168180Y33076395D01*
X35260081Y32891835D01*
X35384331Y32727301D01*
X35536696Y32588403D01*
X35536698Y32588401D01*
X35579895Y32561655D01*
X35711992Y32479864D01*
X35904246Y32405385D01*
X36106912Y32367500D01*
X36106914Y32367500D01*
X36313086Y32367500D01*
X36313088Y32367500D01*
X36515754Y32405385D01*
X36676206Y32467545D01*
X36745829Y32473407D01*
X36807569Y32440697D01*
X36841824Y32379801D01*
X36845000Y32351918D01*
X36845000Y32068083D01*
X36825315Y32001044D01*
X36772511Y31955289D01*
X36703353Y31945345D01*
X36676206Y31952456D01*
X36668893Y31955289D01*
X36515754Y32014615D01*
X36313088Y32052500D01*
X36106912Y32052500D01*
X35904246Y32014615D01*
X35904243Y32014615D01*
X35904243Y32014614D01*
X35711993Y31940137D01*
X35711986Y31940133D01*
X35536698Y31831600D01*
X35536696Y31831598D01*
X35384331Y31692700D01*
X35260081Y31528166D01*
X35168180Y31343605D01*
X35168177Y31343599D01*
X35136631Y31232723D01*
X35099352Y31173629D01*
X35036042Y31144072D01*
X34966803Y31153434D01*
X34913616Y31198744D01*
X34897590Y31234564D01*
X34860424Y31373271D01*
X34860420Y31373280D01*
X34767096Y31573414D01*
X34721741Y31638189D01*
X34721740Y31638190D01*
X34054903Y30971352D01*
X34054949Y30971898D01*
X34023734Y31095162D01*
X33954187Y31201612D01*
X33853843Y31279713D01*
X33733578Y31321000D01*
X33697448Y31321000D01*
X34368188Y31991741D01*
X34368187Y31991742D01*
X34303411Y32037099D01*
X34303405Y32037102D01*
X34103284Y32130420D01*
X34103273Y32130424D01*
X33973530Y32165188D01*
X33913870Y32201553D01*
X33883341Y32264400D01*
X33891636Y32333776D01*
X33936121Y32387654D01*
X33971703Y32404233D01*
X33975743Y32405384D01*
X33975754Y32405385D01*
X34168008Y32479864D01*
X34343303Y32588402D01*
X34495670Y32727303D01*
X34619919Y32891835D01*
X34711820Y33076397D01*
X34768242Y33274703D01*
X34787266Y33480000D01*
X34768242Y33685297D01*
X34711820Y33883603D01*
X34619919Y34068165D01*
X34495670Y34232697D01*
X34495668Y34232700D01*
X34343303Y34371598D01*
X34343301Y34371600D01*
X34168013Y34480133D01*
X34168006Y34480137D01*
X34059128Y34522316D01*
X33975754Y34554615D01*
X33773088Y34592500D01*
X33566912Y34592500D01*
X33364246Y34554615D01*
X33364243Y34554615D01*
X33364243Y34554614D01*
X33171993Y34480137D01*
X33171986Y34480133D01*
X32996698Y34371600D01*
X32996696Y34371598D01*
X32844331Y34232700D01*
X32720081Y34068166D01*
X32685754Y33999228D01*
X32638251Y33947991D01*
X32574754Y33930500D01*
X2157965Y33930500D01*
X2090926Y33950185D01*
X2070284Y33966819D01*
X-857487Y36894590D01*
X-890972Y36955913D01*
X-885989Y37025602D01*
X-883409Y37032517D01*
X-877000Y37092127D01*
X-877001Y37487872D01*
X-883409Y37547483D01*
X-887445Y37558303D01*
X-933703Y37682329D01*
X-933707Y37682336D01*
X-1019953Y37797545D01*
X-1019956Y37797548D01*
X-1135165Y37883794D01*
X-1135172Y37883798D01*
X-1270018Y37934092D01*
X-1270017Y37934092D01*
X-1329617Y37940499D01*
X-1329619Y37940500D01*
X-1329627Y37940500D01*
X-1329636Y37940500D01*
X-2450371Y37940500D01*
X-2450377Y37940499D01*
X-2509984Y37934092D01*
X-2644829Y37883798D01*
X-2644836Y37883794D01*
X-2760045Y37797548D01*
X-2760048Y37797545D01*
X-2846294Y37682336D01*
X-2846298Y37682329D01*
X-2896590Y37547487D01*
X-2896591Y37547483D01*
X-2903000Y37487873D01*
X-2903000Y37487866D01*
X-2903000Y37487865D01*
X-2903000Y37092130D01*
X-2902999Y37092124D01*
X-2896592Y37032517D01*
X-2894013Y37025604D01*
X-2889029Y36955912D01*
X-2922514Y36894591D01*
X-2977712Y36839393D01*
X-3039035Y36805908D01*
X-3108727Y36810892D01*
X-3164660Y36852764D01*
X-3189077Y36918228D01*
X-3181576Y36970405D01*
X-3158409Y37032517D01*
X-3152000Y37092127D01*
X-3152001Y37487872D01*
X-3158409Y37547483D01*
X-3159793Y37551194D01*
X-3162444Y37558303D01*
X-3167429Y37627994D01*
X-3138326Y37681297D01*
X-3139597Y37682283D01*
X-3134814Y37688450D01*
X-3051219Y37829802D01*
X-3005400Y37987514D01*
X-3005205Y37989999D01*
X-3005205Y37990000D01*
X-5324795Y37990000D01*
X-5324796Y37989999D01*
X-5324601Y37987512D01*
X-5298913Y37899094D01*
X-5299113Y37829225D01*
X-5337056Y37770555D01*
X-5400694Y37741712D01*
X-5417990Y37740500D01*
X-6623202Y37740500D01*
X-6690241Y37760185D01*
X-6735996Y37812989D01*
X-6745940Y37882147D01*
X-6716915Y37945703D01*
X-6680832Y37974295D01*
X-6596329Y38018645D01*
X-6477633Y38123801D01*
X-6387551Y38254307D01*
X-6331318Y38402579D01*
X-6314502Y38541076D01*
X-6286880Y38605253D01*
X-6279087Y38613811D01*
X-6189715Y38703182D01*
X-6128391Y38736666D01*
X-6102034Y38739500D01*
X-5417990Y38739500D01*
X-5350951Y38719815D01*
X-5305196Y38667011D01*
X-5295252Y38597853D01*
X-5298913Y38580906D01*
X-5324601Y38492489D01*
X-5324796Y38490002D01*
X-5324795Y38490000D01*
X-3005205Y38490000D01*
X-3005205Y38490002D01*
X-3005400Y38492487D01*
X-3051219Y38650199D01*
X-3134815Y38791553D01*
X-3139600Y38797722D01*
X-3138327Y38798710D01*
X-3167429Y38852007D01*
X-3162446Y38921696D01*
X-3158409Y38932517D01*
X-3152000Y38992127D01*
X-3152001Y39167901D01*
X-3132317Y39234939D01*
X-3079513Y39280694D01*
X-3028001Y39291900D01*
X-3027000Y39291900D01*
X-2959961Y39272215D01*
X-2914206Y39219411D01*
X-2903000Y39167901D01*
X-2903000Y38992131D01*
X-2902999Y38992124D01*
X-2896592Y38932517D01*
X-2846298Y38797672D01*
X-2846294Y38797665D01*
X-2760048Y38682456D01*
X-2760045Y38682453D01*
X-2644836Y38596207D01*
X-2644829Y38596203D01*
X-2618435Y38586359D01*
X-2509983Y38545909D01*
X-2450373Y38539500D01*
X-1986620Y38539501D01*
X-1986610Y38539500D01*
X-1972177Y38539500D01*
X-75505Y38539500D01*
X-59495Y38537733D01*
X-59472Y38537974D01*
X-51711Y38537242D01*
X-51704Y38537240D01*
X18262Y38539440D01*
X22157Y38539500D01*
X3509192Y38539500D01*
X3576231Y38519815D01*
X3596873Y38503181D01*
X5210450Y36889605D01*
X5224817Y36872367D01*
X5237630Y36853804D01*
X5237637Y36853797D01*
X5356324Y36748649D01*
X5356329Y36748645D01*
X5378308Y36737109D01*
X5395113Y36726302D01*
X5396234Y36725639D01*
X5396237Y36725637D01*
X5412041Y36718798D01*
X5414366Y36717792D01*
X5422728Y36713796D01*
X5496742Y36674950D01*
X5525313Y36667909D01*
X5544884Y36661312D01*
X5547074Y36660364D01*
X5566650Y36657264D01*
X5576891Y36655195D01*
X5650711Y36637000D01*
X5684828Y36637000D01*
X5704226Y36635474D01*
X5709405Y36634653D01*
X5726901Y36636307D01*
X5728415Y36636450D01*
X5740084Y36637000D01*
X5809291Y36637000D01*
X5809291Y36637001D01*
X5833758Y36643032D01*
X5847094Y36646318D01*
X5865106Y36649372D01*
X5866737Y36649527D01*
X5873029Y36650121D01*
X5889777Y36656152D01*
X5902092Y36659875D01*
X5963258Y36674950D01*
X6002124Y36695350D01*
X6017747Y36702222D01*
X6020499Y36703214D01*
X6027668Y36705794D01*
X6040982Y36714843D01*
X6053033Y36722069D01*
X6103671Y36748645D01*
X6140373Y36781163D01*
X6152902Y36790904D01*
X6155118Y36792411D01*
X6163602Y36798175D01*
X6172894Y36808715D01*
X6183685Y36819532D01*
X6222362Y36853797D01*
X6222367Y36853801D01*
X6253263Y36898565D01*
X6262297Y36910124D01*
X6272292Y36921459D01*
X6277635Y36931948D01*
X6286065Y36946086D01*
X6312449Y36984307D01*
X6333736Y37040437D01*
X6339192Y37052758D01*
X6340357Y37055044D01*
X6346908Y37067900D01*
X6348933Y37076965D01*
X6354001Y37093871D01*
X6368682Y37132579D01*
X6376642Y37198144D01*
X6378724Y37210241D01*
X6382760Y37228296D01*
X6382552Y37234915D01*
X6383395Y37253756D01*
X6385246Y37269002D01*
X6387796Y37290000D01*
X6379051Y37362014D01*
X6378211Y37373040D01*
X6377598Y37392569D01*
X6376528Y37396249D01*
X6372508Y37415905D01*
X6368682Y37447421D01*
X6368681Y37447423D01*
X6353338Y37487877D01*
X6340427Y37521920D01*
X6337291Y37531303D01*
X6331746Y37550392D01*
X6331745Y37550393D01*
X6331744Y37550398D01*
X6331266Y37551206D01*
X6322063Y37570342D01*
X6312449Y37595693D01*
X6262604Y37667905D01*
X6257922Y37675223D01*
X6250100Y37688450D01*
X6248081Y37691865D01*
X6248077Y37691869D01*
X6244792Y37696104D01*
X6235175Y37707644D01*
X6222371Y37726194D01*
X6222362Y37726204D01*
X6149606Y37790660D01*
X6144152Y37795794D01*
X4350434Y39589512D01*
X4340361Y39602086D01*
X4340174Y39601930D01*
X4335198Y39607946D01*
X4284167Y39655866D01*
X4281369Y39658577D01*
X4261035Y39678911D01*
X4257548Y39681616D01*
X4248669Y39689200D01*
X4215396Y39720446D01*
X4215388Y39720452D01*
X4196792Y39730675D01*
X4180531Y39741356D01*
X4163763Y39754363D01*
X4147409Y39761440D01*
X4121853Y39772499D01*
X4111394Y39777623D01*
X4071368Y39799627D01*
X4071365Y39799628D01*
X4050801Y39804908D01*
X4032396Y39811210D01*
X4012927Y39819635D01*
X4012921Y39819637D01*
X3967837Y39826777D01*
X3956398Y39829146D01*
X3912180Y39840500D01*
X3912177Y39840500D01*
X3890955Y39840500D01*
X3871555Y39842027D01*
X3850596Y39845347D01*
X3850595Y39845347D01*
X3829301Y39843334D01*
X3805140Y39841050D01*
X3793470Y39840500D01*
X1879808Y39840500D01*
X1812769Y39860185D01*
X1767014Y39912989D01*
X1757070Y39982147D01*
X1786095Y40045703D01*
X1792127Y40052181D01*
X2087249Y40347303D01*
X3589513Y41849569D01*
X3602079Y41859635D01*
X3601925Y41859822D01*
X3607933Y41864795D01*
X3607940Y41864798D01*
X3631227Y41889598D01*
X3655865Y41915833D01*
X3658578Y41918633D01*
X3678911Y41938965D01*
X3681606Y41942440D01*
X3689199Y41951331D01*
X3720448Y41984607D01*
X3730674Y42003210D01*
X3741353Y42019467D01*
X3754362Y42036236D01*
X3772498Y42078150D01*
X3777620Y42088605D01*
X3799627Y42128632D01*
X3804906Y42149193D01*
X3811208Y42167602D01*
X3819635Y42187074D01*
X3826777Y42232172D01*
X3829144Y42243596D01*
X3840500Y42287823D01*
X3840500Y42309051D01*
X3842027Y42328451D01*
X3845346Y42349405D01*
X3841050Y42394853D01*
X3840500Y42406522D01*
X3840500Y42672863D01*
X3860185Y42739902D01*
X3880962Y42764500D01*
X4015668Y42887301D01*
X4056833Y42941812D01*
X4139919Y43051835D01*
X4231820Y43236397D01*
X4288242Y43434703D01*
X4307266Y43640000D01*
X4288242Y43845297D01*
X4231820Y44043603D01*
X4229330Y44048603D01*
X4175883Y44155939D01*
X4139919Y44228165D01*
X4015670Y44392697D01*
X4015668Y44392700D01*
X3863303Y44531598D01*
X3863301Y44531600D01*
X3688013Y44640133D01*
X3688006Y44640137D01*
X3530785Y44701044D01*
X3495754Y44714615D01*
X3293088Y44752500D01*
X3086912Y44752500D01*
X2884246Y44714615D01*
X2884243Y44714615D01*
X2884243Y44714614D01*
X2691993Y44640137D01*
X2691986Y44640133D01*
X2516698Y44531600D01*
X2516696Y44531598D01*
X2364331Y44392700D01*
X2240081Y44228166D01*
X2148180Y44043606D01*
X2091757Y43845295D01*
X2072734Y43640000D01*
X2091757Y43434706D01*
X2148180Y43236395D01*
X2240081Y43051835D01*
X2364331Y42887301D01*
X2489650Y42773058D01*
X2525932Y42713347D01*
X2524171Y42643499D01*
X2493793Y42593740D01*
X-223127Y39876819D01*
X-284450Y39843334D01*
X-310808Y39840500D01*
X-1852035Y39840500D01*
X-1919074Y39860185D01*
X-1939716Y39876819D01*
X-2101032Y40038135D01*
X-2110298Y40048503D01*
X-2123732Y40065349D01*
X-2132521Y40076370D01*
X-2132522Y40076371D01*
X-2132523Y40076372D01*
X-2166986Y40099868D01*
X-2179767Y40108582D01*
X-2183531Y40111253D01*
X-2229514Y40145191D01*
X-2237103Y40149202D01*
X-2244725Y40152872D01*
X-2299351Y40169721D01*
X-2303756Y40171170D01*
X-2307340Y40172424D01*
X-2315344Y40175225D01*
X-2357705Y40190048D01*
X-2366074Y40191632D01*
X-2374496Y40192900D01*
X-2374498Y40192900D01*
X-2431662Y40192900D01*
X-2436299Y40192987D01*
X-2438315Y40193063D01*
X-2493411Y40195125D01*
X-2502644Y40194084D01*
X-2502738Y40194914D01*
X-2518036Y40192900D01*
X-11835338Y40192900D01*
X-11849221Y40193680D01*
X-11854230Y40194245D01*
X-11884637Y40197671D01*
X-11940790Y40187046D01*
X-11945359Y40186269D01*
X-12001885Y40177749D01*
X-12010068Y40175225D01*
X-12018071Y40172424D01*
X-12068615Y40145711D01*
X-12072752Y40143623D01*
X-12124242Y40118827D01*
X-12131262Y40114041D01*
X-12138140Y40108965D01*
X-12178542Y40068563D01*
X-12181878Y40065349D01*
X-12223796Y40026454D01*
X-12229587Y40019192D01*
X-12230238Y40019712D01*
X-12239633Y40007472D01*
X-12600286Y39646819D01*
X-12661609Y39613334D01*
X-12687967Y39610500D01*
X-13439364Y39610500D01*
X-13556754Y39595047D01*
X-13556763Y39595044D01*
X-13702840Y39534537D01*
X-13828282Y39438282D01*
X-13924537Y39312840D01*
X-13985044Y39166763D01*
X-13985045Y39166761D01*
X-14000499Y39049371D01*
X-14000500Y39049355D01*
X-14000500Y38297966D01*
X-14020185Y38230927D01*
X-14036819Y38210285D01*
X-17155737Y35091368D01*
X-17166102Y35082105D01*
X-17193967Y35059883D01*
X-17193970Y35059879D01*
X-17226177Y35012643D01*
X-17228856Y35008868D01*
X-17262794Y34962882D01*
X-17266784Y34955333D01*
X-17270472Y34947675D01*
X-17287327Y34893033D01*
X-17288775Y34888632D01*
X-17307647Y34834696D01*
X-17309229Y34826341D01*
X-17310500Y34817900D01*
X-17310500Y34760740D01*
X-17310587Y34756103D01*
X-17312725Y34698991D01*
X-17311684Y34689757D01*
X-17312515Y34689664D01*
X-17310500Y34674365D01*
X-17310500Y25731203D01*
X-17330185Y25664164D01*
X-17382989Y25618409D01*
X-17387047Y25616642D01*
X-17512842Y25564536D01*
X-17565514Y25524119D01*
X-17630683Y25498925D01*
X-17699128Y25512963D01*
X-17749117Y25561777D01*
X-17765000Y25622495D01*
X-17765000Y43640000D01*
X-13167266Y43640000D01*
X-13148243Y43434706D01*
X-13091820Y43236395D01*
X-12999919Y43051835D01*
X-12875669Y42887301D01*
X-12723304Y42748403D01*
X-12723302Y42748401D01*
X-12700500Y42734283D01*
X-12548008Y42639864D01*
X-12355754Y42565385D01*
X-12153088Y42527500D01*
X-12153086Y42527500D01*
X-11946914Y42527500D01*
X-11946912Y42527500D01*
X-11744246Y42565385D01*
X-11551992Y42639864D01*
X-11376697Y42748402D01*
X-11224330Y42887303D01*
X-11100081Y43051835D01*
X-11008180Y43236397D01*
X-10951758Y43434703D01*
X-10932734Y43640000D01*
X-10951758Y43845297D01*
X-11008180Y44043603D01*
X-11010670Y44048603D01*
X-11064117Y44155939D01*
X-11100081Y44228165D01*
X-11224330Y44392697D01*
X-11224332Y44392700D01*
X-11376697Y44531598D01*
X-11376699Y44531600D01*
X-11551987Y44640133D01*
X-11551994Y44640137D01*
X-11709215Y44701044D01*
X-11744246Y44714615D01*
X-11946912Y44752500D01*
X-12153088Y44752500D01*
X-12355754Y44714615D01*
X-12355757Y44714615D01*
X-12355757Y44714614D01*
X-12548007Y44640137D01*
X-12548014Y44640133D01*
X-12723302Y44531600D01*
X-12723304Y44531598D01*
X-12875669Y44392700D01*
X-12999919Y44228166D01*
X-13091820Y44043606D01*
X-13148243Y43845295D01*
X-13167266Y43640000D01*
X-17765000Y43640000D01*
X-17765000Y52529999D01*
X-17165468Y52529999D01*
X-17145636Y52303314D01*
X-17145634Y52303303D01*
X-17086742Y52083512D01*
X-17086739Y52083503D01*
X-16990569Y51877268D01*
X-16990568Y51877266D01*
X-16860046Y51690859D01*
X-16699142Y51529955D01*
X-16699139Y51529953D01*
X-16512734Y51399432D01*
X-16306496Y51303261D01*
X-16086692Y51244365D01*
X-15916786Y51229501D01*
X-15916785Y51229500D01*
X-15916784Y51229500D01*
X-15803215Y51229500D01*
X-15803215Y51229501D01*
X-15633308Y51244365D01*
X-15413504Y51303261D01*
X-15207266Y51399432D01*
X-15020861Y51529953D01*
X-14859953Y51690861D01*
X-14729432Y51877266D01*
X-14633261Y52083504D01*
X-14574365Y52303308D01*
X-14554532Y52530000D01*
X-14574365Y52756692D01*
X-14633261Y52976496D01*
X-14729432Y53182734D01*
X-14859953Y53369139D01*
X-14859955Y53369142D01*
X-15020859Y53530046D01*
X-15207266Y53660568D01*
X-15207268Y53660569D01*
X-15413503Y53756739D01*
X-15413512Y53756742D01*
X-15633303Y53815634D01*
X-15633313Y53815636D01*
X-15803215Y53830500D01*
X-15803216Y53830500D01*
X-15916784Y53830500D01*
X-15916785Y53830500D01*
X-16086688Y53815636D01*
X-16086698Y53815634D01*
X-16306489Y53756742D01*
X-16306498Y53756739D01*
X-16512733Y53660569D01*
X-16512735Y53660568D01*
X-16699142Y53530046D01*
X-16860046Y53369142D01*
X-16990568Y53182735D01*
X-16990569Y53182733D01*
X-17086739Y52976498D01*
X-17086742Y52976489D01*
X-17145634Y52756698D01*
X-17145636Y52756687D01*
X-17165468Y52530002D01*
X-17165468Y52529999D01*
X-17765000Y52529999D01*
X-17765000Y53748638D01*
X-17745315Y53815677D01*
X-17728681Y53836319D01*
X-17166319Y54398681D01*
X-17104996Y54432166D01*
X-17078638Y54435000D01*
X-13340998Y54435000D01*
X-13273959Y54415315D01*
G37*
%TD.AperFunction*%
%TA.AperFunction,Conductor*%
G36*
X12809400Y45161324D02*
G01*
X12815251Y45157918D01*
X12834972Y45145707D01*
X12834976Y45145705D01*
X12834981Y45145702D01*
X13033802Y45068679D01*
X13243390Y45029500D01*
X13243392Y45029500D01*
X13456608Y45029500D01*
X13456610Y45029500D01*
X13666198Y45068679D01*
X13704752Y45083616D01*
X13774372Y45089478D01*
X13836113Y45056769D01*
X13837226Y45055670D01*
X18088630Y40804267D01*
X18097895Y40793900D01*
X18120121Y40766030D01*
X18120123Y40766028D01*
X18167363Y40733820D01*
X18171145Y40731137D01*
X18217118Y40697207D01*
X18224654Y40693224D01*
X18232319Y40689533D01*
X18232327Y40689528D01*
X18257188Y40681860D01*
X18286980Y40672670D01*
X18291371Y40671226D01*
X18345301Y40652354D01*
X18345305Y40652354D01*
X18353679Y40650770D01*
X18362096Y40649501D01*
X18362098Y40649500D01*
X18419262Y40649500D01*
X18423898Y40649414D01*
X18481010Y40647276D01*
X18490244Y40648316D01*
X18490337Y40647487D01*
X18505636Y40649500D01*
X32574754Y40649500D01*
X32641793Y40629815D01*
X32685754Y40580772D01*
X32720081Y40511835D01*
X32844331Y40347301D01*
X32996696Y40208403D01*
X32996698Y40208401D01*
X33054805Y40172423D01*
X33171992Y40099864D01*
X33364246Y40025385D01*
X33566912Y39987500D01*
X33566914Y39987500D01*
X33773086Y39987500D01*
X33773088Y39987500D01*
X33975754Y40025385D01*
X34168008Y40099864D01*
X34343303Y40208402D01*
X34495670Y40347303D01*
X34619919Y40511835D01*
X34711820Y40696397D01*
X34768242Y40894703D01*
X34787266Y41100000D01*
X34768242Y41305297D01*
X34711820Y41503603D01*
X34619919Y41688165D01*
X34495670Y41852697D01*
X34495668Y41852700D01*
X34343303Y41991598D01*
X34343301Y41991600D01*
X34168013Y42100133D01*
X34168006Y42100137D01*
X33975750Y42174617D01*
X33971692Y42175771D01*
X33912598Y42213049D01*
X33883039Y42276359D01*
X33892400Y42345598D01*
X33937709Y42398785D01*
X33973531Y42414813D01*
X34103270Y42449576D01*
X34103284Y42449581D01*
X34303407Y42542900D01*
X34303417Y42542906D01*
X34368188Y42588259D01*
X33697448Y43259000D01*
X33701569Y43259000D01*
X33795421Y43274661D01*
X33907251Y43335180D01*
X33993371Y43428731D01*
X34044448Y43545177D01*
X34050105Y43613448D01*
X34721741Y42941812D01*
X34767094Y43006583D01*
X34767100Y43006593D01*
X34860419Y43206716D01*
X34860424Y43206730D01*
X34897590Y43345437D01*
X34933955Y43405097D01*
X34996801Y43435627D01*
X35066177Y43427333D01*
X35120055Y43382848D01*
X35136631Y43347278D01*
X35168177Y43236402D01*
X35168180Y43236396D01*
X35260081Y43051835D01*
X35384331Y42887301D01*
X35536696Y42748403D01*
X35536698Y42748401D01*
X35559500Y42734283D01*
X35711992Y42639864D01*
X35904246Y42565385D01*
X36106912Y42527500D01*
X36106914Y42527500D01*
X36313086Y42527500D01*
X36313088Y42527500D01*
X36515754Y42565385D01*
X36676206Y42627545D01*
X36745829Y42633407D01*
X36807569Y42600697D01*
X36841824Y42539801D01*
X36845000Y42511918D01*
X36845000Y42228083D01*
X36825315Y42161044D01*
X36772511Y42115289D01*
X36703353Y42105345D01*
X36676206Y42112456D01*
X36668893Y42115289D01*
X36515754Y42174615D01*
X36313088Y42212500D01*
X36106912Y42212500D01*
X35904246Y42174615D01*
X35904243Y42174615D01*
X35904243Y42174614D01*
X35711993Y42100137D01*
X35711986Y42100133D01*
X35536698Y41991600D01*
X35536696Y41991598D01*
X35384331Y41852700D01*
X35260081Y41688166D01*
X35168180Y41503606D01*
X35111757Y41305295D01*
X35092734Y41100000D01*
X35111757Y40894706D01*
X35168180Y40696395D01*
X35260081Y40511835D01*
X35384331Y40347301D01*
X35536696Y40208403D01*
X35536698Y40208401D01*
X35594805Y40172423D01*
X35711992Y40099864D01*
X35904246Y40025385D01*
X35904251Y40025384D01*
X35908299Y40024232D01*
X35967395Y39986958D01*
X35996959Y39923651D01*
X35987602Y39854411D01*
X35942297Y39801220D01*
X35906469Y39785188D01*
X35776727Y39750424D01*
X35776720Y39750421D01*
X35576590Y39657099D01*
X35511811Y39611742D01*
X36182553Y38941000D01*
X36178431Y38941000D01*
X36084579Y38925339D01*
X35972749Y38864820D01*
X35886629Y38771269D01*
X35835552Y38654823D01*
X35829894Y38586553D01*
X35158258Y39258189D01*
X35112901Y39193410D01*
X35019579Y38993280D01*
X35019576Y38993273D01*
X34982409Y38854563D01*
X34946044Y38794903D01*
X34883197Y38764374D01*
X34813821Y38772669D01*
X34759943Y38817154D01*
X34743367Y38852724D01*
X34739925Y38864820D01*
X34711820Y38963603D01*
X34707441Y38972397D01*
X34666248Y39055123D01*
X34619919Y39148165D01*
X34495670Y39312697D01*
X34495668Y39312700D01*
X34343303Y39451598D01*
X34343301Y39451600D01*
X34168013Y39560133D01*
X34168006Y39560137D01*
X34045220Y39607704D01*
X33975754Y39634615D01*
X33773088Y39672500D01*
X33566912Y39672500D01*
X33364246Y39634615D01*
X33364243Y39634615D01*
X33364243Y39634614D01*
X33171993Y39560137D01*
X33171986Y39560133D01*
X32996698Y39451600D01*
X32996696Y39451598D01*
X32844331Y39312700D01*
X32720081Y39148166D01*
X32685754Y39079228D01*
X32638251Y39027991D01*
X32574754Y39010500D01*
X18667965Y39010500D01*
X18600926Y39030185D01*
X18580284Y39046819D01*
X12662292Y44964811D01*
X12628807Y45026134D01*
X12633791Y45095826D01*
X12675663Y45151759D01*
X12741127Y45176176D01*
X12809400Y45161324D01*
G37*
%TD.AperFunction*%
%TA.AperFunction,Conductor*%
G36*
X15349401Y45161324D02*
G01*
X15355239Y45157926D01*
X15374981Y45145702D01*
X15573802Y45068679D01*
X15783390Y45029500D01*
X15783392Y45029500D01*
X15996608Y45029500D01*
X15996610Y45029500D01*
X16206198Y45068679D01*
X16244752Y45083616D01*
X16314372Y45089478D01*
X16376113Y45056769D01*
X16377226Y45055670D01*
X18223434Y43209462D01*
X18232699Y43199095D01*
X18254921Y43171230D01*
X18302135Y43139040D01*
X18305917Y43136357D01*
X18351921Y43102405D01*
X18359472Y43098415D01*
X18367122Y43094732D01*
X18367127Y43094728D01*
X18421765Y43077875D01*
X18426153Y43076431D01*
X18469286Y43061338D01*
X18480100Y43057554D01*
X18488488Y43055968D01*
X18496895Y43054700D01*
X18496898Y43054700D01*
X18554061Y43054700D01*
X18558698Y43054613D01*
X18615809Y43052476D01*
X18615809Y43052477D01*
X18615810Y43052476D01*
X18615810Y43052477D01*
X18625043Y43053516D01*
X18625136Y43052687D01*
X18640436Y43054700D01*
X30962938Y43054700D01*
X30976820Y43053921D01*
X30980408Y43053516D01*
X31012233Y43049930D01*
X31012233Y43049931D01*
X31012235Y43049930D01*
X31068436Y43060565D01*
X31072926Y43061328D01*
X31129487Y43069852D01*
X31129491Y43069855D01*
X31137647Y43072370D01*
X31145669Y43075176D01*
X31145670Y43075177D01*
X31145672Y43075177D01*
X31196288Y43101930D01*
X31200293Y43103952D01*
X31251842Y43128775D01*
X31251843Y43128777D01*
X31251845Y43128777D01*
X31258895Y43133584D01*
X31265734Y43138633D01*
X31265738Y43138634D01*
X31306175Y43179073D01*
X31309461Y43182239D01*
X31351394Y43221145D01*
X31351396Y43221150D01*
X31357187Y43228410D01*
X31357843Y43227887D01*
X31367232Y43240130D01*
X32254542Y44127440D01*
X32315863Y44160923D01*
X32385555Y44155939D01*
X32441488Y44114067D01*
X32465905Y44048603D01*
X32461996Y44007664D01*
X32422426Y43859987D01*
X32422424Y43859977D01*
X32403179Y43640001D01*
X32403179Y43640000D01*
X32422424Y43420024D01*
X32422426Y43420014D01*
X32479575Y43206730D01*
X32479580Y43206716D01*
X32572898Y43006595D01*
X32572901Y43006589D01*
X32618258Y42941813D01*
X32618258Y42941812D01*
X33285096Y43608651D01*
X33285051Y43608102D01*
X33316266Y43484838D01*
X33385813Y43378388D01*
X33486157Y43300287D01*
X33606422Y43259000D01*
X33642553Y43259000D01*
X32971810Y42588260D01*
X33036590Y42542901D01*
X33036592Y42542900D01*
X33236715Y42449581D01*
X33236729Y42449576D01*
X33366468Y42414813D01*
X33426129Y42378448D01*
X33456658Y42315602D01*
X33448364Y42246226D01*
X33403878Y42192348D01*
X33368310Y42175772D01*
X33364252Y42174618D01*
X33171993Y42100137D01*
X33171986Y42100133D01*
X32996698Y41991600D01*
X32996696Y41991598D01*
X32844331Y41852700D01*
X32720081Y41688166D01*
X32685754Y41619228D01*
X32638251Y41567991D01*
X32574754Y41550500D01*
X18667966Y41550500D01*
X18600927Y41570185D01*
X18580285Y41586819D01*
X15202293Y44964811D01*
X15168808Y45026134D01*
X15173792Y45095826D01*
X15215664Y45151759D01*
X15281128Y45176176D01*
X15349401Y45161324D01*
G37*
%TD.AperFunction*%
%TA.AperFunction,Conductor*%
G36*
X34721741Y48021812D02*
G01*
X34767094Y48086583D01*
X34767100Y48086593D01*
X34860419Y48286716D01*
X34860424Y48286730D01*
X34897590Y48425437D01*
X34933955Y48485097D01*
X34996801Y48515627D01*
X35066177Y48507333D01*
X35120055Y48462848D01*
X35136631Y48427278D01*
X35168177Y48316402D01*
X35168180Y48316396D01*
X35260081Y48131835D01*
X35384331Y47967301D01*
X35536696Y47828403D01*
X35536698Y47828401D01*
X35636961Y47766321D01*
X35711992Y47719864D01*
X35904246Y47645385D01*
X36106912Y47607500D01*
X36106914Y47607500D01*
X36313086Y47607500D01*
X36313088Y47607500D01*
X36515754Y47645385D01*
X36676206Y47707545D01*
X36745829Y47713407D01*
X36807569Y47680697D01*
X36841824Y47619801D01*
X36845000Y47591918D01*
X36845000Y47308083D01*
X36825315Y47241044D01*
X36772511Y47195289D01*
X36703353Y47185345D01*
X36676206Y47192456D01*
X36550785Y47241044D01*
X36515754Y47254615D01*
X36313088Y47292500D01*
X36106912Y47292500D01*
X35904246Y47254615D01*
X35904243Y47254615D01*
X35904243Y47254614D01*
X35711993Y47180137D01*
X35711986Y47180133D01*
X35536698Y47071600D01*
X35536696Y47071598D01*
X35384331Y46932700D01*
X35260081Y46768166D01*
X35168180Y46583606D01*
X35111757Y46385295D01*
X35092734Y46180000D01*
X35111757Y45974706D01*
X35168180Y45776395D01*
X35260081Y45591835D01*
X35384331Y45427301D01*
X35536696Y45288403D01*
X35536698Y45288401D01*
X35552513Y45278609D01*
X35711992Y45179864D01*
X35904246Y45105385D01*
X36106912Y45067500D01*
X36106914Y45067500D01*
X36313086Y45067500D01*
X36313088Y45067500D01*
X36515754Y45105385D01*
X36676206Y45167545D01*
X36745829Y45173407D01*
X36807569Y45140697D01*
X36841824Y45079801D01*
X36845000Y45051918D01*
X36845000Y44768083D01*
X36825315Y44701044D01*
X36772511Y44655289D01*
X36703353Y44645345D01*
X36676206Y44652456D01*
X36550785Y44701044D01*
X36515754Y44714615D01*
X36313088Y44752500D01*
X36106912Y44752500D01*
X35904246Y44714615D01*
X35904243Y44714615D01*
X35904243Y44714614D01*
X35711993Y44640137D01*
X35711986Y44640133D01*
X35536698Y44531600D01*
X35536696Y44531598D01*
X35384331Y44392700D01*
X35260081Y44228166D01*
X35168180Y44043605D01*
X35168177Y44043599D01*
X35136631Y43932723D01*
X35099352Y43873629D01*
X35036042Y43844072D01*
X34966803Y43853434D01*
X34913616Y43898744D01*
X34897590Y43934564D01*
X34860424Y44073271D01*
X34860420Y44073280D01*
X34767096Y44273414D01*
X34721741Y44338189D01*
X34721740Y44338190D01*
X34054903Y43671352D01*
X34054949Y43671898D01*
X34023734Y43795162D01*
X33954187Y43901612D01*
X33853843Y43979713D01*
X33733578Y44021000D01*
X33697446Y44021000D01*
X34368188Y44691742D01*
X34303411Y44737099D01*
X34303405Y44737102D01*
X34103284Y44830420D01*
X34103273Y44830424D01*
X33973530Y44865188D01*
X33913870Y44901553D01*
X33883341Y44964400D01*
X33891636Y45033776D01*
X33936121Y45087654D01*
X33971703Y45104233D01*
X33975743Y45105384D01*
X33975754Y45105385D01*
X34168008Y45179864D01*
X34343303Y45288402D01*
X34495670Y45427303D01*
X34619919Y45591835D01*
X34711820Y45776397D01*
X34768242Y45974703D01*
X34787266Y46180000D01*
X34768242Y46385297D01*
X34711820Y46583603D01*
X34704955Y46597389D01*
X34654245Y46699229D01*
X34619919Y46768165D01*
X34495670Y46932697D01*
X34495668Y46932700D01*
X34343303Y47071598D01*
X34343301Y47071600D01*
X34168013Y47180133D01*
X34168006Y47180137D01*
X33975750Y47254617D01*
X33971692Y47255771D01*
X33912598Y47293049D01*
X33883039Y47356359D01*
X33892400Y47425598D01*
X33937709Y47478785D01*
X33973531Y47494813D01*
X34103270Y47529576D01*
X34103284Y47529581D01*
X34303407Y47622900D01*
X34303417Y47622906D01*
X34368188Y47668259D01*
X33697448Y48339000D01*
X33701569Y48339000D01*
X33795421Y48354661D01*
X33907251Y48415180D01*
X33993371Y48508731D01*
X34044448Y48625177D01*
X34050105Y48693448D01*
X34721741Y48021812D01*
G37*
%TD.AperFunction*%
%TA.AperFunction,Conductor*%
G36*
X32385555Y49235940D02*
G01*
X32441488Y49194068D01*
X32465905Y49128604D01*
X32461996Y49087665D01*
X32422426Y48939987D01*
X32422424Y48939977D01*
X32403179Y48720001D01*
X32403179Y48720000D01*
X32422424Y48500024D01*
X32422426Y48500014D01*
X32479575Y48286730D01*
X32479580Y48286716D01*
X32572898Y48086595D01*
X32572901Y48086589D01*
X32618258Y48021813D01*
X32618258Y48021812D01*
X33285096Y48688651D01*
X33285051Y48688102D01*
X33316266Y48564838D01*
X33385813Y48458388D01*
X33486157Y48380287D01*
X33606422Y48339000D01*
X33642553Y48339000D01*
X32971810Y47668260D01*
X33036590Y47622901D01*
X33036592Y47622900D01*
X33236715Y47529581D01*
X33236729Y47529576D01*
X33366468Y47494813D01*
X33426129Y47458448D01*
X33456658Y47395602D01*
X33448364Y47326226D01*
X33403878Y47272348D01*
X33368310Y47255772D01*
X33364252Y47254618D01*
X33171993Y47180137D01*
X33171986Y47180133D01*
X32996698Y47071600D01*
X32996696Y47071598D01*
X32844331Y46932700D01*
X32720081Y46768166D01*
X32628180Y46583606D01*
X32571757Y46385295D01*
X32552734Y46180000D01*
X32571757Y45974706D01*
X32608485Y45845618D01*
X32607897Y45775751D01*
X32576899Y45724004D01*
X30844916Y43992019D01*
X30783593Y43958534D01*
X30757235Y43955700D01*
X18802765Y43955700D01*
X18735726Y43975385D01*
X18715084Y43992019D01*
X17742292Y44964811D01*
X17708807Y45026134D01*
X17713791Y45095826D01*
X17755663Y45151759D01*
X17821127Y45176176D01*
X17889400Y45161324D01*
X17895251Y45157918D01*
X17914972Y45145707D01*
X17914976Y45145705D01*
X17914981Y45145702D01*
X18113802Y45068679D01*
X18323390Y45029500D01*
X18323392Y45029500D01*
X18536608Y45029500D01*
X18536610Y45029500D01*
X18746198Y45068679D01*
X18784752Y45083616D01*
X18854374Y45089478D01*
X18916115Y45056769D01*
X18917227Y45055670D01*
X19358630Y44614267D01*
X19367895Y44603900D01*
X19390121Y44576030D01*
X19390123Y44576028D01*
X19437363Y44543820D01*
X19441145Y44541137D01*
X19487118Y44507207D01*
X19494665Y44503219D01*
X19502322Y44499532D01*
X19502327Y44499528D01*
X19556983Y44482670D01*
X19561342Y44481235D01*
X19615300Y44462354D01*
X19615305Y44462354D01*
X19623698Y44460766D01*
X19632095Y44459500D01*
X19632098Y44459500D01*
X19689261Y44459500D01*
X19693898Y44459413D01*
X19751009Y44457276D01*
X19751009Y44457277D01*
X19751010Y44457276D01*
X19751010Y44457277D01*
X19760243Y44458316D01*
X19760336Y44457487D01*
X19775636Y44459500D01*
X27287738Y44459500D01*
X27301620Y44458721D01*
X27305208Y44458316D01*
X27337033Y44454730D01*
X27337033Y44454731D01*
X27337035Y44454730D01*
X27393236Y44465365D01*
X27397726Y44466128D01*
X27454287Y44474652D01*
X27454291Y44474655D01*
X27462447Y44477170D01*
X27470469Y44479976D01*
X27470470Y44479977D01*
X27470472Y44479977D01*
X27521088Y44506730D01*
X27525093Y44508752D01*
X27576642Y44533575D01*
X27576643Y44533577D01*
X27576645Y44533577D01*
X27583695Y44538384D01*
X27590534Y44543433D01*
X27590538Y44543434D01*
X27630975Y44583873D01*
X27634261Y44587039D01*
X27676194Y44625945D01*
X27676196Y44625950D01*
X27681987Y44633210D01*
X27682643Y44632687D01*
X27692032Y44644930D01*
X32254542Y49207441D01*
X32315863Y49240924D01*
X32385555Y49235940D01*
G37*
%TD.AperFunction*%
%TA.AperFunction,Conductor*%
G36*
X35150174Y54415315D02*
G01*
X35195929Y54362511D01*
X35205873Y54293353D01*
X35194135Y54255728D01*
X35168180Y54203605D01*
X35111757Y54005295D01*
X35092734Y53800000D01*
X35111757Y53594706D01*
X35168180Y53396395D01*
X35260081Y53211835D01*
X35384331Y53047301D01*
X35536696Y52908403D01*
X35536698Y52908401D01*
X35636961Y52846321D01*
X35711992Y52799864D01*
X35904246Y52725385D01*
X36106912Y52687500D01*
X36106914Y52687500D01*
X36313086Y52687500D01*
X36313088Y52687500D01*
X36515754Y52725385D01*
X36676206Y52787545D01*
X36745829Y52793407D01*
X36807569Y52760697D01*
X36841824Y52699801D01*
X36845000Y52671918D01*
X36845000Y52388083D01*
X36825315Y52321044D01*
X36772511Y52275289D01*
X36703353Y52265345D01*
X36676206Y52272456D01*
X36596567Y52303308D01*
X36515754Y52334615D01*
X36313088Y52372500D01*
X36106912Y52372500D01*
X35904246Y52334615D01*
X35904243Y52334615D01*
X35904243Y52334614D01*
X35711993Y52260137D01*
X35711986Y52260133D01*
X35536698Y52151600D01*
X35536696Y52151598D01*
X35384331Y52012700D01*
X35260081Y51848166D01*
X35168180Y51663606D01*
X35111757Y51465295D01*
X35092734Y51260000D01*
X35111757Y51054706D01*
X35168180Y50856395D01*
X35260081Y50671835D01*
X35384331Y50507301D01*
X35536696Y50368403D01*
X35536698Y50368401D01*
X35636961Y50306321D01*
X35711992Y50259864D01*
X35904246Y50185385D01*
X36106912Y50147500D01*
X36106914Y50147500D01*
X36313086Y50147500D01*
X36313088Y50147500D01*
X36515754Y50185385D01*
X36676206Y50247545D01*
X36745829Y50253407D01*
X36807569Y50220697D01*
X36841824Y50159801D01*
X36845000Y50131918D01*
X36845000Y49848083D01*
X36825315Y49781044D01*
X36772511Y49735289D01*
X36703353Y49725345D01*
X36676206Y49732456D01*
X36550785Y49781044D01*
X36515754Y49794615D01*
X36313088Y49832500D01*
X36106912Y49832500D01*
X35904246Y49794615D01*
X35904243Y49794615D01*
X35904243Y49794614D01*
X35711993Y49720137D01*
X35711986Y49720133D01*
X35536698Y49611600D01*
X35536696Y49611598D01*
X35384331Y49472700D01*
X35260081Y49308166D01*
X35168180Y49123605D01*
X35168177Y49123599D01*
X35136631Y49012723D01*
X35099352Y48953629D01*
X35036042Y48924072D01*
X34966803Y48933434D01*
X34913616Y48978744D01*
X34897590Y49014564D01*
X34860424Y49153271D01*
X34860420Y49153280D01*
X34767096Y49353414D01*
X34721741Y49418189D01*
X34721740Y49418190D01*
X34054903Y48751352D01*
X34054949Y48751898D01*
X34023734Y48875162D01*
X33954187Y48981612D01*
X33853843Y49059713D01*
X33733578Y49101000D01*
X33697446Y49101000D01*
X34368188Y49771742D01*
X34303411Y49817099D01*
X34303405Y49817102D01*
X34103284Y49910420D01*
X34103273Y49910424D01*
X33973530Y49945188D01*
X33913870Y49981553D01*
X33883341Y50044400D01*
X33891636Y50113776D01*
X33936121Y50167654D01*
X33971703Y50184233D01*
X33975743Y50185384D01*
X33975754Y50185385D01*
X34168008Y50259864D01*
X34343303Y50368402D01*
X34495670Y50507303D01*
X34619919Y50671835D01*
X34711820Y50856397D01*
X34768242Y51054703D01*
X34787266Y51260000D01*
X34768242Y51465297D01*
X34711820Y51663603D01*
X34619919Y51848165D01*
X34559724Y51927876D01*
X34495668Y52012700D01*
X34343303Y52151598D01*
X34343301Y52151600D01*
X34168013Y52260133D01*
X34168006Y52260137D01*
X34010785Y52321044D01*
X33975754Y52334615D01*
X33773088Y52372500D01*
X33566912Y52372500D01*
X33364246Y52334615D01*
X33364243Y52334615D01*
X33364243Y52334614D01*
X33171993Y52260137D01*
X33171986Y52260133D01*
X33017888Y52164720D01*
X32950527Y52146165D01*
X32883828Y52166973D01*
X32838967Y52220538D01*
X32830187Y52289854D01*
X32860276Y52352913D01*
X32864912Y52357810D01*
X33212147Y52705045D01*
X33273468Y52738528D01*
X33343160Y52733544D01*
X33344604Y52732995D01*
X33364246Y52725385D01*
X33566912Y52687500D01*
X33566914Y52687500D01*
X33773086Y52687500D01*
X33773088Y52687500D01*
X33975754Y52725385D01*
X34168008Y52799864D01*
X34343303Y52908402D01*
X34495670Y53047303D01*
X34619919Y53211835D01*
X34711820Y53396397D01*
X34768242Y53594703D01*
X34787266Y53800000D01*
X34768242Y54005297D01*
X34711820Y54203603D01*
X34697045Y54233275D01*
X34685865Y54255728D01*
X34673604Y54324513D01*
X34700477Y54389008D01*
X34757952Y54428736D01*
X34796865Y54435000D01*
X35083135Y54435000D01*
X35150174Y54415315D01*
G37*
%TD.AperFunction*%
%TA.AperFunction,Conductor*%
G36*
X10482359Y54038045D02*
G01*
X10424835Y53925148D01*
X10405014Y53800000D01*
X10424835Y53674852D01*
X10482359Y53561955D01*
X10494314Y53550000D01*
X8585686Y53550000D01*
X8597641Y53561955D01*
X8655165Y53674852D01*
X8674986Y53800000D01*
X8655165Y53925148D01*
X8597641Y54038045D01*
X8585686Y54050000D01*
X10494314Y54050000D01*
X10482359Y54038045D01*
G37*
%TD.AperFunction*%
%TA.AperFunction,Conductor*%
G36*
X13022359Y54038045D02*
G01*
X12964835Y53925148D01*
X12945014Y53800000D01*
X12964835Y53674852D01*
X13022359Y53561955D01*
X13034314Y53550000D01*
X11125686Y53550000D01*
X11137641Y53561955D01*
X11195165Y53674852D01*
X11214986Y53800000D01*
X11195165Y53925148D01*
X11137641Y54038045D01*
X11125686Y54050000D01*
X13034314Y54050000D01*
X13022359Y54038045D01*
G37*
%TD.AperFunction*%
%TA.AperFunction,Conductor*%
G36*
X15562359Y54038045D02*
G01*
X15504835Y53925148D01*
X15485014Y53800000D01*
X15504835Y53674852D01*
X15562359Y53561955D01*
X15574314Y53550000D01*
X13665686Y53550000D01*
X13677641Y53561955D01*
X13735165Y53674852D01*
X13754986Y53800000D01*
X13735165Y53925148D01*
X13677641Y54038045D01*
X13665686Y54050000D01*
X15574314Y54050000D01*
X15562359Y54038045D01*
G37*
%TD.AperFunction*%
%TA.AperFunction,Conductor*%
G36*
X18102359Y54038045D02*
G01*
X18044835Y53925148D01*
X18025014Y53800000D01*
X18044835Y53674852D01*
X18102359Y53561955D01*
X18114314Y53550000D01*
X16205686Y53550000D01*
X16217641Y53561955D01*
X16275165Y53674852D01*
X16294986Y53800000D01*
X16275165Y53925148D01*
X16217641Y54038045D01*
X16205686Y54050000D01*
X18114314Y54050000D01*
X18102359Y54038045D01*
G37*
%TD.AperFunction*%
%TA.AperFunction,Conductor*%
G36*
X20642359Y54038045D02*
G01*
X20584835Y53925148D01*
X20565014Y53800000D01*
X20584835Y53674852D01*
X20642359Y53561955D01*
X20654314Y53550000D01*
X18745686Y53550000D01*
X18757641Y53561955D01*
X18815165Y53674852D01*
X18834986Y53800000D01*
X18815165Y53925148D01*
X18757641Y54038045D01*
X18745686Y54050000D01*
X20654314Y54050000D01*
X20642359Y54038045D01*
G37*
%TD.AperFunction*%
%TD*%
M02*
