%TF.GenerationSoftware,KiCad,Pcbnew,7.0.10*%
%TF.CreationDate,2024-05-09T12:15:42+09:00*%
%TF.ProjectId,yashica8,79617368-6963-4613-982e-6b696361645f,rev?*%
%TF.SameCoordinates,Original*%
%TF.FileFunction,Soldermask,Top*%
%TF.FilePolarity,Negative*%
%FSLAX46Y46*%
G04 Gerber Fmt 4.6, Leading zero omitted, Abs format (unit mm)*
G04 Created by KiCad (PCBNEW 7.0.10) date 2024-05-09 12:15:42*
%MOMM*%
%LPD*%
G01*
G04 APERTURE LIST*
G04 Aperture macros list*
%AMRoundRect*
0 Rectangle with rounded corners*
0 $1 Rounding radius*
0 $2 $3 $4 $5 $6 $7 $8 $9 X,Y pos of 4 corners*
0 Add a 4 corners polygon primitive as box body*
4,1,4,$2,$3,$4,$5,$6,$7,$8,$9,$2,$3,0*
0 Add four circle primitives for the rounded corners*
1,1,$1+$1,$2,$3*
1,1,$1+$1,$4,$5*
1,1,$1+$1,$6,$7*
1,1,$1+$1,$8,$9*
0 Add four rect primitives between the rounded corners*
20,1,$1+$1,$2,$3,$4,$5,0*
20,1,$1+$1,$4,$5,$6,$7,0*
20,1,$1+$1,$6,$7,$8,$9,0*
20,1,$1+$1,$8,$9,$2,$3,0*%
G04 Aperture macros list end*
%ADD10C,2.100000*%
%ADD11R,1.800000X1.800000*%
%ADD12C,1.800000*%
%ADD13C,2.000000*%
%ADD14RoundRect,0.250000X-0.350000X-0.450000X0.350000X-0.450000X0.350000X0.450000X-0.350000X0.450000X0*%
%ADD15RoundRect,0.150000X-0.512500X-0.150000X0.512500X-0.150000X0.512500X0.150000X-0.512500X0.150000X0*%
%ADD16R,1.524000X1.524000*%
%ADD17C,1.524000*%
%ADD18RoundRect,0.250000X-0.450000X0.350000X-0.450000X-0.350000X0.450000X-0.350000X0.450000X0.350000X0*%
%ADD19R,1.600000X1.600000*%
%ADD20O,1.600000X1.600000*%
%ADD21RoundRect,0.381000X-0.762000X-0.381000X0.762000X-0.381000X0.762000X0.381000X-0.762000X0.381000X0*%
%ADD22RoundRect,0.381000X0.762000X0.381000X-0.762000X0.381000X-0.762000X-0.381000X0.762000X-0.381000X0*%
G04 APERTURE END LIST*
D10*
%TO.C,REF\u002A\u002A*%
X28590000Y52530000D03*
%TD*%
D11*
%TO.C,D2*%
X23510000Y24590000D03*
D12*
X26050000Y24590000D03*
%TD*%
D13*
%TO.C,SW2*%
X23800000Y7370000D03*
X23800000Y13870000D03*
X28300000Y7370000D03*
X28300000Y13870000D03*
%TD*%
D14*
%TO.C,R5*%
X-16860000Y16970000D03*
X-14860000Y16970000D03*
%TD*%
%TO.C,R7*%
X-16860000Y22050000D03*
X-14860000Y22050000D03*
%TD*%
D15*
%TO.C,U1*%
X-4165000Y39190000D03*
X-4165000Y38240000D03*
X-4165000Y37290000D03*
X-1890000Y37290000D03*
X-1890000Y39190000D03*
%TD*%
D10*
%TO.C,REF\u002A\u002A*%
X-15860000Y52530000D03*
%TD*%
D16*
%TO.C,J1*%
X36210000Y8080000D03*
D17*
X33670000Y8080000D03*
X36210000Y10620000D03*
X33670000Y10620000D03*
X36210000Y13160000D03*
X33670000Y13160000D03*
X36210000Y15700000D03*
X33670000Y15700000D03*
X36210000Y18240000D03*
X33670000Y18240000D03*
X36210000Y20780000D03*
X33670000Y20780000D03*
X36210000Y23320000D03*
X33670000Y23320000D03*
X36210000Y25860000D03*
X33670000Y25860000D03*
X36210000Y28400000D03*
X33670000Y28400000D03*
X36210000Y30940000D03*
X33670000Y30940000D03*
X36210000Y33480000D03*
X33670000Y33480000D03*
X36210000Y36020000D03*
X33670000Y36020000D03*
X36210000Y38560000D03*
X33670000Y38560000D03*
X36210000Y41100000D03*
X33670000Y41100000D03*
X36210000Y43640000D03*
X33670000Y43640000D03*
X36210000Y46180000D03*
X33670000Y46180000D03*
X36210000Y48720000D03*
X33670000Y48720000D03*
X36210000Y51260000D03*
X33670000Y51260000D03*
X36210000Y53800000D03*
X33670000Y53800000D03*
%TD*%
D14*
%TO.C,R2*%
X-13050000Y33480000D03*
X-11050000Y33480000D03*
%TD*%
D17*
%TO.C,U2*%
X-12050000Y43640000D03*
X-12050000Y53800000D03*
X3190000Y43640000D03*
X3190000Y53800000D03*
%TD*%
D11*
%TO.C,D1*%
X23510000Y19510000D03*
D12*
X26050000Y19510000D03*
%TD*%
D14*
%TO.C,R1*%
X-16860000Y24590000D03*
X-14860000Y24590000D03*
%TD*%
D18*
%TO.C,R8*%
X28590000Y20510000D03*
X28590000Y18510000D03*
%TD*%
D19*
%TO.C,SW1*%
X8270000Y46180000D03*
D20*
X10810000Y46180000D03*
X13350000Y46180000D03*
X15890000Y46180000D03*
X18430000Y46180000D03*
X20970000Y46180000D03*
X20970000Y53800000D03*
X18430000Y53800000D03*
X15890000Y53800000D03*
X13350000Y53800000D03*
X10810000Y53800000D03*
X8270000Y53800000D03*
%TD*%
D14*
%TO.C,R4*%
X-16860000Y19510000D03*
X-14860000Y19510000D03*
%TD*%
%TO.C,R6*%
X-13050000Y38560000D03*
X-11050000Y38560000D03*
%TD*%
D21*
%TO.C,U3*%
X-12050000Y10620000D03*
X-12050000Y8080000D03*
D22*
X-12050000Y5540000D03*
D21*
X-12050000Y3000000D03*
%TD*%
D10*
%TO.C,REF\u002A\u002A*%
X-15860000Y4270000D03*
%TD*%
D14*
%TO.C,R3*%
X-13050000Y36020000D03*
X-11050000Y36020000D03*
%TD*%
D18*
%TO.C,R9*%
X28590000Y25590000D03*
X28590000Y23590000D03*
%TD*%
D10*
%TO.C,REF\u002A\u002A*%
X34940000Y4270000D03*
%TD*%
M02*
